<?xml version="1.0" standalone="no"?>
<!DOCTYPE svg PUBLIC "-//W3C//DTD SVG 1.1//EN" "http://www.w3.org/Graphics/SVG/1.1/DTD/svg11.dtd" >
<svg xmlns="http://www.w3.org/2000/svg">
<metadata></metadata>
<defs>
<font id="brix_slab_boldregular" horiz-adv-x="1146" >
<font-face units-per-em="2048" ascent="1475" descent="-573" />
<missing-glyph horiz-adv-x="409" />
<glyph unicode="&#xfb01;" horiz-adv-x="1394" d="M72 735v199h133v201q0 63 18 118t53.5 99t95 69t136.5 25q87 0 154 -23v-194q-3 0 -54 4t-80 4q-52 0 -75 -30t-23 -91v-182h758v-737h182v-197h-606v197h197v538h-531v-538h195v-197h-551v178l131 37v520h-133zM922 1257q0 71 39 106.5t104 35.5q59 0 100 -36.5 t41 -105.5q0 -70 -40.5 -103.5t-100.5 -33.5q-143 0 -143 137z" />
<glyph unicode="&#xfb02;" horiz-adv-x="1267" d="M74 735v215h131v129q0 80 24.5 144.5t77 115.5t144 79t217.5 28q214 0 409 -72v-1079q0 -57 19 -79.5t63 -22.5q42 0 90 10l4 -199q-79 -27 -168 -27q-67 0 -113.5 20.5t-72 60.5t-36.5 89.5t-11 116.5v965q-82 18 -197 18q-223 0 -223 -178v-119h252v-215h-252v-538h195 v-197h-551v178l129 37v520h-131z" />
<glyph horiz-adv-x="0" />
<glyph horiz-adv-x="0" />
<glyph unicode="&#xd;" horiz-adv-x="2048" />
<glyph unicode=" "  horiz-adv-x="409" />
<glyph unicode="&#x09;" horiz-adv-x="409" />
<glyph unicode="&#xa0;" horiz-adv-x="409" />
<glyph unicode="!" horiz-adv-x="540" d="M115 135q0 66 43.5 108t111.5 42t112 -42t44 -108q0 -63 -44.5 -105t-111.5 -42t-111 42t-44 105zM131 1384h281l-45 -927h-195z" />
<glyph unicode="&#x22;" horiz-adv-x="749" d="M86 1384h225l-26 -499h-174zM444 1384h220l-23 -499h-176z" />
<glyph unicode="#" horiz-adv-x="1343" d="M80 360l33 209h204l39 269h-198l26 209h203l53 337h224l-54 -337h219l52 337h225l-51 -337h209l-33 -209h-209l-41 -269h209l-31 -209h-211l-55 -360h-227l59 360h-217l-57 -360h-226l58 360h-203zM539 569h219l39 269h-219z" />
<glyph unicode="$" d="M109 74v364h202l37 -229q58 -28 150 -35v414l-64 22q-179 65 -252 158.5t-71 245.5q0 65 21.5 126t65 116.5t121 94.5t179.5 50v153h145v-151q202 -15 365 -96v-351h-203l-37 224q-63 19 -125 24v-401l76 -27q186 -64 262 -160t76 -243q0 -65 -25 -128t-73 -119t-130 -95 t-186 -49v-193h-145v191q-217 11 -389 94zM367 1024q0 -121 131 -170v340q-63 -18 -97 -65t-34 -105zM643 180q70 13 112 60t42 112q0 62 -37.5 109.5t-106.5 70.5l-10 5v-357z" />
<glyph unicode="%" horiz-adv-x="1581" d="M78 1071q0 145 85 239.5t243 94.5q84 0 148.5 -26.5t104 -72.5t59 -105.5t19.5 -129.5q0 -148 -85 -243t-246 -95q-162 0 -245 94.5t-83 243.5zM272 1071q0 -70 34 -108.5t100 -38.5q133 0 133 147q0 67 -33 105t-100 38q-66 0 -100 -38.5t-34 -104.5zM283 0v27l837 1357 h174v-26l-843 -1358h-168zM844 315q0 143 85 238.5t242 95.5q165 0 248.5 -94.5t83.5 -239.5q0 -149 -84.5 -243.5t-247.5 -94.5q-161 0 -244 94.5t-83 243.5zM1040 315q0 -71 33 -110t98 -39q68 0 102 39t34 110q0 66 -34.5 104t-101.5 38q-64 0 -97.5 -38t-33.5 -104z" />
<glyph unicode="&#x26;" horiz-adv-x="1308" d="M72 395q0 136 75 221t185 113q-67 20 -112.5 53.5t-75 98t-29.5 157.5q0 58 13 109t45 99.5t81.5 82.5t127.5 55t177 21q181 0 344 -70l-69 -202q-114 57 -267 57q-108 0 -157.5 -44t-49.5 -140q0 -191 234 -191h231v164l228 37v-201h176v-199h-176v-319q0 -52 27 -78 t73 -26q22 0 104 16l3 -203q-89 -29 -177 -29q-176 0 -231 140q-126 -140 -322 -140q-214 0 -336 113t-122 305zM324 397q0 -204 231 -204q79 0 141 25.5t129 76.5v321h-239q-138 0 -200 -54t-62 -165z" />
<glyph unicode="'" horiz-adv-x="393" d="M88 1384h219l-24 -499h-174z" />
<glyph unicode="(" horiz-adv-x="567" d="M68 494q0 146 21 276.5t64 247.5t92.5 213.5t121.5 210.5l178 -68q-232 -471 -232 -880q0 -239 54.5 -445t173.5 -436l-174 -68q-146 213 -222.5 442.5t-76.5 506.5z" />
<glyph unicode=")" horiz-adv-x="567" d="M23 1374l178 68q72 -114 121.5 -210.5t92.5 -213.5t64 -247.5t21 -276.5q0 -277 -76.5 -506.5t-222.5 -442.5l-174 68q120 229 174.5 435t54.5 446q0 414 -233 880z" />
<glyph unicode="*" horiz-adv-x="983" d="M86 1018l55 207l258 -90l-16 290h217l-16 -288l270 75l43 -204l-260 -37l174 -221l-174 -121l-158 245l-186 -245l-139 127l190 219z" />
<glyph unicode="+" d="M76 442v222h375v389h237v-389h381v-222h-381v-391h-237v391h-375z" />
<glyph unicode="," horiz-adv-x="438" d="M59 -223l52 510h251l-129 -510h-174z" />
<glyph unicode="-" d="M201 442v222h743v-222h-743z" />
<glyph unicode="." horiz-adv-x="454" d="M72 135q0 66 43.5 108t111.5 42t112 -42t44 -108q0 -63 -44.5 -105t-111.5 -42t-111 42t-44 105z" />
<glyph unicode="/" horiz-adv-x="790" d="M70 0v29l415 1355h238v-24l-424 -1360h-229z" />
<glyph unicode="0" horiz-adv-x="1255" d="M100 686q0 172 29 301.5t91 224.5t165 144t246 49q142 0 243.5 -48t162.5 -142.5t89.5 -224.5t28.5 -304q0 -172 -28.5 -300t-90.5 -221t-164.5 -140.5t-246.5 -47.5q-278 0 -401.5 179.5t-123.5 529.5zM354 686q0 -259 61.5 -374t215.5 -115q151 0 212.5 115.5 t61.5 373.5q0 260 -62.5 381t-217.5 121q-150 0 -210.5 -121.5t-60.5 -380.5z" />
<glyph unicode="1" horiz-adv-x="987" d="M57 1214l418 170h209v-1169h279v-215h-854v215h333v922l-331 -115z" />
<glyph unicode="2" horiz-adv-x="1110" d="M92 993q0 181 115 296.5t330 115.5q111 0 197.5 -32.5t140 -89.5t81 -131.5t27.5 -162.5q0 -48 -8.5 -92.5t-27.5 -86.5t-37 -74.5t-50 -72t-51.5 -62t-57.5 -63t-53 -57.5q-108 -120 -258 -266h377v152h199v-367h-922v180q133 123 445 445q101 108 146.5 185t45.5 177 q0 94 -51.5 149.5t-142.5 55.5q-95 0 -147 -53.5t-52 -149.5q0 -46 10 -88l-244 -16q-12 44 -12 108z" />
<glyph unicode="3" horiz-adv-x="1091" d="M61 125l111 188q137 -120 328 -120q126 0 184.5 51t58.5 141q0 101 -63 145.5t-209 44.5h-154v213h142q113 0 180.5 53t67.5 150q0 94 -51.5 146.5t-155.5 52.5q-114 0 -199 -45v-148h-178l-21 281q75 54 180.5 90.5t225.5 36.5q99 0 177 -23t127.5 -60t81.5 -87.5 t45 -102.5t13 -108q0 -134 -61.5 -217t-163.5 -113q54 -12 99.5 -34.5t85.5 -59t62.5 -94.5t22.5 -131q0 -186 -126.5 -292t-370.5 -106q-133 0 -250.5 42.5t-188.5 105.5z" />
<glyph unicode="4" horiz-adv-x="1153" d="M33 285v176l471 706q35 52 66.5 106t45.5 83l15 28h278v-903h197v-196h-197v-285h-237v285h-639zM295 481h377v588z" />
<glyph unicode="5" horiz-adv-x="1089" d="M80 96l22 305h197v-170q84 -38 188 -38q130 0 197.5 64t67.5 183q0 111 -64 173.5t-192 62.5q-120 0 -285 -64l-80 31l90 741h735v-215h-540l-41 -323q92 47 219 47q194 0 303 -120t109 -324q0 -221 -134.5 -346.5t-386.5 -125.5q-226 0 -405 119z" />
<glyph unicode="6" horiz-adv-x="1163" d="M98 655q0 750 588 750q180 0 367 -90l-82 -199q-145 74 -287 74q-75 0 -134 -24.5t-96.5 -64.5t-62.5 -96t-35 -114.5t-10 -124.5q0 -21 2 -29q34 62 111.5 110t191.5 48q202 0 315 -119t113 -327q0 -219 -123 -345.5t-364 -126.5q-243 0 -368.5 172.5t-125.5 505.5z M352 514q2 -68 16 -124t42.5 -101.5t77.5 -70.5t114 -25q119 0 175.5 65.5t56.5 175.5q0 107 -55 167.5t-167 60.5q-92 0 -158 -41t-102 -107z" />
<glyph unicode="7" horiz-adv-x="1015" d="M66 942v442h933v-167q-61 -93 -159 -322l-365 -895h-274l504 1186h-414v-244h-225z" />
<glyph unicode="8" horiz-adv-x="1189" d="M98 373q0 109 56 194t137 129q-158 104 -158 314q0 171 125 283t336 112q222 0 343.5 -107t121.5 -274q0 -98 -52.5 -176.5t-127.5 -128.5q215 -108 215 -332q0 -190 -135.5 -300t-366.5 -110q-224 0 -359 105.5t-135 290.5zM340 399q0 -92 67.5 -151.5t202.5 -59.5 q119 0 175.5 50t56.5 124q0 69 -41.5 110t-124.5 71l-232 80q-104 -97 -104 -224zM373 1030q0 -118 149 -174l180 -65q119 81 119 206q0 86 -60.5 145.5t-182.5 59.5q-94 0 -149.5 -47.5t-55.5 -124.5z" />
<glyph unicode="9" horiz-adv-x="1161" d="M88 924q0 218 124.5 349.5t358.5 131.5q107 0 192 -37.5t140.5 -101t92 -154t52 -190.5t15.5 -215q0 -175 -33 -307.5t-102 -228.5t-182 -145t-267 -49q-99 0 -198.5 29.5t-174.5 77.5l78 201q147 -92 295 -92q76 0 135 22t96 59t60.5 90t33 109.5t9.5 122.5q0 23 -2 35 q-33 -67 -113.5 -115.5t-195.5 -48.5q-193 0 -303.5 123.5t-110.5 333.5zM332 944q0 -115 54.5 -179.5t164.5 -64.5q175 0 256 148q-2 148 -62 245t-182 97q-118 0 -174.5 -68.5t-56.5 -177.5z" />
<glyph unicode=":" horiz-adv-x="524" d="M106 135q0 66 44 108t112 42t112 -42t44 -108q0 -63 -44.5 -105t-111.5 -42t-111.5 42t-44.5 105zM106 805q0 66 44 107.5t112 41.5t112 -41.5t44 -107.5q0 -65 -44.5 -107.5t-111.5 -42.5t-111.5 42.5t-44.5 107.5z" />
<glyph unicode=";" horiz-adv-x="509" d="M106 -223l52 510h252l-127 -510h-177zM121 805q0 65 45 107t113 42q67 0 111 -42t44 -107q0 -64 -44.5 -107t-110.5 -43q-68 0 -113 43t-45 107z" />
<glyph unicode="&#x3c;" d="M123 420v266l864 330v-230l-665 -235l665 -234v-227z" />
<glyph unicode="=" d="M141 213v221h863v-221h-863zM141 674v221h863v-221h-863z" />
<glyph unicode="&#x3e;" d="M160 90v227l665 234l-665 235v230l864 -330v-266z" />
<glyph unicode="?" horiz-adv-x="962" d="M78 1260q152 145 397 145q192 0 299 -96.5t107 -237.5q0 -69 -21 -129t-48.5 -99.5t-73.5 -77.5t-76 -57t-76 -44v-207h-242v311q148 63 224.5 123t76.5 143q0 67 -45.5 111.5t-140.5 44.5q-90 0 -166 -45v-166h-178zM307 135q0 66 44 108t112 42t113 -42t45 -108 q0 -63 -45 -105t-113 -42q-67 0 -111.5 42t-44.5 105z" />
<glyph unicode="@" horiz-adv-x="1869" d="M100 477q0 179 57 336t164 277.5t274 190t374 69.5q159 0 293.5 -39t230.5 -108t163.5 -164.5t100.5 -208t33 -238.5q0 -280 -118 -447.5t-333 -167.5q-182 0 -225 154q-50 -65 -131.5 -109.5t-173.5 -44.5q-108 0 -182.5 37.5t-110.5 104.5t-45.5 160.5t12.5 205.5 q38 218 155.5 343.5t309.5 125.5q135 0 230 -102l16 82h217l-104 -594q-20 -97 -6 -143.5t73 -46.5q110 0 169 113t59 331q0 101 -21 186.5t-69 159.5t-120 125.5t-179.5 81t-243.5 29.5q-145 0 -262 -39t-194.5 -105t-129 -156.5t-74 -189.5t-22.5 -209q0 -334 156.5 -502 t504.5 -168q209 0 400 68l38 -162q-206 -80 -438 -80q-220 0 -384 60t-265 173t-150 265.5t-49 345.5zM707 467q-27 -149 7 -223t140 -74q60 0 119 24t100 62l78 432q-89 74 -188 74q-102 0 -165.5 -71t-90.5 -224z" />
<glyph unicode="A" horiz-adv-x="1419" d="M10 0v199h119l369 987h-117v198h657v-198h-114l364 -987h119v-199h-541v199h160l-72 211h-489l-76 -211h162v-199h-541zM520 612h381l-192 531z" />
<glyph unicode="B" horiz-adv-x="1273" d="M84 0v199h143v987h-143v198h618q212 0 313 -96.5t101 -269.5q0 -107 -52.5 -186t-133.5 -101q101 -23 176.5 -117.5t75.5 -220.5q0 -393 -480 -393h-618zM469 199h221q244 0 244 207q0 210 -246 210h-219v-417zM469 813h193q206 0 206 188q0 185 -204 185h-195v-373z" />
<glyph unicode="C" horiz-adv-x="1224" d="M86 696q0 159 38 287.5t113 223.5t194.5 146.5t275.5 51.5q196 0 432 -94l-17 -447h-215l-4 289q-101 33 -203 33q-77 0 -137.5 -23.5t-102.5 -66t-69.5 -104t-40 -135t-12.5 -161.5q0 -108 22 -196t65.5 -154.5t115.5 -103.5t166 -37q206 0 385 90l55 -207 q-119 -58 -223.5 -84.5t-229.5 -26.5q-300 0 -454 187t-154 532z" />
<glyph unicode="D" horiz-adv-x="1382" d="M84 0v199h145v987h-145v198h489q163 0 283 -26.5t203 -78.5t133.5 -137t73 -194t22.5 -256q0 -183 -35.5 -308.5t-118.5 -214t-220.5 -129t-340.5 -40.5h-489zM471 199h141q124 0 206 27t133 88t72 152.5t21 229.5q0 264 -99.5 377t-332.5 113h-141v-987z" />
<glyph unicode="E" horiz-adv-x="1214" d="M84 0v199h145v987h-145v198h1032v-405h-223v207h-424v-389h422v-199h-422v-399h424v211h231v-410h-1040z" />
<glyph unicode="F" horiz-adv-x="1130" d="M84 0v199h143v987h-143v198h999v-423h-223v225h-391v-441h432v-202h-432v-344h246v-199h-631z" />
<glyph unicode="G" horiz-adv-x="1343" d="M86 700q0 155 39.5 282t118.5 222.5t206 148t293 52.5q201 0 449 -80l-16 -410h-215l-5 242q-113 25 -223 25q-201 0 -297 -128t-96 -354q0 -236 98 -369.5t307 -133.5q163 0 263 32v258h-328v203h557v-616q-234 -97 -500 -97q-315 0 -483 187t-168 536z" />
<glyph unicode="H" horiz-adv-x="1542" d="M88 0v199h135v987h-135v198h559v-198h-182v-365h616v365h-182v198h555v-198h-133v-987h133v-199h-555v199h182v413h-616v-413h182v-199h-559z" />
<glyph unicode="I" horiz-adv-x="714" d="M76 0v199h164v987h-164v198h561v-198h-156v-987h156v-199h-561z" />
<glyph unicode="J" horiz-adv-x="651" d="M20 -305q47 33 79 63t59.5 70t41 90t13.5 113v1155h-182v198h555v-198h-135v-1133q0 -348 -285 -518z" />
<glyph unicode="K" horiz-adv-x="1361" d="M84 0v199h143v987h-143v198h516v-198h-131v-987h131v-199h-516zM496 719l405 467h-147v198h559v-198h-152l-391 -463l414 -524h147v-199h-575v199h151z" />
<glyph unicode="L" horiz-adv-x="1099" d="M86 0v199h139v987h-139v198h537v-198h-156v-987h371v270h217v-469h-969z" />
<glyph unicode="M" horiz-adv-x="1878" d="M35 0v199h135l119 987h-135v198h493l289 -1110l303 1110h483v-198h-133l109 -987h145v-199h-534v199h164l-97 921l-315 -1120h-260l-297 1112l-107 -913h174v-199h-536z" />
<glyph unicode="N" horiz-adv-x="1527" d="M88 0v199h135v987h-135v198h412l585 -995v797h-196v198h575v-198h-137v-1186h-266l-596 997v-798h215v-199h-592z" />
<glyph unicode="O" horiz-adv-x="1339" d="M88 690q0 126 19 231.5t62 196.5t109 154t165.5 99t226.5 36q126 0 225 -36t165.5 -99t109.5 -154t62 -196.5t19 -231.5t-19.5 -231.5t-63.5 -195.5t-111 -152.5t-166 -98t-225 -35.5q-125 0 -223.5 35.5t-164.5 98t-109 153t-62 195.5t-19 231zM348 690 q0 -117 14.5 -202.5t50 -154.5t100 -104.5t157.5 -35.5t157 35.5t98.5 104.5t49 154.5t14.5 202.5q0 118 -15 204.5t-49.5 155.5t-98 104.5t-154.5 35.5t-155.5 -35.5t-100.5 -104t-52 -156t-16 -204.5z" />
<glyph unicode="P" horiz-adv-x="1218" d="M84 0v199h143v987h-143v198h598q251 0 370 -114.5t119 -321.5t-119 -321.5t-370 -114.5h-111v201h123q55 0 96 13t66 34t41 52t21.5 63t5.5 71q0 242 -230 242h-227v-989h248v-199h-631z" />
<glyph unicode="Q" horiz-adv-x="1386" d="M88 690q0 126 19 231.5t62 196.5t109 154t165.5 99t226.5 36q126 0 225 -36t165.5 -99t109.5 -154t62 -196.5t19 -231.5q0 -203 -51 -352q113 -147 172 -338h-244q-32 91 -87 176.5t-134.5 162.5t-192 124t-239.5 47q-57 0 -115 -6q23 -152 95.5 -231.5t214.5 -79.5 q131 0 196 65q78 -68 119 -174q-120 -107 -319 -107q-125 0 -223.5 35.5t-164.5 98t-109 153t-62 195.5t-19 231zM348 705q86 8 139 8q270 0 494 -160q8 55 8 137q0 118 -15 204.5t-49.5 155.5t-98 104.5t-154.5 35.5q-90 0 -153.5 -34.5t-100 -100.5t-53 -151.5 t-17.5 -198.5z" />
<glyph unicode="R" horiz-adv-x="1339" d="M84 1186v198h618q256 0 374 -100t118 -297q0 -281 -293 -364q85 -65 158 -190t104 -234h160v-199h-547v199h125q-20 88 -96 216t-156 181h-180v-397h137v-199h-520v199h141v987h-143zM469 788h217q260 0 260 197q0 201 -244 201h-233v-398z" />
<glyph unicode="S" horiz-adv-x="1118" d="M90 446h205l53 -239q76 -37 213 -37q100 0 158.5 50.5t58.5 131.5q0 62 -35.5 109.5t-99.5 70.5l-217 78q-175 63 -246 157t-71 247q0 56 15 110t50.5 106t87 91t131 62.5t176.5 23.5q112 0 225.5 -28t196.5 -70v-361h-205l-36 234q-89 26 -181 26q-95 0 -148.5 -53 t-53.5 -131q0 -61 31.5 -104.5t107.5 -71.5l201 -72q183 -65 257 -160.5t74 -242.5q0 -57 -17 -112t-54.5 -107t-91.5 -91t-134.5 -62.5t-177.5 -23.5q-258 0 -457 97z" />
<glyph unicode="T" horiz-adv-x="1189" d="M45 965v419h1104v-419h-203v221h-237v-987h188v-199h-618v199h192v987h-225v-221h-201z" />
<glyph unicode="U" horiz-adv-x="1400" d="M45 1186v198h553v-198h-180v-668q0 -170 71 -246.5t211 -76.5q139 0 211 77t72 246v668h-178v198h549v-198h-133v-666q0 -143 -38.5 -248.5t-110 -168.5t-164.5 -93t-210 -30q-116 0 -208.5 30t-163.5 93t-109.5 168.5t-38.5 248.5v666h-133z" />
<glyph unicode="V" horiz-adv-x="1394" d="M10 1186v198h565v-198h-176l299 -955l293 955h-168v198h568v-198h-142l-391 -1186h-326l-389 1186h-133z" />
<glyph unicode="W" horiz-adv-x="2007" d="M12 1186v198h549v-198h-164l209 -938l285 860l-100 276h280l336 -1136l211 938h-215v198h588v-198h-131l-295 -1186h-295l-266 821l-263 -821h-297l-299 1186h-133z" />
<glyph unicode="X" horiz-adv-x="1357" d="M39 0v199h139l357 514l-336 473h-150v198h547v-198h-125l209 -324l203 324h-127v198h542v-198h-143l-338 -473l369 -514h139v-199h-545v199h123l-227 342l-225 -342h133v-199h-545z" />
<glyph unicode="Y" horiz-adv-x="1308" d="M10 1186v198h553v-198h-166l260 -445l265 445h-168v198h555v-198h-133l-400 -645v-342h166v-199h-588v199h178v342l-389 645h-133z" />
<glyph unicode="Z" horiz-adv-x="1206" d="M86 0v180l713 1004h-475v-238h-220v438h998v-182l-715 -1003h498v313h221v-512h-1020z" />
<glyph unicode="[" horiz-adv-x="663" d="M133 -442v1867h492v-198h-248v-1471h248v-198h-492z" />
<glyph unicode="\" horiz-adv-x="800" d="M66 1360v24h235l432 -1355v-29h-229z" />
<glyph unicode="]" horiz-adv-x="663" d="M39 -244h248v1471h-248v198h491v-1867h-491v198z" />
<glyph unicode="^" horiz-adv-x="1331" d="M141 909l525 525l524 -525l-156 -157l-366 368l-369 -366z" />
<glyph unicode="_" horiz-adv-x="1159" d="M170 -63h819v-156h-819v156z" />
<glyph unicode="`" horiz-adv-x="1228" d="M422 1425h235l150 -333h-207z" />
<glyph unicode="a" horiz-adv-x="1005" d="M53 246q0 75 31.5 128.5t93.5 86.5t141.5 50.5t188.5 25.5l117 12v188q-50 13 -142 13q-76 0 -145 -13v-133h-201q-31 60 -31 127q0 101 95.5 162t281.5 61q209 0 292 -75t83 -273v-362q0 -56 53 -56q28 0 56 7v-195q-58 -12 -133 -12q-87 0 -135.5 38t-57.5 105 q-44 -65 -122 -109.5t-185 -44.5q-130 0 -205.5 72t-75.5 197zM297 264q0 -96 113 -96q61 0 118 24.5t97 61.5v143l-117 -14q-120 -13 -165.5 -40t-45.5 -79z" />
<glyph unicode="b" horiz-adv-x="1056" d="M-8 1227v198h362v-569q85 98 238 98q197 0 295 -126t98 -359q0 -226 -101.5 -359t-291.5 -133q-174 0 -273 95l-118 -72h-74v1227h-135zM354 272q28 -33 75.5 -56t105.5 -23q62 0 105 20.5t66 59.5t32.5 86.5t9.5 109.5q0 130 -47 200t-164 70q-121 0 -183 -67v-400z" />
<glyph unicode="c" horiz-adv-x="935" d="M66 469q0 99 28.5 185t82.5 154t142 107t199 39q166 0 352 -82l-43 -340h-186v209q-52 17 -123 17q-100 0 -152.5 -74t-52.5 -195q0 -63 11 -114.5t35 -94.5t67.5 -66.5t103.5 -23.5q153 0 291 64l56 -188q-168 -89 -371 -89q-93 0 -167.5 26t-124.5 71t-84 108 t-49 134.5t-15 152.5z" />
<glyph unicode="d" horiz-adv-x="1114" d="M70 469q0 230 100 357.5t291 127.5q171 0 256 -98v371h-176v198h403v-1228h135v-197h-159q-78 0 -119.5 39.5t-48.5 99.5q-27 -39 -62 -72t-99.5 -61.5t-137.5 -28.5q-185 0 -284 128.5t-99 363.5zM305 469q0 -276 217 -276q59 0 112.5 23.5t82.5 57.5v398 q-72 67 -193 67q-219 0 -219 -270z" />
<glyph unicode="e" horiz-adv-x="958" d="M68 467q0 136 46.5 244.5t145.5 175.5t238 67q103 0 181 -34t123 -92.5t67 -128t22 -148.5q0 -94 -17 -160h-565q3 -101 57.5 -156t159.5 -55q146 0 281 80l74 -180q-75 -47 -170.5 -75t-186.5 -28q-119 0 -207.5 36t-142.5 102.5t-80 154.5t-26 197zM311 563h357 q2 12 2 29q0 83 -49 127.5t-123 44.5q-91 0 -135.5 -55t-51.5 -146z" />
<glyph unicode="f" horiz-adv-x="731" d="M72 735v199h133v201q0 63 18 118t53.5 99t95.5 69t138 25q85 0 152 -23v-194q-3 0 -54 4t-80 4q-52 0 -75 -30t-23 -91v-182h252v-199h-252v-538h195v-197h-551v178l131 37v520h-133z" />
<glyph unicode="g" horiz-adv-x="1013" d="M37 -219q0 73 50 124.5t108 63.5q-36 18 -58 56t-22 77q0 103 114 191q-77 41 -118 117.5t-41 177.5q0 166 109 266t315 100q67 0 136.5 -20t108.5 -49q82 124 235 124q11 0 23 -1l4 -226l-170 -20q25 -31 39.5 -82t14.5 -105q0 -157 -107.5 -242t-285.5 -85 q-103 0 -162 20l-8 -125h311q149 0 232 -67t83 -195q0 -157 -131.5 -250.5t-359.5 -93.5q-420 0 -420 244zM260 -164q0 -59 46.5 -91t158.5 -32t178 34t66 97q0 97 -125 97h-262q-62 -47 -62 -105zM295 584q0 -164 190 -164q185 0 185 164q0 79 -46 124.5t-139 45.5 q-98 0 -144 -45.5t-46 -124.5z" />
<glyph unicode="h" horiz-adv-x="1157" d="M47 0v197h123v1028h-123v200h348v-577q110 106 293 106q316 0 316 -368v-389h120v-197h-483v197h135v364q0 91 -37.5 134.5t-136.5 43.5q-57 0 -115.5 -21.5t-91.5 -47.5v-473h133v-197h-481z" />
<glyph unicode="i" horiz-adv-x="694" d="M63 0v197h197v538h-197v199h424v-737h183v-197h-607zM221 1257q0 71 39.5 106.5t104.5 35.5q59 0 100 -36.5t41 -105.5q0 -70 -40.5 -103.5t-100.5 -33.5q-66 0 -105 33t-39 104z" />
<glyph unicode="j" horiz-adv-x="548" d="M29 -301q85 53 125.5 111.5t40.5 146.5v778h-164v199h391v-948q0 -314 -256 -449zM152 1257q0 70 40 106t105 36q59 0 100 -36.5t41 -105.5q0 -70 -40.5 -103.5t-100.5 -33.5q-66 0 -105.5 33t-39.5 104z" />
<glyph unicode="k" horiz-adv-x="1165" d="M39 0v197h135v1030h-135v198h360v-936l312 246h-146v199h529v-199h-144l-239 -194l239 -344h174v-197h-422v193l-157 235l-146 -117v-114h164v-197h-524z" />
<glyph unicode="l" horiz-adv-x="536" d="M-31 1227v198h377v-1130q0 -58 18.5 -80t63.5 -22q40 0 88 10l4 -199q-76 -27 -168 -27q-129 0 -180 74t-51 213v963h-152z" />
<glyph unicode="m" horiz-adv-x="1646" d="M74 0v197h121v538h-117v199h319v-109q32 54 99.5 91.5t158.5 37.5q93 0 150.5 -34.5t97.5 -100.5q41 59 115 97t180 38q154 0 223.5 -87.5t69.5 -262.5v-407h119v-197h-443v197h97v389q0 76 -31.5 114.5t-104.5 38.5q-53 0 -98.5 -19.5t-71.5 -49.5v-473h99v-197h-424 v197h100v454q-43 88 -147 88q-97 0 -164 -67v-475h96v-197h-444z" />
<glyph unicode="n" horiz-adv-x="1179" d="M74 0v197h121v538h-117v199h319v-111q108 131 316 131q315 0 315 -368v-389h119v-197h-481v197h135v364q0 90 -39 134t-137 44q-56 0 -113 -21.5t-90 -47.5v-473h131v-197h-479z" />
<glyph unicode="o" horiz-adv-x="1028" d="M68 465q0 489 450 489q117 0 203.5 -35t138 -101t76.5 -152.5t25 -196.5q0 -492 -451 -492q-227 0 -334.5 131t-107.5 357zM307 469q0 -149 47.5 -215t161.5 -66t159.5 66t45.5 211q0 148 -46.5 213t-162.5 65q-112 0 -158.5 -65t-46.5 -209z" />
<glyph unicode="p" horiz-adv-x="1099" d="M37 735v199h342v-105q44 57 102.5 91t155.5 34q192 0 292.5 -127t100.5 -362q0 -234 -98.5 -361t-294.5 -127q-151 0 -240 97v-318h199v-198h-533v186l107 29v962h-133zM397 260q72 -67 183 -67q117 0 164 71t47 201q0 63 -9.5 110t-32.5 85.5t-65.5 58.5t-103.5 20 q-114 0 -183 -77v-402z" />
<glyph unicode="q" horiz-adv-x="1054" d="M70 465q0 235 100.5 362t292.5 127q91 0 155 -29.5t125 -82.5l33 174h156v-1252l121 -28v-178h-559v198h211v318q-93 -97 -242 -97q-196 0 -294.5 127t-98.5 361zM309 465q0 -130 47 -201t164 -71q113 0 185 67v402q-69 77 -185 77q-61 0 -103.5 -20t-65.5 -58.5 t-32.5 -85.5t-9.5 -110z" />
<glyph unicode="r" horiz-adv-x="849" d="M72 0v178l135 37v520h-135v199h346v-203q25 77 101.5 150t162.5 73q75 0 143 -10l-18 -262l-166 31q-66 -5 -121 -37t-86 -86v-393h207v-197h-569z" />
<glyph unicode="s" horiz-adv-x="894" d="M72 307h180l41 -139q60 -29 145 -29q61 0 96 26t35 73q0 70 -90 100l-155 49q-240 74 -240 279q0 53 18.5 101t59 91.5t116.5 69.5t179 26q90 0 183 -16.5t153 -42.5v-252h-181l-26 125q-61 23 -129 23q-58 0 -88.5 -28.5t-30.5 -70.5q0 -36 18.5 -60t67.5 -40l147 -45 q130 -41 193 -108.5t63 -174.5q0 -56 -20.5 -105t-63.5 -91t-120.5 -66.5t-182.5 -24.5q-196 0 -352 64z" />
<glyph unicode="t" horiz-adv-x="712" d="M25 735v178l170 21v229l227 37v-266h221v-199h-221v-434q0 -55 28.5 -81.5t77.5 -26.5q67 0 142 14l6 -201q-36 -12 -101 -20.5t-116 -8.5q-136 0 -200 79t-64 212v467h-170z" />
<glyph unicode="u" horiz-adv-x="1167" d="M29 737v197h362v-561q0 -90 37.5 -134t134.5 -44q62 0 120 31t85 81v430h-172v197h397v-735h140v-199h-320v164q-45 -75 -131 -129.5t-215 -54.5q-303 0 -303 368v389h-135z" />
<glyph unicode="v" horiz-adv-x="1126" d="M18 735v199h494v-199h-129l184 -522l189 522h-127v199h481v-199h-117l-284 -735h-293l-281 735h-117z" />
<glyph unicode="w" horiz-adv-x="1607" d="M20 735v199h488v-199h-146l140 -520l200 504l-73 215h235l250 -715l131 516h-145v199h487v-199h-110l-215 -735h-265l-186 496l-203 -496h-256l-227 735h-105z" />
<glyph unicode="x" horiz-adv-x="1150" d="M55 0v197h111l235 286l-211 252h-127v199h424v-195l148 -174l129 170h-150v199h469v-199h-120l-220 -268l240 -270h115v-197h-422v193l-158 192l-143 -188h153v-197h-473z" />
<glyph unicode="y" horiz-adv-x="1169" d="M14 735v199h406v-197l188 -471l197 469h-207v199h553v-199h-123l-416 -991q-48 -113 -119.5 -160t-168.5 -47q-130 0 -201 39v166h256l119 264l-328 729h-156z" />
<glyph unicode="z" horiz-adv-x="931" d="M70 0v156l471 606h-258l-19 -158h-176v330h752v-156l-469 -606h295l20 168h170v-340h-786z" />
<glyph unicode="{" horiz-adv-x="628" d="M16 401v181q32 0 63 8.5t61.5 26.5t49.5 53.5t19 83.5v383q0 158 83.5 223t276.5 65v-180q-61 0 -89.5 -28t-28.5 -107v-381q0 -194 -203 -237q28 -5 57.5 -17.5t65 -38t58 -72t22.5 -106.5v-412q0 -37 7 -59.5t24.5 -32.5t35 -12.5t51.5 -3.5v-180q-193 0 -276.5 64.5 t-83.5 223.5v387q0 39 -13 70t-33 48.5t-47 29.5t-51 16t-49 4z" />
<glyph unicode="|" horiz-adv-x="411" d="M133 -442v1867h146v-1867h-146z" />
<glyph unicode="}" horiz-adv-x="628" d="M59 -262q35 1 52 3.5t35 12.5t25 32.5t7 59.5v412q0 60 22.5 106.5t58 72t65 38t57.5 17.5q-203 43 -203 237v381q0 79 -28.5 107t-90.5 28v180q193 0 277 -65t84 -223v-383q0 -48 19 -83.5t49 -53.5t61 -26.5t63 -8.5v-181q-32 0 -62 -7.5t-61 -24.5t-50 -52.5 t-19 -83.5v-387q0 -159 -83.5 -223.5t-277.5 -64.5v180z" />
<glyph unicode="~" horiz-adv-x="946" d="M96 434l4 230q83 -66 162 -66q43 0 92.5 20.5t89.5 45t99.5 45t118.5 20.5q100 0 188 -57l-8 -230q-93 66 -180 66q-40 0 -90.5 -20.5t-92.5 -45t-99 -45t-108 -20.5q-98 0 -176 57z" />
<glyph unicode="&#xa1;" horiz-adv-x="501" d="M96 807q0 63 44 105t110 42q68 0 113 -42t45 -105q0 -66 -45 -109t-113 -43q-66 0 -110 43t-44 109zM111 -442l45 927h194l41 -927h-280z" />
<glyph unicode="&#xa2;" d="M162 469q0 99 27 185t81 154.5t142 108t202 39.5q22 0 72 -4l37 154l123 -27l-37 -143q100 -23 186 -70l-55 -188q-68 33 -180 53l-131 -538q63 0 96 4q120 9 215 59l55 -188q-172 -91 -381 -91q-18 0 -36 3l-29 -125l-121 26l29 119q-149 44 -222 170t-73 299zM412 489 q0 -189 100 -260l123 512q-108 -4 -165.5 -69.5t-57.5 -182.5z" />
<glyph unicode="&#xa3;" d="M96 0v162l129 78v229h-129v156h129v282q0 106 24 193t75.5 157t141 109t210.5 39q204 0 383 -78l-41 -366h-178v219q-81 22 -154 22q-115 0 -167 -75t-52 -220v-282h350v-156h-350v-272h557v-197h-928z" />
<glyph unicode="&#xa4;" d="M92 877l162 157l154 -155q72 32 165 32q104 0 168 -37l156 156l150 -149l-160 -166q22 -75 22 -156q0 -91 -22 -156l168 -172l-162 -159l-164 161q-72 -30 -160 -30q-92 0 -163 33l-154 -154l-152 149l158 164q-25 73 -25 162q0 83 21 148zM436 559q0 -147 137 -147 q136 0 136 145t-138 145q-135 0 -135 -143z" />
<glyph unicode="&#xa5;" d="M-16 1186v198h518v-198h-146l213 -436l219 436h-145v198h518v-198h-119l-161 -283h184v-155h-268l-68 -123h336v-156h-377v-270h146v-199h-543v199h155v270h-368v156h328l-66 123h-262v155h180l-156 283h-118z" />
<glyph unicode="&#xa6;" horiz-adv-x="430" d="M141 348h146v-790h-146v790zM141 627v798h146v-798h-146z" />
<glyph unicode="&#xa7;" horiz-adv-x="1142" d="M109 590q0 153 124 252q-122 82 -122 223q0 61 25 118.5t77 108.5t145.5 82t216.5 31q110 0 224 -25.5t200 -66.5v-271h-180l-31 140q-103 35 -213 35q-101 0 -157 -30.5t-56 -86.5q0 -48 42 -76t145 -63l170 -58q163 -55 242 -136t79 -200q0 -66 -32 -130t-95 -113 q125 -84 125 -222q0 -53 -16.5 -101t-53.5 -91t-92 -74.5t-138 -50t-185 -18.5q-254 0 -426 96v282h176l33 -151q34 -17 98 -30t119 -13q229 0 229 115q0 26 -15.5 48t-46.5 39t-54 26t-60 22l-196 69q-151 53 -226 129.5t-75 190.5zM352 639q0 -58 53.5 -98t149.5 -74 l172 -61q68 53 68 118q0 32 -14.5 59t-30 42.5t-49.5 32.5t-47 22.5t-48 17.5l-188 62q-66 -50 -66 -121z" />
<glyph unicode="&#xa8;" horiz-adv-x="1228" d="M272 1237q0 70 39.5 105.5t104.5 35.5q59 0 100 -36t41 -105q0 -70 -40.5 -103.5t-100.5 -33.5q-66 0 -105 33t-39 104zM670 1237q0 70 39 105.5t104 35.5q59 0 100 -36t41 -105q0 -70 -40.5 -103.5t-100.5 -33.5q-143 0 -143 137z" />
<glyph unicode="&#xa9;" horiz-adv-x="1710" d="M96 686q0 162 58 303t158.5 239.5t241.5 155t302 56.5t302 -56.5t241 -155t157.5 -239.5t57.5 -303q0 -215 -98 -387.5t-271.5 -269.5t-388.5 -97t-389 97t-272.5 269.5t-98.5 387.5zM270 686q0 -263 163.5 -424.5t422.5 -161.5q258 0 421 162t163 424q0 264 -163 425 t-421 161q-260 0 -423 -161t-163 -425zM469 684q0 185 105 295.5t292 110.5q132 0 267 -60v-287h-154v152q-52 18 -113 18q-95 0 -143.5 -59.5t-48.5 -169.5q0 -103 44 -167t140 -64q70 0 127 16t129 51l49 -151q-154 -93 -303 -93q-202 0 -296.5 107t-94.5 301z" />
<glyph unicode="&#xaa;" horiz-adv-x="729" d="M70 872q0 107 73.5 147t221.5 40h63v43q0 36 -18.5 54t-61.5 18t-86 -13v-65h-137l-12 157q99 56 235 56q246 0 246 -195v-233q0 -31 29 -31h34v-133q-36 -8 -88 -8q-104 0 -129 86q-61 -93 -182 -93q-89 0 -138.5 46t-49.5 124zM244 887q0 -51 61 -51q66 0 123 47v71 h-63q-69 0 -95 -17.5t-26 -49.5z" />
<glyph unicode="&#xab;" horiz-adv-x="1114" d="M47 553l402 467l147 -109l-268 -360l270 -358l-149 -107zM485 553l402 467l147 -109l-268 -360l270 -358l-149 -107z" />
<glyph unicode="&#xac;" horiz-adv-x="1226" d="M96 670v221h994v-588h-228v367h-766z" />
<glyph unicode="&#xad;" d="M201 442v222h743v-222h-743z" />
<glyph unicode="&#xae;" horiz-adv-x="1710" d="M96 686q0 162 58 303t158.5 239.5t241.5 155t302 56.5t302 -56.5t241 -155t157.5 -239.5t57.5 -303q0 -215 -98 -387.5t-271.5 -269.5t-388.5 -97t-389 97t-272.5 269.5t-98.5 387.5zM270 686q0 -263 163.5 -424.5t422.5 -161.5q258 0 421 162t163 424q0 264 -163 425 t-421 161q-260 0 -423 -161t-163 -425zM492 948v129h385q162 0 235.5 -60t73.5 -179q0 -78 -44.5 -136t-123.5 -81l141 -209h86v-129h-346v129h80l-119 190h-115v-190h76v-129h-327v129h84v536h-86zM745 731h123q77 0 112.5 31.5t35.5 75.5q0 47 -33.5 78.5t-105.5 31.5 h-132v-217z" />
<glyph unicode="&#xaf;" horiz-adv-x="1228" d="M309 1145v188h609v-188h-609z" />
<glyph unicode="&#xb0;" horiz-adv-x="677" d="M59 1116q0 121 74 205t203 84q133 0 209 -84t76 -205q0 -115 -76 -197.5t-209 -82.5q-129 0 -203 83t-74 197zM193 1116q0 -63 37.5 -107t105.5 -44q71 0 109 44t38 107q0 67 -38 113.5t-109 46.5q-68 0 -105.5 -47t-37.5 -113z" />
<glyph unicode="&#xb1;" d="M76 51v221h993v-221h-993zM76 723v221h375v389h237v-389h381v-221h-381v-293h-237v293h-375z" />
<glyph unicode="&#xb2;" horiz-adv-x="696" d="M63 1399q0 97 69.5 161t203.5 64q133 0 202.5 -64.5t69.5 -168.5q0 -128 -178 -277q-29 -24 -77.5 -61.5t-49.5 -38.5h184v71h144v-219h-561v121q147 120 237 205q44 44 62.5 64.5t36.5 57t18 75.5q0 41 -25 64.5t-63 23.5q-43 0 -67.5 -20t-24.5 -60q0 -30 8 -58 l-178 -12q-11 33 -11 72z" />
<glyph unicode="&#xb3;" horiz-adv-x="675" d="M43 934l82 127q77 -57 186 -57q117 0 117 75q0 41 -31 58.5t-106 17.5h-92v145h84q58 0 91.5 24.5t33.5 66.5q0 38 -25.5 62t-75.5 24q-45 0 -96 -19v-67h-127l-16 163q106 70 245 70q78 0 135.5 -20.5t86 -54t41 -66.5t12.5 -68q0 -69 -34.5 -114.5t-94.5 -63.5 q66 -12 109.5 -52t43.5 -116q0 -101 -76.5 -158t-224.5 -57q-83 0 -154 23.5t-114 56.5z" />
<glyph unicode="&#xb4;" horiz-adv-x="1228" d="M422 1092l149 333h236l-178 -333h-207z" />
<glyph unicode="&#xb5;" horiz-adv-x="1255" d="M80 737v197h362v-561q0 -90 39.5 -134t136.5 -44q62 0 117.5 30.5t83.5 81.5v430h-172v197h397v-735h140v-199h-320v164q-20 -34 -48 -64t-69 -58.5t-99 -45t-126 -16.5q-48 0 -80 16v-438h-227v1179h-135z" />
<glyph unicode="&#xb6;" horiz-adv-x="1130" d="M63 618q0 147 91 231.5t274 84.5h236v-965h-207v340h-29q-184 0 -274.5 81t-90.5 228zM612 -322q82 53 120 113t38 150v993h209v-948q0 -57 -5.5 -104t-21 -99t-41 -94t-69 -82.5t-101.5 -71.5z" />
<glyph unicode="&#xb7;" horiz-adv-x="471" d="M80 549q0 66 44 107.5t112 41.5t111.5 -41.5t43.5 -107.5q0 -63 -44 -105.5t-111 -42.5t-111.5 42.5t-44.5 105.5z" />
<glyph unicode="&#xb8;" horiz-adv-x="1228" d="M395 -362l19 104q102 -51 174 -51q78 0 78 63q0 26 -16 43t-46 17q-28 0 -57 -19q-57 23 -82 33l67 172l127 2l-45 -115q27 9 66 9q61 0 106 -40t45 -104q0 -77 -57.5 -119.5t-169.5 -42.5q-87 0 -209 48z" />
<glyph unicode="&#xb9;" horiz-adv-x="630" d="M51 1513l244 101h151v-600h158v-148h-528v148h192v426l-180 -62z" />
<glyph unicode="&#xba;" horiz-adv-x="702" d="M66 1004q0 141 69.5 223t218.5 82q143 0 212 -82.5t69 -218.5q0 -141 -69 -223.5t-218 -82.5q-144 0 -213 82.5t-69 219.5zM231 1008q0 -158 121 -158q117 0 117 154q0 78 -27.5 117.5t-91.5 39.5t-91.5 -39t-27.5 -114z" />
<glyph unicode="&#xbb;" horiz-adv-x="1114" d="M78 193l270 358l-268 360l147 109l402 -467l-402 -467zM516 193l270 358l-268 360l148 109l401 -467l-401 -467z" />
<glyph unicode="&#xbc;" horiz-adv-x="1542" d="M82 1284l244 100h151v-600h158v-147h-529v147h193v426l-180 -61zM330 0v27l837 1357h176v-26l-843 -1358h-170zM811 141v121l258 365q20 27 38.5 57.5t26.5 47.5l9 16h209v-472h106v-135h-106v-141h-174v141h-367zM1001 276h177v265z" />
<glyph unicode="&#xbd;" horiz-adv-x="1619" d="M82 1284l244 100h151v-600h158v-147h-529v147h193v426l-180 -61zM330 0v27l837 1357h176v-26l-843 -1358h-170zM967 532q0 99 69 162.5t203 63.5q133 0 202.5 -64.5t69.5 -169.5q0 -43 -18 -85t-50 -80t-55 -60t-55 -49q-84 -71 -129 -103h187v72h143v-219h-561v121 q156 130 237 207q32 30 47.5 46.5t34.5 42t27 50.5t8 55q0 41 -25 64.5t-63 23.5q-43 0 -67.5 -20t-24.5 -60q0 -38 8 -57l-178 -12q-10 23 -10 71z" />
<glyph unicode="&#xbe;" horiz-adv-x="1499" d="M80 705l82 126q77 -57 186 -57q117 0 117 76q0 41 -31 58.5t-106 17.5h-92v145h83q58 0 91.5 24.5t33.5 65.5q0 38 -25 62t-75 24q-47 0 -96 -18v-68h-127l-17 164q106 70 246 70q78 0 135.5 -20.5t86 -54t41 -66.5t12.5 -68q0 -69 -34.5 -114.5t-94.5 -63.5 q66 -12 109.5 -52t43.5 -116q0 -101 -76.5 -158t-224.5 -57q-83 0 -154 23.5t-114 56.5zM283 0v27l837 1357h176v-26l-843 -1358h-170zM764 141v121l258 365q20 27 38.5 57.5t27.5 47.5l8 16h209v-472h106v-135h-106v-141h-175v141h-366zM954 276h176v265z" />
<glyph unicode="&#xbf;" horiz-adv-x="944" d="M74 -129q0 69 21 129t48.5 99.5t73 78t76 57.5t76.5 44v206h241v-311q-148 -63 -224.5 -123t-76.5 -143q0 -66 46 -111t141 -45q86 0 166 45v164h178l37 -278q-153 -146 -398 -146q-192 0 -298.5 96t-106.5 238zM334 807q0 63 45 105t113 42q67 0 111 -42t44 -105 q0 -66 -44 -109t-111 -43q-68 0 -113 43t-45 109z" />
<glyph unicode="&#xc0;" horiz-adv-x="1419" d="M10 0v199h119l369 987h-117v198h657v-198h-114l364 -987h119v-199h-541v199h160l-72 211h-489l-76 -211h162v-199h-541zM438 1845h236l149 -334h-207zM520 612h381l-192 531z" />
<glyph unicode="&#xc1;" horiz-adv-x="1419" d="M10 0v199h119l369 987h-117v198h657v-198h-114l364 -987h119v-199h-541v199h160l-72 211h-489l-76 -211h162v-199h-541zM520 612h381l-192 531zM578 1511l149 334h236l-179 -334h-206z" />
<glyph unicode="&#xc2;" horiz-adv-x="1419" d="M10 0v199h119l369 987h-117v198h657v-198h-114l364 -987h119v-199h-541v199h160l-72 211h-489l-76 -211h162v-199h-541zM387 1511l176 334h295l174 -334h-207l-114 218l-115 -218h-209zM520 612h381l-192 531z" />
<glyph unicode="&#xc3;" horiz-adv-x="1419" d="M10 0v199h119l369 987h-117v198h657v-198h-114l364 -987h119v-199h-541v199h160l-72 211h-489l-76 -211h162v-199h-541zM408 1591l4 172q52 -49 139 -49q42 0 90.5 20.5t103.5 41t115 20.5q82 0 154 -45l-4 -174q-79 51 -150 51q-51 0 -149 -42t-160 -42q-88 0 -143 47z M520 612h381l-192 531z" />
<glyph unicode="&#xc4;" horiz-adv-x="1419" d="M10 0v199h119l369 987h-117v198h657v-198h-114l364 -987h119v-199h-541v199h160l-72 211h-489l-76 -211h162v-199h-541zM367 1657q0 70 39 105.5t104 35.5q59 0 100 -36t41 -105q0 -70 -40.5 -103.5t-100.5 -33.5q-143 0 -143 137zM520 612h381l-192 531zM764 1657 q0 70 39 105.5t104 35.5q59 0 100.5 -36t41.5 -105q0 -70 -41 -103.5t-101 -33.5q-143 0 -143 137z" />
<glyph unicode="&#xc5;" horiz-adv-x="1419" d="M10 0v199h119l369 987h-117v198h657v-198h-114l364 -987h119v-199h-541v199h160l-72 211h-489l-76 -211h162v-199h-541zM487 1663q0 87 58 147t160 60q108 0 167.5 -60t59.5 -147q0 -81 -60 -141t-167 -60q-102 0 -160 60t-58 141zM520 612h381l-192 531zM621 1663 q0 -33 22.5 -56.5t61.5 -23.5q43 0 67.5 23.5t24.5 56.5q0 36 -24 61t-68 25q-39 0 -61.5 -25t-22.5 -61z" />
<glyph unicode="&#xc6;" horiz-adv-x="2000" d="M-10 0v199h121l684 987h-119v198h1227v-405h-224v207h-424v-389h422v-199h-422v-399h433v211h223v-410h-1057v199h160v211h-492l-145 -211h162v-199h-549zM643 612h373v531z" />
<glyph unicode="&#xc7;" horiz-adv-x="1224" d="M86 696q0 159 38 287.5t113 223.5t194.5 146.5t275.5 51.5q196 0 432 -94l-17 -447h-215l-4 289q-101 33 -203 33q-77 0 -137.5 -23.5t-102.5 -66t-69.5 -104t-40 -135t-12.5 -161.5q0 -108 22 -196t65.5 -154.5t115.5 -103.5t166 -37q206 0 385 90l55 -207 q-201 -100 -404 -108l-34 -93q27 9 65 9q61 0 106.5 -40t45.5 -104q0 -76 -58 -119t-170 -43q-87 0 -209 48l19 104q102 -51 174 -51q78 0 78 63q0 26 -16 43t-46 17q-28 0 -57 -19q-57 23 -82 33l59 154q-263 22 -397.5 206.5t-134.5 507.5z" />
<glyph unicode="&#xc8;" horiz-adv-x="1214" d="M84 0v199h145v987h-145v198h1032v-405h-223v207h-424v-389h422v-199h-422v-399h424v211h231v-410h-1040zM358 1845h236l149 -334h-206z" />
<glyph unicode="&#xc9;" horiz-adv-x="1214" d="M84 0v199h145v987h-145v198h1032v-405h-223v207h-424v-389h422v-199h-422v-399h424v211h231v-410h-1040zM494 1511l149 334h236l-179 -334h-206z" />
<glyph unicode="&#xca;" horiz-adv-x="1214" d="M84 0v199h145v987h-145v198h1032v-405h-223v207h-424v-389h422v-199h-422v-399h424v211h231v-410h-1040zM313 1511l176 334h295l174 -334h-206l-115 218l-115 -218h-209z" />
<glyph unicode="&#xcb;" horiz-adv-x="1214" d="M84 0v199h145v987h-145v198h1032v-405h-223v207h-424v-389h422v-199h-422v-399h424v211h231v-410h-1040zM293 1657q0 70 39 105.5t104 35.5q59 0 100.5 -36t41.5 -105q0 -70 -41 -103.5t-101 -33.5q-143 0 -143 137zM690 1657q0 70 39.5 105.5t104.5 35.5q59 0 100 -36 t41 -105q0 -70 -40.5 -103.5t-100.5 -33.5q-66 0 -105 33t-39 104z" />
<glyph unicode="&#xcc;" horiz-adv-x="714" d="M76 0v199h164v987h-164v198h561v-198h-156v-987h156v-199h-561zM100 1845h236l149 -334h-206z" />
<glyph unicode="&#xcd;" horiz-adv-x="714" d="M76 0v199h164v987h-164v198h561v-198h-156v-987h156v-199h-561zM242 1511l149 334h236l-178 -334h-207z" />
<glyph unicode="&#xce;" horiz-adv-x="714" d="M33 1511l176 334h295l174 -334h-207l-115 218l-114 -218h-209zM76 0v199h164v987h-164v198h561v-198h-156v-987h156v-199h-561z" />
<glyph unicode="&#xcf;" horiz-adv-x="714" d="M16 1657q0 70 39.5 105.5t104.5 35.5q59 0 100 -36t41 -105q0 -70 -40.5 -103.5t-100.5 -33.5q-66 0 -105 33t-39 104zM76 0v199h164v987h-164v198h561v-198h-156v-987h156v-199h-561zM414 1657q0 70 39 105.5t104 35.5q59 0 100 -36t41 -105q0 -70 -40.5 -103.5 t-100.5 -33.5q-143 0 -143 137z" />
<glyph unicode="&#xd0;" horiz-adv-x="1406" d="M106 0v199h146v434h-146v141h146v412h-146v198h492q163 0 283 -26.5t203 -78.5t133.5 -137t73 -194t22.5 -256q0 -183 -35.5 -308.5t-118.5 -214t-220.5 -129t-340.5 -40.5h-492zM496 199h139q243 0 338.5 112.5t95.5 384.5q0 264 -100.5 377t-333.5 113h-139v-412h311 v-141h-311v-434z" />
<glyph unicode="&#xd1;" horiz-adv-x="1527" d="M88 0v199h135v987h-135v198h412l585 -995v797h-196v198h575v-198h-137v-1186h-266l-596 997v-798h215v-199h-592zM469 1591l4 172q52 -49 139 -49q42 0 90.5 20.5t104 41t115.5 20.5q81 0 153 -45l-4 -174q-79 51 -149 51q-51 0 -149.5 -42t-160.5 -42q-88 0 -143 47z " />
<glyph unicode="&#xd2;" horiz-adv-x="1339" d="M88 690q0 126 19 231.5t62 196.5t109 154t165.5 99t226.5 36q126 0 225 -36t165.5 -99t109.5 -154t62 -196.5t19 -231.5t-19.5 -231.5t-63.5 -195.5t-111 -152.5t-166 -98t-225 -35.5q-125 0 -223.5 35.5t-164.5 98t-109 153t-62 195.5t-19 231zM348 690 q0 -117 14.5 -202.5t50 -154.5t100 -104.5t157.5 -35.5t157 35.5t98.5 104.5t49 154.5t14.5 202.5q0 118 -15 204.5t-49.5 155.5t-98 104.5t-154.5 35.5t-155.5 -35.5t-100.5 -104t-52 -156t-16 -204.5zM412 1845h235l150 -334h-207z" />
<glyph unicode="&#xd3;" horiz-adv-x="1339" d="M88 690q0 126 19 231.5t62 196.5t109 154t165.5 99t226.5 36q126 0 225 -36t165.5 -99t109.5 -154t62 -196.5t19 -231.5t-19.5 -231.5t-63.5 -195.5t-111 -152.5t-166 -98t-225 -35.5q-125 0 -223.5 35.5t-164.5 98t-109 153t-62 195.5t-19 231zM348 690 q0 -117 14.5 -202.5t50 -154.5t100 -104.5t157.5 -35.5t157 35.5t98.5 104.5t49 154.5t14.5 202.5q0 118 -15 204.5t-49.5 155.5t-98 104.5t-154.5 35.5t-155.5 -35.5t-100.5 -104t-52 -156t-16 -204.5zM553 1511l149 334h236l-178 -334h-207z" />
<glyph unicode="&#xd4;" horiz-adv-x="1339" d="M88 690q0 126 19 231.5t62 196.5t109 154t165.5 99t226.5 36q126 0 225 -36t165.5 -99t109.5 -154t62 -196.5t19 -231.5t-19.5 -231.5t-63.5 -195.5t-111 -152.5t-166 -98t-225 -35.5q-125 0 -223.5 35.5t-164.5 98t-109 153t-62 195.5t-19 231zM346 1511l176 334h295 l174 -334h-207l-114 218l-115 -218h-209zM348 690q0 -117 14.5 -202.5t50 -154.5t100 -104.5t157.5 -35.5t157 35.5t98.5 104.5t49 154.5t14.5 202.5q0 118 -15 204.5t-49.5 155.5t-98 104.5t-154.5 35.5t-155.5 -35.5t-100.5 -104t-52 -156t-16 -204.5z" />
<glyph unicode="&#xd5;" horiz-adv-x="1339" d="M88 690q0 126 19 231.5t62 196.5t109 154t165.5 99t226.5 36q126 0 225 -36t165.5 -99t109.5 -154t62 -196.5t19 -231.5t-19.5 -231.5t-63.5 -195.5t-111 -152.5t-166 -98t-225 -35.5q-125 0 -223.5 35.5t-164.5 98t-109 153t-62 195.5t-19 231zM348 690 q0 -117 14.5 -202.5t50 -154.5t100 -104.5t157.5 -35.5t157 35.5t98.5 104.5t49 154.5t14.5 202.5q0 118 -15 204.5t-49.5 155.5t-98 104.5t-154.5 35.5t-155.5 -35.5t-100.5 -104t-52 -156t-16 -204.5zM367 1591l4 172q52 -49 139 -49q42 0 90.5 20.5t103.5 41t115 20.5 q82 0 154 -45l-4 -174q-79 51 -150 51q-51 0 -149 -42t-160 -42q-88 0 -143 47z" />
<glyph unicode="&#xd6;" horiz-adv-x="1339" d="M88 690q0 126 19 231.5t62 196.5t109 154t165.5 99t226.5 36q126 0 225 -36t165.5 -99t109.5 -154t62 -196.5t19 -231.5t-19.5 -231.5t-63.5 -195.5t-111 -152.5t-166 -98t-225 -35.5q-125 0 -223.5 35.5t-164.5 98t-109 153t-62 195.5t-19 231zM328 1657q0 70 39 105.5 t104 35.5q59 0 100 -36t41 -105q0 -70 -40.5 -103.5t-100.5 -33.5q-143 0 -143 137zM348 690q0 -117 14.5 -202.5t50 -154.5t100 -104.5t157.5 -35.5t157 35.5t98.5 104.5t49 154.5t14.5 202.5q0 118 -15 204.5t-49.5 155.5t-98 104.5t-154.5 35.5t-155.5 -35.5t-100.5 -104 t-52 -156t-16 -204.5zM725 1657q0 70 39 105.5t104 35.5q59 0 100.5 -36t41.5 -105q0 -70 -41 -103.5t-101 -33.5q-143 0 -143 137z" />
<glyph unicode="&#xd7;" d="M90 864l166 168l319 -319l314 313l155 -156l-313 -313l322 -319l-170 -168l-318 321l-311 -311l-156 156l310 311z" />
<glyph unicode="&#xd8;" horiz-adv-x="1339" d="M88 690q0 126 19 231.5t62 196.5t109 154t165.5 99t226.5 36q93 0 186 -27l27 66h188v-25l-49 -116q229 -172 229 -615q0 -126 -19.5 -231.5t-63.5 -195.5t-111 -152.5t-166 -98t-225 -35.5q-101 0 -203 31l-35 -86h-182v29l57 137q-215 175 -215 602zM348 690 q0 -230 66 -346l354 832q-41 14 -96 14q-91 0 -155.5 -35.5t-100.5 -104t-52 -156t-16 -204.5zM551 211q49 -18 119 -18q93 0 157 35.5t98.5 104.5t49 154.5t14.5 202.5q0 252 -76 367z" />
<glyph unicode="&#xd9;" horiz-adv-x="1400" d="M45 1186v198h553v-198h-180v-668q0 -170 71 -246.5t211 -76.5q139 0 211 77t72 246v668h-178v198h549v-198h-133v-666q0 -143 -38.5 -248.5t-110 -168.5t-164.5 -93t-210 -30q-116 0 -208.5 30t-163.5 93t-109.5 168.5t-38.5 248.5v666h-133zM442 1845h236l149 -334h-206 z" />
<glyph unicode="&#xda;" horiz-adv-x="1400" d="M45 1186v198h553v-198h-180v-668q0 -170 71 -246.5t211 -76.5q139 0 211 77t72 246v668h-178v198h549v-198h-133v-666q0 -143 -38.5 -248.5t-110 -168.5t-164.5 -93t-210 -30q-116 0 -208.5 30t-163.5 93t-109.5 168.5t-38.5 248.5v666h-133zM598 1511l150 334h235 l-178 -334h-207z" />
<glyph unicode="&#xdb;" horiz-adv-x="1400" d="M45 1186v198h553v-198h-180v-668q0 -170 71 -246.5t211 -76.5q139 0 211 77t72 246v668h-178v198h549v-198h-133v-666q0 -143 -38.5 -248.5t-110 -168.5t-164.5 -93t-210 -30q-116 0 -208.5 30t-163.5 93t-109.5 168.5t-38.5 248.5v666h-133zM375 1511l176 334h295 l174 -334h-207l-115 218l-114 -218h-209z" />
<glyph unicode="&#xdc;" horiz-adv-x="1400" d="M45 1186v198h553v-198h-180v-668q0 -170 71 -246.5t211 -76.5q139 0 211 77t72 246v668h-178v198h549v-198h-133v-666q0 -143 -38.5 -248.5t-110 -168.5t-164.5 -93t-210 -30q-116 0 -208.5 30t-163.5 93t-109.5 168.5t-38.5 248.5v666h-133zM358 1657q0 70 39.5 105.5 t104.5 35.5q59 0 100 -36t41 -105q0 -70 -40.5 -103.5t-100.5 -33.5q-66 0 -105 33t-39 104zM756 1657q0 70 39 105.5t104 35.5q59 0 100 -36t41 -105q0 -70 -40.5 -103.5t-100.5 -33.5q-143 0 -143 137z" />
<glyph unicode="&#xdd;" horiz-adv-x="1308" d="M10 1186v198h553v-198h-166l260 -445l265 445h-168v198h555v-198h-133l-400 -645v-342h166v-199h-588v199h178v342l-389 645h-133zM555 1511l150 334h235l-178 -334h-207z" />
<glyph unicode="&#xde;" horiz-adv-x="1216" d="M84 0v199h143v987h-143v198h563v-198h-180v-113h215q248 0 368.5 -94t120.5 -287q0 -191 -121 -285t-368 -94h-215v-114h182v-199h-565zM467 516h227q125 0 177.5 43t52.5 133t-53.5 137.5t-176.5 47.5h-227v-361z" />
<glyph unicode="&#xdf;" horiz-adv-x="1214" d="M43 0v178l129 37v786q0 211 108 328t310 117q103 0 183 -29t129 -79.5t74 -113.5t25 -134q0 -52 -25 -111t-55.5 -101t-55.5 -84.5t-25 -64.5q0 -29 21 -52.5t63 -55.5l73 -56q89 -68 137 -136t48 -159q0 -133 -98 -213t-253 -80q-171 0 -307 62l-6 254h172l27 -139 q41 -15 86 -15q64 0 100.5 30t36.5 81q0 80 -86 149l-102 86q-56 45 -83 71t-48 66.5t-21 88.5q0 43 25.5 90.5t55.5 83t55.5 85.5t25.5 97q0 82 -51.5 128t-128.5 46q-102 0 -142.5 -58.5t-40.5 -170.5v-1012h-356z" />
<glyph unicode="&#xe0;" horiz-adv-x="1005" d="M53 246q0 75 31.5 128.5t93.5 86.5t141.5 50.5t188.5 25.5l117 12v188q-50 13 -142 13q-76 0 -145 -13v-133h-201q-31 60 -31 127q0 101 95.5 162t281.5 61q209 0 292 -75t83 -273v-362q0 -56 53 -56q28 0 56 7v-195q-58 -12 -133 -12q-87 0 -135.5 38t-57.5 105 q-44 -65 -122 -109.5t-185 -44.5q-130 0 -205.5 72t-75.5 197zM248 1425h235l150 -333h-207zM297 264q0 -96 113 -96q61 0 118 24.5t97 61.5v143l-117 -14q-120 -13 -165.5 -40t-45.5 -79z" />
<glyph unicode="&#xe1;" horiz-adv-x="1005" d="M53 246q0 75 31.5 128.5t93.5 86.5t141.5 50.5t188.5 25.5l117 12v188q-50 13 -142 13q-76 0 -145 -13v-133h-201q-31 60 -31 127q0 101 95.5 162t281.5 61q209 0 292 -75t83 -273v-362q0 -56 53 -56q28 0 56 7v-195q-58 -12 -133 -12q-87 0 -135.5 38t-57.5 105 q-44 -65 -122 -109.5t-185 -44.5q-130 0 -205.5 72t-75.5 197zM297 264q0 -96 113 -96q61 0 118 24.5t97 61.5v143l-117 -14q-120 -13 -165.5 -40t-45.5 -79zM371 1092l149 333h236l-178 -333h-207z" />
<glyph unicode="&#xe2;" horiz-adv-x="1005" d="M53 246q0 75 31.5 128.5t93.5 86.5t141.5 50.5t188.5 25.5l117 12v188q-50 13 -142 13q-76 0 -145 -13v-133h-201q-31 60 -31 127q0 101 95.5 162t281.5 61q209 0 292 -75t83 -273v-362q0 -56 53 -56q28 0 56 7v-195q-58 -12 -133 -12q-87 0 -135.5 38t-57.5 105 q-44 -65 -122 -109.5t-185 -44.5q-130 0 -205.5 72t-75.5 197zM172 1092l176 333h295l174 -333h-207l-114 217l-115 -217h-209zM297 264q0 -96 113 -96q61 0 118 24.5t97 61.5v143l-117 -14q-120 -13 -165.5 -40t-45.5 -79z" />
<glyph unicode="&#xe3;" horiz-adv-x="1005" d="M53 246q0 75 31.5 128.5t93.5 86.5t141.5 50.5t188.5 25.5l117 12v188q-50 13 -142 13q-76 0 -145 -13v-133h-201q-31 60 -31 127q0 101 95.5 162t281.5 61q209 0 292 -75t83 -273v-362q0 -56 53 -56q28 0 56 7v-195q-58 -12 -133 -12q-87 0 -135.5 38t-57.5 105 q-44 -65 -122 -109.5t-185 -44.5q-130 0 -205.5 72t-75.5 197zM186 1171l4 172q52 -49 140 -49q42 0 90.5 20.5t103.5 41t115 20.5q82 0 154 -45l-5 -174q-79 51 -149 51q-51 0 -149 -42t-160 -42q-89 0 -144 47zM297 264q0 -96 113 -96q61 0 118 24.5t97 61.5v143l-117 -14 q-120 -13 -165.5 -40t-45.5 -79z" />
<glyph unicode="&#xe4;" horiz-adv-x="1005" d="M53 246q0 75 31.5 128.5t93.5 86.5t141.5 50.5t188.5 25.5l117 12v188q-50 13 -142 13q-76 0 -145 -13v-133h-201q-31 60 -31 127q0 101 95.5 162t281.5 61q209 0 292 -75t83 -273v-362q0 -56 53 -56q28 0 56 7v-195q-58 -12 -133 -12q-87 0 -135.5 38t-57.5 105 q-44 -65 -122 -109.5t-185 -44.5q-130 0 -205.5 72t-75.5 197zM150 1237q0 70 39 105.5t104 35.5q59 0 100 -36t41 -105q0 -70 -40.5 -103.5t-100.5 -33.5q-143 0 -143 137zM297 264q0 -96 113 -96q61 0 118 24.5t97 61.5v143l-117 -14q-120 -13 -165.5 -40t-45.5 -79z M547 1237q0 70 39 105.5t104 35.5q59 0 100 -36t41 -105q0 -70 -40.5 -103.5t-100.5 -33.5q-143 0 -143 137z" />
<glyph unicode="&#xe5;" horiz-adv-x="1005" d="M53 246q0 75 31.5 128.5t93.5 86.5t141.5 50.5t188.5 25.5l117 12v188q-50 13 -142 13q-76 0 -145 -13v-133h-201q-31 60 -31 127q0 101 95.5 162t281.5 61q209 0 292 -75t83 -273v-362q0 -56 53 -56q28 0 56 7v-195q-58 -12 -133 -12q-87 0 -135.5 38t-57.5 105 q-44 -65 -122 -109.5t-185 -44.5q-130 0 -205.5 72t-75.5 197zM268 1268q0 87 57.5 147t159.5 60q109 0 168.5 -60t59.5 -147q0 -81 -60 -141t-168 -60q-101 0 -159 60t-58 141zM297 264q0 -96 113 -96q61 0 118 24.5t97 61.5v143l-117 -14q-120 -13 -165.5 -40t-45.5 -79z M401 1268q0 -33 22.5 -56.5t61.5 -23.5q44 0 68.5 23.5t24.5 56.5q0 36 -24.5 61t-68.5 25q-39 0 -61.5 -25t-22.5 -61z" />
<glyph unicode="&#xe6;" horiz-adv-x="1515" d="M53 246q0 76 31.5 129.5t94.5 86.5t141.5 50t187.5 25l119 12v188q-86 13 -174 13q-73 0 -113 -13v-133h-201q-30 58 -30 127q0 100 94.5 161.5t281.5 61.5q204 0 297 -96q107 96 275 96q102 0 180 -34t123 -92.5t67.5 -128t22.5 -148.5q0 -82 -16 -160h-564 q3 -102 56 -156.5t157 -54.5q149 0 281 80l76 -180q-163 -103 -379 -103q-107 0 -193 43t-133 115q-57 -70 -162 -114t-227 -44q-143 0 -218 71t-75 198zM299 264q0 -96 113 -96q118 0 215 86v143l-117 -14q-120 -13 -165.5 -40t-45.5 -79zM872 563h353q2 12 2 29 q0 82 -48.5 127t-121.5 45q-91 0 -135.5 -55t-49.5 -146z" />
<glyph unicode="&#xe7;" horiz-adv-x="937" d="M68 469q0 99 28.5 185t82.5 154t142 107t199 39q168 0 350 -82l-41 -340h-186v209q-52 17 -123 17q-100 0 -152.5 -74t-52.5 -195q0 -63 11 -114.5t35 -94.5t67.5 -66.5t103.5 -23.5q153 0 291 64l56 -188q-144 -77 -322 -86l-37 -93q27 9 68 9q61 0 106 -40t45 -104 q0 -76 -58.5 -119t-170.5 -43q-87 0 -209 48l21 104q99 -51 174 -51q77 0 77 63q0 26 -16.5 43t-44.5 17q-33 0 -57 -19q-59 23 -84 33l59 156q-95 12 -166 55t-113 109t-62.5 146.5t-20.5 174.5z" />
<glyph unicode="&#xe8;" horiz-adv-x="958" d="M68 467q0 136 46.5 244.5t145.5 175.5t238 67q103 0 181 -34t123 -92.5t67 -128t22 -148.5q0 -94 -17 -160h-565q3 -101 57.5 -156t159.5 -55q146 0 281 80l74 -180q-75 -47 -170.5 -75t-186.5 -28q-119 0 -207.5 36t-142.5 102.5t-80 154.5t-26 197zM246 1425h235 l150 -333h-207zM311 563h357q2 12 2 29q0 83 -49 127.5t-123 44.5q-91 0 -135.5 -55t-51.5 -146z" />
<glyph unicode="&#xe9;" horiz-adv-x="958" d="M68 467q0 136 46.5 244.5t145.5 175.5t238 67q103 0 181 -34t123 -92.5t67 -128t22 -148.5q0 -94 -17 -160h-565q3 -101 57.5 -156t159.5 -55q146 0 281 80l74 -180q-75 -47 -170.5 -75t-186.5 -28q-119 0 -207.5 36t-142.5 102.5t-80 154.5t-26 197zM311 563h357 q2 12 2 29q0 83 -49 127.5t-123 44.5q-91 0 -135.5 -55t-51.5 -146zM383 1092l149 333h236l-178 -333h-207z" />
<glyph unicode="&#xea;" horiz-adv-x="958" d="M68 467q0 136 46.5 244.5t145.5 175.5t238 67q103 0 181 -34t123 -92.5t67 -128t22 -148.5q0 -94 -17 -160h-565q3 -101 57.5 -156t159.5 -55q146 0 281 80l74 -180q-75 -47 -170.5 -75t-186.5 -28q-119 0 -207.5 36t-142.5 102.5t-80 154.5t-26 197zM188 1092l177 333 h294l175 -333h-207l-115 217l-115 -217h-209zM311 563h357q2 12 2 29q0 83 -49 127.5t-123 44.5q-91 0 -135.5 -55t-51.5 -146z" />
<glyph unicode="&#xeb;" horiz-adv-x="958" d="M68 467q0 136 46.5 244.5t145.5 175.5t238 67q103 0 181 -34t123 -92.5t67 -128t22 -148.5q0 -94 -17 -160h-565q3 -101 57.5 -156t159.5 -55q146 0 281 80l74 -180q-75 -47 -170.5 -75t-186.5 -28q-119 0 -207.5 36t-142.5 102.5t-80 154.5t-26 197zM168 1237 q0 70 39 105.5t104 35.5q59 0 100.5 -36t41.5 -105q0 -70 -41 -103.5t-101 -33.5q-143 0 -143 137zM311 563h357q2 12 2 29q0 83 -49 127.5t-123 44.5q-91 0 -135.5 -55t-51.5 -146zM565 1237q0 70 39.5 105.5t104.5 35.5q59 0 100 -36t41 -105q0 -70 -40.5 -103.5 t-100.5 -33.5q-66 0 -105 33t-39 104z" />
<glyph unicode="&#xec;" horiz-adv-x="694" d="M63 0v197h197v538h-197v199h424v-737h183v-197h-607zM92 1425h236l149 -333h-207z" />
<glyph unicode="&#xed;" horiz-adv-x="694" d="M63 0v197h197v538h-197v199h424v-737h183v-197h-607zM254 1092l149 333h236l-178 -333h-207z" />
<glyph unicode="&#xee;" horiz-adv-x="694" d="M23 1092l176 333h295l174 -333h-207l-115 217l-115 -217h-208zM63 0v197h197v538h-197v199h424v-737h183v-197h-607z" />
<glyph unicode="&#xef;" horiz-adv-x="694" d="M2 1237q0 70 39 105.5t104 35.5q59 0 100.5 -36t41.5 -105q0 -70 -41 -103.5t-101 -33.5q-143 0 -143 137zM63 0v197h197v538h-197v199h424v-737h183v-197h-607zM399 1237q0 70 39.5 105.5t104.5 35.5q59 0 100 -36t41 -105q0 -70 -40.5 -103.5t-100.5 -33.5 q-66 0 -105 33t-39 104z" />
<glyph unicode="&#xf0;" horiz-adv-x="1093" d="M70 459q0 210 106.5 333t290.5 123q109 0 186.5 -48t116.5 -117q0 155 -74 315l-155 -68l-64 156l137 57q-84 120 -196 215h284q59 -51 121 -135l127 53l64 -147l-109 -47q107 -233 107 -506q0 -104 -15 -197t-50 -180.5t-88.5 -150t-136 -100.5t-185.5 -38 q-153 0 -259.5 62.5t-157 169.5t-50.5 250zM313 438q0 -109 53 -177t164 -68q77 0 129 49t74.5 124t22.5 169q-77 147 -240 147q-101 0 -152 -65t-51 -179z" />
<glyph unicode="&#xf1;" horiz-adv-x="1179" d="M74 0v197h121v538h-117v199h319v-111q108 131 316 131q315 0 315 -368v-389h119v-197h-481v197h135v364q0 90 -39 134t-137 44q-56 0 -113 -21.5t-90 -47.5v-473h131v-197h-479zM301 1171l4 172q52 -49 139 -49q42 0 90.5 20.5t104 41t115.5 20.5q81 0 153 -45l-4 -174 q-79 51 -149 51q-51 0 -149.5 -42t-160.5 -42q-88 0 -143 47z" />
<glyph unicode="&#xf2;" horiz-adv-x="1028" d="M68 465q0 489 450 489q117 0 203.5 -35t138 -101t76.5 -152.5t25 -196.5q0 -492 -451 -492q-227 0 -334.5 131t-107.5 357zM258 1425h236l149 -333h-207zM307 469q0 -149 47.5 -215t161.5 -66t159.5 66t45.5 211q0 148 -46.5 213t-162.5 65q-112 0 -158.5 -65t-46.5 -209 z" />
<glyph unicode="&#xf3;" horiz-adv-x="1028" d="M68 465q0 489 450 489q117 0 203.5 -35t138 -101t76.5 -152.5t25 -196.5q0 -492 -451 -492q-227 0 -334.5 131t-107.5 357zM307 469q0 -149 47.5 -215t161.5 -66t159.5 66t45.5 211q0 148 -46.5 213t-162.5 65q-112 0 -158.5 -65t-46.5 -209zM381 1092l149 333h236 l-178 -333h-207z" />
<glyph unicode="&#xf4;" horiz-adv-x="1028" d="M68 465q0 489 450 489q117 0 203.5 -35t138 -101t76.5 -152.5t25 -196.5q0 -492 -451 -492q-227 0 -334.5 131t-107.5 357zM190 1092l177 333h295l174 -333h-207l-115 217l-115 -217h-209zM307 469q0 -149 47.5 -215t161.5 -66t159.5 66t45.5 211q0 148 -46.5 213 t-162.5 65q-112 0 -158.5 -65t-46.5 -209z" />
<glyph unicode="&#xf5;" horiz-adv-x="1028" d="M68 465q0 489 450 489q117 0 203.5 -35t138 -101t76.5 -152.5t25 -196.5q0 -492 -451 -492q-227 0 -334.5 131t-107.5 357zM211 1171l4 172q52 -49 139 -49q42 0 90.5 20.5t104 41t115.5 20.5q81 0 153 -45l-4 -174q-79 51 -149 51q-51 0 -149.5 -42t-160.5 -42 q-88 0 -143 47zM307 469q0 -149 47.5 -215t161.5 -66t159.5 66t45.5 211q0 148 -46.5 213t-162.5 65q-112 0 -158.5 -65t-46.5 -209z" />
<glyph unicode="&#xf6;" horiz-adv-x="1028" d="M68 465q0 489 450 489q117 0 203.5 -35t138 -101t76.5 -152.5t25 -196.5q0 -492 -451 -492q-227 0 -334.5 131t-107.5 357zM174 1237q0 70 39 105.5t104 35.5q59 0 100.5 -36t41.5 -105q0 -70 -41 -103.5t-101 -33.5q-143 0 -143 137zM307 469q0 -149 47.5 -215 t161.5 -66t159.5 66t45.5 211q0 148 -46.5 213t-162.5 65q-112 0 -158.5 -65t-46.5 -209zM571 1237q0 70 39.5 105.5t104.5 35.5q59 0 100 -36t41 -105q0 -70 -40.5 -103.5t-100.5 -33.5q-66 0 -105 33t-39 104z" />
<glyph unicode="&#xf7;" d="M76 442v222h993v-222h-993zM422 176q0 65 44.5 107.5t111.5 42.5q66 0 110.5 -43t44.5 -107t-44.5 -106.5t-110.5 -42.5q-68 0 -112 42.5t-44 106.5zM422 930q0 66 44 107.5t112 41.5q67 0 111 -42t44 -107q0 -64 -44.5 -107t-110.5 -43q-67 0 -111.5 42.5t-44.5 107.5z " />
<glyph unicode="&#xf8;" horiz-adv-x="1028" d="M68 465q0 489 450 489q68 0 123 -12l41 96h145v-24l-53 -123q187 -114 187 -422q0 -492 -451 -492q-67 0 -133 17l-43 -100h-141v28l55 123q-180 116 -180 420zM307 469q0 -139 45 -195l195 467q-10 2 -35 2q-112 0 -158.5 -65t-46.5 -209zM469 190q14 -2 47 -2 q114 0 159.5 66t45.5 211q0 144 -51 203z" />
<glyph unicode="&#xf9;" horiz-adv-x="1167" d="M29 737v197h362v-561q0 -90 37.5 -134t134.5 -44q62 0 120 31t85 81v430h-172v197h397v-735h140v-199h-320v164q-45 -75 -131 -129.5t-215 -54.5q-303 0 -303 368v389h-135zM309 1425h236l149 -333h-207z" />
<glyph unicode="&#xfa;" horiz-adv-x="1167" d="M29 737v197h362v-561q0 -90 37.5 -134t134.5 -44q62 0 120 31t85 81v430h-172v197h397v-735h140v-199h-320v164q-45 -75 -131 -129.5t-215 -54.5q-303 0 -303 368v389h-135zM408 1092l149 333h236l-179 -333h-206z" />
<glyph unicode="&#xfb;" horiz-adv-x="1167" d="M29 737v197h362v-561q0 -90 37.5 -134t134.5 -44q62 0 120 31t85 81v430h-172v197h397v-735h140v-199h-320v164q-45 -75 -131 -129.5t-215 -54.5q-303 0 -303 368v389h-135zM233 1092l177 333h295l174 -333h-207l-115 217l-115 -217h-209z" />
<glyph unicode="&#xfc;" horiz-adv-x="1167" d="M29 737v197h362v-561q0 -90 37.5 -134t134.5 -44q62 0 120 31t85 81v430h-172v197h397v-735h140v-199h-320v164q-45 -75 -131 -129.5t-215 -54.5q-303 0 -303 368v389h-135zM213 1237q0 70 39 105.5t104 35.5q59 0 100.5 -36t41.5 -105q0 -70 -41 -103.5t-101 -33.5 q-143 0 -143 137zM610 1237q0 70 39.5 105.5t104.5 35.5q59 0 100 -36t41 -105q0 -70 -40.5 -103.5t-100.5 -33.5q-66 0 -105 33t-39 104z" />
<glyph unicode="&#xfd;" horiz-adv-x="1169" d="M14 735v199h406v-197l188 -471l197 469h-207v199h553v-199h-123l-416 -991q-48 -113 -119.5 -160t-168.5 -47q-130 0 -201 39v166h256l119 264l-328 729h-156zM449 1092l149 333h236l-179 -333h-206z" />
<glyph unicode="&#xfe;" horiz-adv-x="1056" d="M-8 1227v198h362v-577q81 106 238 106q192 0 292.5 -127t100.5 -362q0 -234 -98.5 -361t-294.5 -127q-153 0 -238 97v-318h199v-198h-533v186l107 29v1454h-135zM354 260q67 -67 183 -67q117 0 164 71t47 201q0 63 -9.5 110t-32.5 85.5t-65.5 58.5t-103.5 20 q-60 0 -107.5 -22t-75.5 -55v-402z" />
<glyph unicode="&#xff;" horiz-adv-x="1169" d="M14 735v199h406v-197l188 -471l197 469h-207v199h553v-199h-123l-416 -991q-48 -113 -119.5 -160t-168.5 -47q-130 0 -201 39v166h256l119 264l-328 729h-156zM244 1237q0 70 39 105.5t104 35.5q59 0 100 -36t41 -105q0 -70 -40.5 -103.5t-100.5 -33.5q-143 0 -143 137z M641 1237q0 70 39 105.5t104 35.5q59 0 100.5 -36t41.5 -105q0 -70 -41 -103.5t-101 -33.5q-143 0 -143 137z" />
<glyph unicode="&#x152;" horiz-adv-x="1832" d="M90 690q0 717 582 717q92 0 200 -23h863v-405h-224v207h-424v-389h422v-199h-422v-399h433v211h221v-410h-873q-90 -23 -200 -23q-578 0 -578 713zM350 690q0 -118 14.5 -204t50 -154.5t99.5 -103.5t158 -35q118 0 174 30v934q-75 33 -172 33q-92 0 -156 -35t-100 -103 t-52 -156t-16 -206z" />
<glyph unicode="&#x153;" horiz-adv-x="1611" d="M68 465q0 489 450 489q217 0 330 -139q116 139 305 139q102 0 180 -34t123 -92.5t67.5 -128t22.5 -148.5q0 -82 -16 -160h-563q3 -100 57 -155.5t158 -55.5q141 -3 278 80l76 -180q-163 -103 -379 -103q-202 0 -317 142q-118 -142 -330 -142q-227 0 -334.5 131 t-107.5 357zM307 469q0 -149 47.5 -215t161.5 -66t159.5 66t45.5 211q0 148 -46.5 213t-162.5 65q-112 0 -158.5 -65t-46.5 -209zM969 563h352q2 12 2 29q0 82 -48.5 127t-121.5 45q-91 0 -135 -55t-49 -146z" />
<glyph unicode="&#x178;" horiz-adv-x="1308" d="M10 1186v198h553v-198h-166l260 -445l265 445h-168v198h555v-198h-133l-400 -645v-342h166v-199h-588v199h178v342l-389 645h-133zM317 1657q0 70 39.5 105.5t104.5 35.5q59 0 100 -36t41 -105q0 -70 -40.5 -103.5t-100.5 -33.5q-66 0 -105 33t-39 104zM715 1657 q0 70 39 105.5t104 35.5q59 0 100 -36t41 -105q0 -70 -40.5 -103.5t-100.5 -33.5q-143 0 -143 137z" />
<glyph unicode="&#x2c6;" horiz-adv-x="1228" d="M291 1092l176 333h295l174 -333h-207l-115 217l-114 -217h-209z" />
<glyph unicode="&#x2dc;" horiz-adv-x="1228" d="M311 1171l4 172q52 -49 140 -49q42 0 90.5 20.5t103.5 41t115 20.5q82 0 154 -45l-5 -174q-79 51 -149 51q-51 0 -149 -42t-160 -42q-89 0 -144 47z" />
<glyph unicode="&#x2000;" horiz-adv-x="935" />
<glyph unicode="&#x2001;" horiz-adv-x="1870" />
<glyph unicode="&#x2002;" horiz-adv-x="935" />
<glyph unicode="&#x2003;" horiz-adv-x="1870" />
<glyph unicode="&#x2004;" horiz-adv-x="623" />
<glyph unicode="&#x2005;" horiz-adv-x="467" />
<glyph unicode="&#x2006;" horiz-adv-x="311" />
<glyph unicode="&#x2007;" horiz-adv-x="311" />
<glyph unicode="&#x2008;" horiz-adv-x="233" />
<glyph unicode="&#x2009;" horiz-adv-x="374" />
<glyph unicode="&#x200a;" horiz-adv-x="103" />
<glyph unicode="&#x2010;" d="M201 442v222h743v-222h-743z" />
<glyph unicode="&#x2011;" d="M201 442v222h743v-222h-743z" />
<glyph unicode="&#x2012;" d="M201 442v222h743v-222h-743z" />
<glyph unicode="&#x2013;" horiz-adv-x="1196" d="M104 442v222h988v-222h-988z" />
<glyph unicode="&#x2014;" horiz-adv-x="1482" d="M104 442v222h1274v-222h-1274z" />
<glyph unicode="&#x2018;" horiz-adv-x="432" d="M57 872l127 512h176l-51 -512h-252z" />
<glyph unicode="&#x2019;" horiz-adv-x="421" d="M80 872l51 512h252l-129 -512h-174z" />
<glyph unicode="&#x201a;" horiz-adv-x="438" d="M59 -223l52 510h251l-129 -510h-174z" />
<glyph unicode="&#x201c;" horiz-adv-x="776" d="M57 872l127 512h176l-51 -512h-252zM401 872l129 512h175l-52 -512h-252z" />
<glyph unicode="&#x201d;" horiz-adv-x="768" d="M80 872l51 512h252l-129 -512h-174zM426 872l51 512h252l-129 -512h-174z" />
<glyph unicode="&#x201e;" horiz-adv-x="786" d="M61 -225l52 512h252l-129 -512h-175zM406 -225l51 512h252l-127 -512h-176z" />
<glyph unicode="&#x2022;" d="M299 551q0 114 77 188t197 74t197.5 -74t77.5 -188q0 -113 -77.5 -187.5t-197.5 -74.5q-119 0 -196.5 74.5t-77.5 187.5z" />
<glyph unicode="&#x2026;" horiz-adv-x="1355" d="M72 135q0 66 43.5 108t111.5 42t112 -42t44 -108q0 -63 -44.5 -105t-111.5 -42t-111 42t-44 105zM518 135q0 66 44 108t112 42t111.5 -42t43.5 -108q0 -63 -44 -105t-111 -42t-111.5 42t-44.5 105zM963 135q0 66 43.5 108t111.5 42t112 -42t44 -108q0 -63 -44.5 -105 t-111.5 -42t-111 42t-44 105z" />
<glyph unicode="&#x202f;" horiz-adv-x="374" />
<glyph unicode="&#x2039;" horiz-adv-x="675" d="M47 553l402 467l147 -109l-268 -360l270 -358l-149 -107z" />
<glyph unicode="&#x203a;" horiz-adv-x="675" d="M78 193l270 358l-268 360l147 109l402 -467l-402 -467z" />
<glyph unicode="&#x205f;" horiz-adv-x="467" />
<glyph unicode="&#x20ac;" d="M66 469v156h98v123h-98v155h112q77 502 545 502q178 0 360 -82l-77 -207q-148 70 -289 70q-237 0 -285 -283h502l-55 -155h-461v-52q0 -48 2 -71h420l-54 -156h-344q67 -264 291 -264q154 0 293 67l53 -209q-159 -86 -356 -86q-231 0 -367 125.5t-176 366.5h-114z" />
<glyph unicode="&#x2122;" horiz-adv-x="1409" d="M145 1077v166h428v-166h-94v78h-65v-309h67v-88h-248v88h68v309h-59v-78h-97zM618 758v88h48l32 309h-45v88h213l84 -362l90 362h209v-88h-43l29 -309h53v-88h-213v88h53l-22 276l-94 -364h-125l-88 358l-25 -270h55v-88h-211z" />
<glyph unicode="&#xe000;" horiz-adv-x="931" d="M0 0v932h932v-932h-932z" />
</font>
</defs>
</svg>
