<?xml version="1.0" standalone="no"?>
<!DOCTYPE svg PUBLIC "-//W3C//DTD SVG 1.1//EN" "http://www.w3.org/Graphics/SVG/1.1/DTD/svg11.dtd" >
<svg xmlns="http://www.w3.org/2000/svg">
<metadata></metadata>
<defs>
<font id="din_mittelschrifmittelschrift" horiz-adv-x="1128" >
<font-face units-per-em="2048" ascent="1638" descent="-410" />
<missing-glyph horiz-adv-x="583" />
<glyph horiz-adv-x="2048" />
<glyph horiz-adv-x="2048" />
<glyph unicode="&#xd;" horiz-adv-x="583" />
<glyph unicode=" "  horiz-adv-x="583" />
<glyph unicode="&#x09;" horiz-adv-x="583" />
<glyph unicode="&#xa0;" horiz-adv-x="583" />
<glyph unicode="!" horiz-adv-x="405" d="M51 1149l55 -864h91l55 864h-201zM68 0h168v162h-168v-162z" />
<glyph unicode="&#x22;" horiz-adv-x="540" d="M51 856h125v293h-125v-293zM262 856v293h125v-293h-125z" />
<glyph unicode="#" horiz-adv-x="976" d="M51 352v109h162l31 227h-142v111h156l45 342h135l-45 -342h150l45 342h139l-49 -342h145v-111h-159l-29 -227h139v-109h-153l-48 -352h-137l47 352h-149l-47 -352h-135l47 352h-148zM348 461h150l30 227h-151z" />
<glyph unicode="$" horiz-adv-x="915" d="M53 143l111 121q102 -104 215 -123v365q-123 25 -199 99.5t-80 230.5q2 178 100.5 249.5t178.5 71.5v113h88v-111q178 -16 266 -110l-88 -119q-92 80 -178 82v-359q115 -4 200 -81.5t91 -223.5q4 -119 -73 -233.5t-218 -124.5v-174h-88v172q-197 18 -326 155zM264 846 q0 -121 115 -170v336q-109 -41 -115 -166zM467 141q115 23 133 181q-12 145 -133 170v-351z" />
<glyph unicode="%" horiz-adv-x="888" d="M53 6l543 1149h113l-543 -1149h-113zM53 891q0 -78 39 -119t117 -41t115.5 42t37.5 120v104q0 78 -37.5 118t-111.5 40q-80 0 -120 -41t-40 -119v-104zM154 918v63q0 41 12 62.5t43 21.5q29 0 45 -20.5t16 -63.5v-61q0 -43 -16 -69t-47 -26t-42 24.5t-11 68.5zM428 147 q0 -78 38 -117.5t112 -39.5q80 0 119.5 41t39.5 119v104q0 78 -39 119t-116 41q-78 0 -116 -42t-38 -120v-105zM520 170v61q0 43 16.5 69t47.5 26t42 -25t11 -68v-63q0 -41 -12 -62.5t-43 -21.5q-29 0 -45.5 20.5t-16.5 63.5z" />
<glyph unicode="&#x26;" horiz-adv-x="1193" d="M51 346q6 223 219 334q-88 117 -92 219q0 113 71.5 185.5t186.5 72.5q113 0 185.5 -71.5t72.5 -186.5q0 -178 -186 -254l237 -293q66 82 109 191l145 -66q-61 -141 -151 -239l192 -238h-190l-113 131q-141 -129 -327 -139q-326 14 -359 354zM190 350q0 -78 60 -146.5 t164 -68.5q133 2 229 105l-281 333q-102 -37 -137 -84t-35 -139zM321.5 888q6.5 -23 98.5 -134q94 37 133 147q0 43 -33 79t-84 36q-43 0 -73.5 -19.5t-39 -52.5t-2 -56z" />
<glyph unicode="'" horiz-adv-x="329" d="M51 856h125v293h-125v-293z" />
<glyph unicode="(" horiz-adv-x="512" d="M51 492q27 -375 240 -654h67q-133 293 -149 654q16 362 149 655h-67q-213 -272 -240 -655z" />
<glyph unicode=")" horiz-adv-x="512" d="M51 -162q133 293 150 654q-16 362 -150 655h68q213 -272 239 -655q-26 -375 -239 -654h-68z" />
<glyph unicode="*" horiz-adv-x="645" d="M51 829l127 80l-127 82l49 76l117 -76v158h109v-158l116 76l50 -76l-127 -82l127 -80l-50 -75l-116 75v-157h-109v157l-117 -75z" />
<glyph unicode="+" horiz-adv-x="1028" d="M51 352v119h344v352h137v-352h345v-119h-345v-352h-137v352h-344z" />
<glyph unicode="," horiz-adv-x="374" d="M51 -119v287h170v-168z" />
<glyph unicode="-" horiz-adv-x="690" d="M51 367v163h486v-163h-486z" />
<glyph unicode="." horiz-adv-x="374" d="M51 0v168h170v-168h-170z" />
<glyph unicode="/" horiz-adv-x="722" d="M51 -10h129l391 1169h-129z" />
<glyph unicode="0" horiz-adv-x="868" d="M51 406v339q0 172 87 292t241 120q152 -2 244 -95t86 -317v-337q-4 -174 -90.5 -294t-243.5 -120q-152 0 -238 119.5t-86 292.5zM219 451q0 -201 40 -248t122 -47q78 0 114.5 47t43.5 248v241q-6 209 -43 254t-115 45q-82 0 -121 -45t-41 -254v-241z" />
<glyph unicode="1" horiz-adv-x="532" d="M51 856v184l158 109h170v-1149h-168v965z" />
<glyph unicode="2" horiz-adv-x="876" d="M51 0v168l477 584q59 166 -90 229q-184 49 -235 -166h-152q16 266 252 334q336 12 404 -250q16 -168 -52 -268l-385 -463h437v-168h-656z" />
<glyph unicode="3" horiz-adv-x="876" d="M51 285h166q0 -35 40 -80t120 -45q88 0 132 45t44 135t-47 138t-201 42v148q158 0 198 53t40 108q2 61 -43 113.5t-119 48.5q-74 2 -119 -51t-45 -84h-166q0 98 90.5 200.5t227.5 102.5q150 4 243 -96t93 -232q6 -184 -121 -235q139 -70 139 -254q0 -152 -94 -251 t-242 -99q-145 0 -240.5 82t-95.5 211z" />
<glyph unicode="4" horiz-adv-x="944" d="M51 168v168l389 813h185l-383 -819h288v325h170v-325h91v-162h-91v-168h-170v168h-479z" />
<glyph unicode="5" horiz-adv-x="874" d="M51 295h168q35 -174 223 -127q109 49 103 240q18 145 -99 213q-137 45 -219 -101h-159v629h622v-158h-463v-270q219 150 398 -23q96 -94 90 -295q0 -184 -68 -286q-90 -119 -260 -125q-309 12 -336 303z" />
<glyph unicode="6" horiz-adv-x="868" d="M51 344q8 143 111 344l239 461h189l-244 -477q352 49 369 -320q-31 -350 -344 -360q-299 8 -320 352zM217 344q0 -186 156 -186q166 0 166 186t-166 186q-156 0 -156 -186z" />
<glyph unicode="7" horiz-adv-x="860" d="M51 817v332h656v-150l-388 -999h-184l381 981h-305v-164h-160z" />
<glyph unicode="8" horiz-adv-x="892" d="M51 348q0 -178 97.5 -266t246.5 -88q133 0 238.5 88t105.5 262q-2 135 -127 260q111 100 111 230q0 137 -92.5 226t-235.5 89q-152 0 -240.5 -89t-88.5 -226q0 -129 110 -230q-125 -125 -125 -256zM215 338q0 80 51 130t127 50q78 0 131.5 -50t53.5 -128 q0 -80 -53.5 -131t-131.5 -51q-76 0 -127 51t-51 129zM238 827q0 72 46 118t111 46q66 0 112 -46t46 -116q0 -72 -46 -117.5t-112 -45.5t-111.5 46t-45.5 115z" />
<glyph unicode="9" horiz-adv-x="868" d="M51 797q31 350 344 360q299 -8 320 -352q-8 -143 -111 -344l-239 -461h-189l244 477q-352 -49 -369 320zM227 805q0 -186 166 -187q156 0 156 187q0 186 -156 186q-166 0 -166 -186z" />
<glyph unicode=":" horiz-adv-x="374" d="M51 0v168h170v-168h-170zM51 371v168h170v-168h-170z" />
<glyph unicode=";" horiz-adv-x="374" d="M51 -119v287h170v-168zM51 371v168h170v-168h-170z" />
<glyph unicode="&#x3c;" horiz-adv-x="1435" d="M236 631l548 413q16 12 35 13q25 0 25 -27q0 -6 -2 -14l-45 -221h434v-328h-434l45 -219q2 -8 2 -15q0 -27 -25 -26q-18 0 -35 12z" />
<glyph unicode="=" horiz-adv-x="1032" d="M51 178v133h828v-133h-828zM51 504v133h828v-133h-828z" />
<glyph unicode="&#x3e;" horiz-adv-x="1441" d="M221 467v328h434l-45 221v14q0 27 23 27q18 0 35 -13l549 -413l-549 -412q-16 -12 -35 -12q-23 0 -23 26v15l45 219h-434z" />
<glyph unicode="?" horiz-adv-x="829" d="M55 823q-4 164 85 246t222 88q150 2 232 -96t74 -213q-4 -96 -45 -160l-150 -194q-27 -37 -31 -74v-135h-168v135q0 33 27 94l191 274q41 129 -66 203q-203 49 -219 -168h-152zM274 0v168h170v-168h-170z" />
<glyph unicode="@" horiz-adv-x="1406" d="M195 571q6 240 155.5 409t442.5 177q319 -12 449 -170t120 -303q31 -332 -338 -465q-166 4 -154 115q-127 -141 -288 -96q-111 66 -146 149q-27 152 52 303.5t241 208.5q72 27 154 2.5t125 -113.5l24 84h92l-133 -452q-47 -80 3 -95.5t132 59.5t117 253q16 168 -102 287 q-160 111 -336 114q-254 -23 -365.5 -149.5t-113.5 -315.5q10 -352 370 -446q143 -20 270.5 -1t256.5 142h104q-98 -141 -221 -208.5t-307 -67.5q-264 12 -412 143q-188 166 -192 436zM563 522q-35 -127 74 -186q121 -20 194.5 57.5t120.5 218.5q6 127 -63.5 168t-132.5 15 q-154 -61 -193 -273z" />
<glyph unicode="A" horiz-adv-x="1097" d="M51 0l420 1149h147l416 -1149h-184l-94 260h-428l-92 -260h-185zM369 406h356l-180 501z" />
<glyph unicode="B" horiz-adv-x="925" d="M37 0v1149h512q227 -23 276 -225q10 -45 10 -84q0 -169 -178 -242q190 -110 190 -277q0 -26 -5 -53q-55 -240 -293 -268h-512zM213 668h291q129 10 151 157q-23 154 -151 166h-291v-323zM215 166h299q133 12 158 166q-25 160 -158 172h-299v-338z" />
<glyph unicode="C" horiz-adv-x="956" d="M66 383q-6 98 -6 196.5t6 196.5q55 373 401 373h4h11q309 0 388 -326h-184q-43 139 -211 164q-236 -23 -235 -244q-5 -75 -5 -152q0 -92 7 -185q-2 -209 237 -244q168 8 207 157h184q-82 -327 -379 -327h-16q-358 25 -409 391z" />
<glyph unicode="D" horiz-adv-x="958" d="M53 0h414q158 4 276.5 113.5t120.5 343.5v248q1 13 1 26q-1 185 -107 297q-114 120 -291 121h-414v-1149zM229 162v815h238h5q104 0 166 -82q59 -77 59 -206q0 -12 -1 -25v-177v-18q0 -147 -62 -223q-66 -80 -167 -84h-238z" />
<glyph unicode="E" horiz-adv-x="872" d="M51 0v1155h740v-174h-562v-322h478v-157h-478v-338h562v-164h-740z" />
<glyph unicode="F" horiz-adv-x="866" d="M51 0v1155h740v-174h-564v-332h480v-162h-480v-487h-176z" />
<glyph unicode="G" horiz-adv-x="937" d="M55 414v362q0 137 114 257t300 124q145 0 268 -103.5t125 -234.5h-184q2 57 -65.5 113.5t-145.5 56.5q-90 0 -162 -64.5t-72 -162.5v-348q0 -117 64.5 -181.5t169.5 -66.5q88 0 161 64q65 59 65 117q0 7 -1 13v111h-227v160h405v-236v-17q0 -157 -106 -264 q-113 -114 -299 -114q-188 0 -301 121q-109 117 -109 281v12z" />
<glyph unicode="H" horiz-adv-x="927" d="M51 0v1149h172v-490h453v490h174v-1149h-174v502h-453v-502h-172z" />
<glyph unicode="I" horiz-adv-x="290" d="M51 0v1149h176v-1149h-176z" />
<glyph unicode="J" horiz-adv-x="790" d="M51 143l139 107q60 -84 159 -84h9q66 2 126 53q56 46 56 127q0 8 -1 16v787h178v-787q-20 -334 -359 -370q-233 14 -307 151z" />
<glyph unicode="K" horiz-adv-x="1005" d="M51 0v1149h170v-592l479 592h199l-367 -461l402 -688h-193l-315 567l-205 -223v-344h-170z" />
<glyph unicode="L" horiz-adv-x="833" d="M51 0v1149h176v-985h561v-164h-737z" />
<glyph unicode="M" horiz-adv-x="1114" d="M51 0v1149h166l328 -743l325 743h162v-1149h-174v713l-246 -545h-143l-244 545v-713h-174z" />
<glyph unicode="N" horiz-adv-x="995" d="M51 0v1149h168l518 -819v819h172v-1149h-166l-516 813v-813h-176z" />
<glyph unicode="O" horiz-adv-x="935" d="M53 406v339q0 172 111 292t301 120q154 0 283 -128t129 -284v-337q-2 -174 -110 -294t-304 -120q-190 0 -301 120q-109 117 -109 286v6zM231 457v-24q0 -147 69 -203q75 -62 163 -64h4q76 0 156 68q74 63 74 193q0 14 -1 30v235q0 145 -68 219q-62 68 -150 68h-15 q-106 -1 -173 -71q-60 -63 -60 -186q0 -15 1 -30v-235z" />
<glyph unicode="P" horiz-adv-x="886" d="M51 0v1149h430q158 0 260.5 -98.5t102.5 -253.5q0 -152 -101.5 -251.5t-261.5 -99.5h-258v-446h-172zM223 612h269q84 0 138 51.5t54 133.5q0 80 -54.5 133t-140.5 53h-266v-371z" />
<glyph unicode="Q" horiz-adv-x="1032" d="M53 406v339q0 172 111 292t301 120q154 0 283 -128t129 -284v-337q-14 -145 -41 -191l145 -127l-104 -113l-136 113q-100 -92 -278 -96q-190 0 -301 120q-109 117 -109 286v6zM238 457v-24q0 -147 68 -203q73 -62 161 -64h7q73 0 120 43l-148 117l103 120l131 -112 q18 18 18 123v235q0 145 -66 219q-62 68 -150 68h-15q-106 0 -171 -71q-59 -63 -59 -188q0 -14 1 -28v-235z" />
<glyph unicode="R" horiz-adv-x="950" d="M51 0v1149h449q195 -10 269.5 -110.5t80.5 -182.5q-4 -168 -77 -243.5t-150 -98.5l270 -514h-207l-240 494h-225v-494h-170zM221 647h287h12q83 -1 125 51q38 47 38 109q0 11 -1 22q0 76 -47 121q-43 41 -114 41h-13h-287v-344z" />
<glyph unicode="S" horiz-adv-x="942" d="M51 150l113 131q109 -100 323 -117q225 22 225 151q0 7 -1 13q-4 152 -219 164q-358 14 -390 333q25 324 392 332q221 -10 358 -125l-96 -135q-111 76 -271 94q-197 -33 -211 -170q16 -141 228 -157q350 -18 387 -334q-2 -319 -379 -346q-295 6 -459 166z" />
<glyph unicode="T" horiz-adv-x="829" d="M2 991v158h807v-158h-311v-991h-185v991h-311z" />
<glyph unicode="U" horiz-adv-x="927" d="M47 412v737h176v-743q0 -102 64.5 -171t167.5 -69q102 0 167.5 67.5t65.5 174.5v741h170v-741q1 -14 1 -28q1 -167 -111 -279q-117 -117 -276 -117h-11q-190 2 -305 126q-109 117 -109 284v18z" />
<glyph unicode="V" horiz-adv-x="931" d="M10 1149h187l258 -868l262 868h186l-375 -1149h-139z" />
<glyph unicode="W" horiz-adv-x="1347" d="M4 1149h186l181 -819l221 819h131l221 -819l180 819h187l-285 -1149h-149l-220 819l-219 -819h-149z" />
<glyph unicode="X" horiz-adv-x="925" d="M2 0l344 590l-319 559h194l230 -391l227 391h203l-332 -559l354 -590h-213l-239 424l-246 -424h-203z" />
<glyph unicode="Y" horiz-adv-x="880" d="M0 1149h184l242 -494l240 494h188l-346 -678v-471h-168v471z" />
<glyph unicode="Z" horiz-adv-x="843" d="M51 0v154l520 837h-503v158h723v-135l-521 -846h521v-168h-740z" />
<glyph unicode="[" horiz-adv-x="507" d="M51 -168v1317h303v-109h-151v-1091h151v-117h-303z" />
<glyph unicode="\" horiz-adv-x="724" d="M51 1159h129l391 -1169h-129z" />
<glyph unicode="]" horiz-adv-x="507" d="M51 -51v-117h303v1317h-303v-109h152v-1091h-152z" />
<glyph unicode="^" d="M135 705q0 16 12 34l414 549l412 -549q14 -18 14 -34q0 -25 -29 -25q-6 0 -14 2l-219 45v-434h-328v434l-221 -45q-8 -2 -14 -2q-27 0 -27 25z" />
<glyph unicode="_" horiz-adv-x="1472" d="M172 -12h1110v-224h-1110v224z" />
<glyph unicode="`" horiz-adv-x="471" d="M51 1159h213l156 -235h-156z" />
<glyph unicode="a" horiz-adv-x="770" d="M4 244q4 123 81 182q74 57 141 57h5h267v107q2 38 -50 62q-45 21 -101 21q-9 0 -19 -1q-135 -2 -158 -58l-129 74q70 137 287 137q309 -4 338 -221v-604h-168v68q-59 -76 -193 -76q-167 0 -235 82q-66 80 -66 165v5zM156 252q0 -51 39.5 -77t121.5 -30h12q95 0 131 30 q38 32 38 61v116h-213h-7q-49 0 -84 -26q-38 -28 -38 -74z" />
<glyph unicode="b" horiz-adv-x="841" d="M51 0v1151h168v-412q74 84 219 105q121 0 195 -82t74 -354v-35q0 -225 -73 -300q-77 -79 -190 -79h-6q-154 2 -219 90v-84h-168zM219 410q0 -141 36 -195.5t126 -54.5q92 0 128 56t36 196q0 141 -36 195.5t-128 54.5t-127 -56.5t-35 -195.5z" />
<glyph unicode="c" horiz-adv-x="724" d="M2 412q6 -381 360 -420q182 6 302 141l-117 107q-43 -50 -83 -68q-36 -17 -80 -16h-9q-73 0 -145 53q-68 50 -68 187v16v16q0 137 68 187q72 53 145 53h9q43 0 80 -16q40 -18 83 -70l117 108q-119 137 -299 137q-356 -39 -363 -415z" />
<glyph unicode="d" horiz-adv-x="870" d="M61 408v-35q0 -225 73 -300q77 -79 190 -79h6q154 2 219 90v-84h168v1151h-168v-412q-74 84 -217 84q-11 1 -23 1q-106 0 -178 -70q-71 -68 -71 -288q0 -28 1 -58zM223 412q0 141 36 195.5t128 54.5t127 -56.5t35 -195.5q0 -141 -36 -195.5t-126 -54.5q-92 0 -128 56 t-36 196z" />
<glyph unicode="e" horiz-adv-x="792" d="M53 412v9q0 206 86 305q88 101 240 101q156 0 252 -101q92 -97 92 -246v-13v-115h-504v-12q1 -92 59 -144q60 -53 129 -53h5h8q36 1 77 17q46 18 91 71l135 -106q-131 -129 -303 -131q-162 2 -266 98q-102 94 -101 312v8zM219 483h338q0 92 -49 141.5t-123 49.5 q-68 0 -117 -49.5t-49 -141.5z" />
<glyph unicode="f" horiz-adv-x="454" d="M2 688v135h84v123q0 96 50.5 145.5t152.5 49.5h117v-150h-117q-23 0 -34 -11t-11 -34v-123h162v-135h-162v-688h-158v688h-84z" />
<glyph unicode="g" horiz-adv-x="876" d="M51 229q-13 88 -13 182.5t13 194.5q27 172 185 217q40 7 78 7q132 0 225 -91v84h155v-821v-8q0 -144 -72 -236q-73 -94 -245 -100q-219 27 -309 139l118 105q65 -80 173 -80h10q152 4 170 178v84q-86 -98 -216 -98q-49 0 -104 14q-152 84 -168 229zM203 313 q33 -156 160 -156l1 1q127 0 168 121v276q-36 115 -162 115h-4q-130 -2 -163 -183v-174z" />
<glyph unicode="h" horiz-adv-x="854" d="M51 0v1151h162v-430q63 102 209 110q115 0 196.5 -75.5t81.5 -231.5v-524h-161v516v8q-1 52 -51 94q-54 46 -111 48q-59 -2 -111.5 -47.5t-52.5 -102.5v-516h-162z" />
<glyph unicode="i" horiz-adv-x="374" d="M51 0v823h170v-823h-170zM51 981v170h170v-170h-170z" />
<glyph unicode="j" horiz-adv-x="374" d="M-98 -168h49q49 0 74.5 25.5t25.5 74.5v891h170v-891v-10q0 -124 -48 -190q-50 -68 -171 -68h-100v168zM51 981v170h170v-170h-170z" />
<glyph unicode="k" horiz-adv-x="825" d="M51 0v1163h168v-727l320 387h204l-286 -325l317 -498h-209l-219 375l-127 -135v-240h-168z" />
<glyph unicode="l" horiz-adv-x="514" d="M53 268v-10q1 -124 49 -190q50 -68 170 -68h101v168h-49q-49 0 -75 25.5t-26 74.5v891h-170v-891z" />
<glyph unicode="m" horiz-adv-x="1349" d="M51 0v823h168v-84q68 84 219 88q154 -8 228 -104q66 98 241 104q131 -1 210 -77q77 -75 77 -199v-6v-545h-168v506v9q0 57 -46 104t-106 47h-10h-6q-68 0 -109.5 -45.5t-41.5 -104.5v-6v-510h-168v498v6q0 64 -40 112q-42 50 -128 50q-63 0 -109 -46q-43 -42 -43 -96v-10 v-514h-168z" />
<glyph unicode="n" horiz-adv-x="860" d="M51 0v823h168v-96q63 90 217 104q100 0 185.5 -68.5t85.5 -275.5v-487h-168v485q1 12 1 24q0 67 -30 111q-35 52 -123 56q-70 0 -120 -50q-46 -47 -46 -128v-13v-485h-170z" />
<glyph unicode="o" horiz-adv-x="794" d="M51 297v111v110q0 113 95.5 209t240.5 96q143 0 239.5 -92t96.5 -207v-114v-111q0 -113 -96.5 -209t-239.5 -96q-145 0 -240.5 96t-95.5 207zM209 344q0 -66 49 -126t127 -60q76 0 127 60.5t51 127.5v68v69q0 72 -51 127.5t-127 55.5q-78 0 -127 -58.5t-49 -126.5v-69 v-68z" />
<glyph unicode="p" horiz-adv-x="815" d="M51 -334h168v412q74 -84 217 -84q11 -1 22 -1q106 0 176 71q73 73 73 320v26q0 256 -76 344t-193 88q-154 -20 -219 -109v84h-168v-1151zM219 410q0 139 35 195.5t127 56.5t128 -54.5t36 -195.5q0 -139 -36 -195.5t-128 -56.5q-90 0 -126 54t-36 196z" />
<glyph unicode="q" horiz-adv-x="870" d="M61 410q4 254 78 344t193 90q152 -23 217 -111v84h168v-1151h-168v412q-74 -84 -217 -84q-11 -1 -22 -1q-106 0 -176 71q-73 75 -73 320v26zM223 412q0 -139 36 -195.5t128 -56.5q90 0 126 54t36 196q0 139 -35 195.5t-127 56.5t-128 -54.5t-36 -195.5z" />
<glyph unicode="r" horiz-adv-x="655" d="M51 0v823h168v-96q115 100 226 100q82 0 161 -55l-119 -151q-31 47 -101 47h-11q-53 0 -104.5 -49.5t-51.5 -96.5v-522h-168z" />
<glyph unicode="s" horiz-adv-x="808" d="M18 135l101 117q145 -106 272 -107q92 0 124 32t32 65q2 49 -41 72.5t-133 23.5q-158 0 -225.5 67.5t-67.5 174.5q0 106 73.5 180t225.5 74q252 -14 319 -119l-98 -119q-111 80 -223 80q-57 0 -99 -30t-40 -68q0 -27 39.5 -55.5t123.5 -28.5q127 0 219.5 -47.5 t92.5 -194.5q0 -113 -81 -185.5t-270 -72.5q-172 0 -344 141z" />
<glyph unicode="t" horiz-adv-x="524" d="M6 688v135h84v242h168v-242h117v-135h-117v-459q0 -39 19.5 -58t37.5 -19h60v-152h-60q-117 0 -170 52t-53 177v459h-86z" />
<glyph unicode="u" horiz-adv-x="860" d="M51 336v487h168v-485q-1 -12 -1 -24q0 -68 30 -111q35 -51 123 -56q70 1 120 51q46 47 46 127v13v485h170v-823h-168v96q-63 -90 -217 -104q-100 0 -185.5 68.5t-85.5 275.5z" />
<glyph unicode="v" horiz-adv-x="788" d="M2 823h180l195 -577l192 577h179l-304 -823h-143z" />
<glyph unicode="w" horiz-adv-x="1210" d="M2 823l264 -823h146l170 567l170 -567h145l264 823h-184l-154 -571l-182 571h-59h-60l-182 -571l-154 571h-184z" />
<glyph unicode="x" horiz-adv-x="784" d="M2 0l268 420l-268 403h211l154 -272l157 272h205l-262 -403l268 -420h-203l-167 266l-152 -266h-211z" />
<glyph unicode="y" horiz-adv-x="825" d="M51 823h168l197 -579l190 579h168l-371 -1059q-53 -90 -165 -100h-103v168h74q39 -2 52 10.5t32 59.5l45 149z" />
<glyph unicode="z" horiz-adv-x="710" d="M51 0v129l404 543h-387v151h596v-145l-412 -526h412v-152h-613z" />
<glyph unicode="{" horiz-adv-x="1015" d="M119 399v131q156 6 225 60q84 66 84 219v117q0 270 289 270h174v-113h-10q-184 0 -234 -65q-41 -51 -41 -244q0 -100 -61 -170q-51 -55 -168 -110v-58q117 -53 168 -110q61 -68 61 -168q0 -193 39 -244q49 -66 234 -66h12v-112h-174q-289 0 -289 270v115q0 156 -84 221 q-70 53 -225 57z" />
<glyph unicode="|" horiz-adv-x="411" d="M178 -264v1460h58v-1460h-58z" />
<glyph unicode="}" horiz-adv-x="1024" d="M119 -152h12q186 0 236 66q39 51 39 244q0 100 63 168q51 57 168 110v58q-117 55 -168 110q-63 70 -63 170q0 193 -39 244q-49 66 -236 65h-12v113h176q291 0 291 -270v-117q0 -156 86 -219q70 -53 223 -60v-131q-158 0 -225 -51q-84 -63 -84 -227v-115q0 -270 -291 -270 h-176v112z" />
<glyph unicode="~" horiz-adv-x="1449" d="M156 383q31 168 98 248q80 100 231 100q92 0 191 -53q86 -51 170 -105q53 -33 84 -32q137 0 182 186l166 -59q-11 -132 -107 -224q-113 -109 -231 -108q-88 0 -229.5 107.5t-214.5 107.5q-94 0 -129 -96q0 -4 -27 -131z" />
<glyph unicode="&#xa1;" horiz-adv-x="546" d="M154 1038q0 47 32.5 81t79.5 34t81 -34t34 -81t-34 -80.5t-81 -33.5t-79.5 33.5t-32.5 80.5zM184 18v484l23 305h123l20 -305v-484h-166z" />
<glyph unicode="&#xa2;" d="M135 846q0 -18 12 -35l414 -549l412 549q14 16 14 35q0 22 -29 22h-14l-219 -45v434h-328v-434l-221 45h-14q-27 0 -27 -22z" />
<glyph unicode="&#xa3;" d="M154 670l231 -232l307 307l125 -188q23 -35 45 -12q12 12 15 33l96 679l-680 -96q-20 -4 -33 -14q-23 -22 12 -45l189 -125z" />
<glyph unicode="&#xa4;" d="M164 1257l680 -96q20 -4 33 -14q22 -22 -13 -45l-188 -125l307 -307l-231 -232l-308 307l-125 -188q-23 -35 -45 -12q-12 12 -14 33z" />
<glyph unicode="&#xa5;" d="M154 987l231 232l307 -308l125 189q23 35 45 12q12 -12 15 -33l96 -680l-680 97q-20 2 -33 14q-23 22 12 45l189 125z" />
<glyph unicode="&#xa6;" d="M164 350l680 99q20 2 33 14q22 22 -13 45l-188 125l307 307l-231 231l-308 -307l-125 187q-23 37 -45 14q-12 -12 -14 -33z" />
<glyph unicode="&#xa7;" d="M135 705q0 16 12 34l414 549l412 -549q14 -18 14 -34q0 -25 -29 -25q-6 0 -14 2l-219 45v-434h-328v434l-221 -45q-8 -2 -14 -2q-27 0 -27 25z" />
<glyph unicode="&#xa8;" horiz-adv-x="1193" d="M299 1120q0 47 34 81t81 34t79.5 -34t32.5 -81t-32.5 -80.5t-79.5 -33.5t-81 33.5t-34 80.5zM694 1120q0 47 34 81t81 34t81 -34t34 -81t-34 -80.5t-81 -33.5t-81 33.5t-34 80.5z" />
<glyph unicode="&#xa9;" horiz-adv-x="1435" d="M236 631l548 413q16 12 35 13q25 0 25 -27q0 -6 -2 -14l-45 -221h434v-328h-434l45 -219q2 -8 2 -15q0 -27 -25 -26q-18 0 -35 12z" />
<glyph unicode="&#xaa;" horiz-adv-x="1441" d="M221 467v328h434l-45 221v14q0 27 23 27q18 0 35 -13l549 -413l-549 -412q-16 -12 -35 -12q-23 0 -23 26v15l45 219h-434z" />
<glyph unicode="&#xad;" horiz-adv-x="690" d="M51 367v163h486v-163h-486z" />
<glyph unicode="&#xaf;" horiz-adv-x="856" d="M178 973v223h506v-223h-506z" />
<glyph unicode="&#xb0;" horiz-adv-x="874" d="M164 836q0 131 72 229q78 106 200 106q123 0 201 -106q70 -96 70 -229q0 -131 -72 -228q-78 -106 -199 -106q-123 0 -200 106q-72 96 -72 228zM256 836q0 -80 48 -143.5t132 -63.5q82 0 131 63.5t49 143.5q0 82 -47 141q-51 67 -133 67q-84 0 -135 -67q-45 -59 -45 -141z " />
<glyph unicode="&#xbf;" horiz-adv-x="999" d="M131 322q0 119 41 184q27 41 96 90q41 29 113 98q49 68 59 178h195v-16q2 -131 -43 -209q-37 -63 -143 -149q-98 -78 -99 -164q0 -121 142 -121q63 0 142 28.5t128 73.5l100 -157q-122 -138 -366 -138q-158 0 -256 74q-109 80 -109 228zM426 1079q0 47 33 81t80 34 t80.5 -34t33.5 -81t-33.5 -80.5t-80.5 -33.5t-80 33.5t-33 80.5z" />
<glyph unicode="&#xc0;" horiz-adv-x="1296" d="M125 14l405 1135h246l406 -1135h-242l-80 242h-405l-80 -242h-250zM428 1602h137l131 -353h-71zM506 414h303l-152 454z" />
<glyph unicode="&#xc1;" horiz-adv-x="1308" d="M125 14l405 1135h246l406 -1135h-242l-80 242h-405l-80 -242h-250zM506 414h303l-152 454zM522 1253h72l197 353h-138z" />
<glyph unicode="&#xc2;" horiz-adv-x="1316" d="M127 14l408 1135h245l406 -1135h-242l-80 242h-405l-82 -242h-250zM418 1241l188 354h135l189 -354h-103l-155 283l-154 -283h-100zM510 414h301l-149 454z" />
<glyph unicode="&#xc3;" horiz-adv-x="1318" d="M123 14l405 1135h246l408 -1135h-242l-82 242h-403l-82 -242h-250zM350 1337q59 111 168 111q41 0 116 -25.5t116 -25.5q86 0 114 63l70 -51q-14 -43 -43 -57.5t-61.5 -26.5t-65.5 -12q-41 0 -111 24q-76 27 -104 27q-66 0 -125 -74zM504 414h303l-152 454z" />
<glyph unicode="&#xc4;" horiz-adv-x="1333" d="M96 14l408 1135h246l405 -1135h-242l-79 242h-406l-82 -242h-250zM319 1386q0 47 34 80t81 33t80 -32.5t33 -80.5q0 -49 -33 -81.5t-80 -32.5t-81 32.5t-34 81.5zM479 414h301l-149 454zM715 1386q0 47 33.5 80t80.5 33t81 -32.5t34 -80.5q0 -49 -34 -81.5t-81 -32.5 t-80.5 32.5t-33.5 81.5z" />
<glyph unicode="&#xc5;" horiz-adv-x="1411" d="M125 14l405 1088q-80 88 -79 155q0 94 67.5 149.5t167.5 55.5t169 -55t69 -150q0 -68 -80 -155l405 -1088h-276l-64 236h-452l-64 -236h-268zM508 401h348l-174 478zM545 1264q0 -63 40 -104.5t101 -41.5q63 0 102 42t39 104q0 61 -39 102t-102 41q-61 0 -101 -41 t-40 -102z" />
<glyph unicode="&#xc6;" horiz-adv-x="1863" d="M100 14l471 1135h1164v-205h-568v-233h527v-205h-527v-287h568v-205h-811v326h-418l-133 -326h-273zM590 541h334v415h-154z" />
<glyph unicode="&#xc7;" horiz-adv-x="1282" d="M115 582q0 270 152.5 424.5t422.5 154.5q319 0 469 -207l-203 -112q-94 115 -266 114q-166 0 -252 -110q-76 -98 -76 -264q0 -162 80 -263q86 -113 248 -112q150 0 238 84l215 -98q-117 -145 -334 -185v-33q4 -270 -279 -270q-66 0 -137 14l66 101q41 -8 78 -8 q168 0 165 188q-258 4 -422.5 169t-164.5 413z" />
<glyph unicode="&#xc8;" horiz-adv-x="1019" d="M135 14v1135h750v-168h-531v-270h326v-168h-326v-361h531v-168h-750zM373 1602h137l131 -353h-72z" />
<glyph unicode="&#xc9;" horiz-adv-x="1042" d="M154 14v1135h749v-168h-530v-270h323v-168h-323v-361h530v-168h-749zM420 1253h72l196 353h-139z" />
<glyph unicode="&#xca;" horiz-adv-x="1032" d="M141 14v1135h750v-168h-531v-270h324v-168h-324v-361h531v-168h-750zM242 1249l188 353h133l189 -353h-103l-155 281l-154 -281h-98z" />
<glyph unicode="&#xcb;" horiz-adv-x="1036" d="M143 14v1135h750v-168h-531v-270h324v-168h-324v-361h531v-168h-750zM217 1386q0 47 34 80t81 33t79.5 -32.5t32.5 -80.5q0 -49 -32.5 -81.5t-79.5 -32.5t-81 32.5t-34 81.5zM614 1386q0 47 33 80t80 33t81 -32.5t34 -80.5q0 -49 -34 -81.5t-81 -32.5t-80 32.5t-33 81.5z " />
<glyph unicode="&#xcc;" horiz-adv-x="575" d="M137 1602h137l132 -353h-74zM176 14v1135h207v-1135h-207z" />
<glyph unicode="&#xcd;" horiz-adv-x="548" d="M154 1253h71l197 353h-139zM170 14v1135h207v-1135h-207z" />
<glyph unicode="&#xce;" horiz-adv-x="698" d="M109 1249l188 353h135l189 -353h-103l-156 281l-153 -281h-100zM248 14v1135h207v-1135h-207z" />
<glyph unicode="&#xcf;" horiz-adv-x="677" d="M20 1386q0 47 33 80t80 33t81 -32.5t34 -80.5q0 -49 -34 -81.5t-81 -32.5t-80 32.5t-33 81.5zM225 14v1135h209v-1135h-209zM416 1386q0 47 33.5 80t80.5 33t81 -32.5t34 -80.5q0 -49 -34 -81.5t-81 -32.5t-80.5 32.5t-33.5 81.5z" />
<glyph unicode="&#xd0;" horiz-adv-x="1427" d="M117 487v197h129v465h395q301 0 471 -133q186 -147 186 -436q0 -285 -194 -433q-174 -133 -473 -133h-385v473h-129zM483 229h113q455 0 455 355q0 223 -133 297q-91 53 -322 53h-113v-250h254v-197h-254v-258z" />
<glyph unicode="&#xd1;" horiz-adv-x="1333" d="M156 14v1135h305l463 -719v719h225v-1135h-236l-532 858v-858h-225zM371 1337q59 111 168 111q39 0 114.5 -25.5t116.5 -25.5q86 0 115 63l67 -51q-12 -43 -39 -59q-33 -12 -64.5 -24.5t-64.5 -12.5q-43 0 -112 24q-76 27 -105 27q-63 0 -125 -74z" />
<glyph unicode="&#xd2;" horiz-adv-x="1349" d="M129 582q0 268 145.5 423.5t411.5 155.5q264 0 411.5 -156.5t147.5 -422.5q0 -270 -146.5 -425t-412.5 -155q-260 0 -408.5 157.5t-148.5 422.5zM377 582q0 -195 79 -289t230 -94q162 0 240 106q70 94 69 277q0 178 -65 272q-78 111 -244 111q-170 0 -248 -117 q-61 -94 -61 -266zM489 1602h140l129 -353h-72z" />
<glyph unicode="&#xd3;" horiz-adv-x="1363" d="M123 582q0 268 145.5 423.5t411.5 155.5t412.5 -156.5t146.5 -422.5q0 -270 -146.5 -425t-412.5 -155q-260 0 -408.5 157.5t-148.5 422.5zM371 582q0 -195 78.5 -289t232.5 -94q160 0 238 106q70 94 69 277q0 178 -65 272q-76 111 -242 111q-172 0 -250 -117 q-61 -94 -61 -266zM586 1253h71l197 353h-139z" />
<glyph unicode="&#xd4;" horiz-adv-x="1370" d="M131 582q0 268 146.5 423.5t412.5 155.5q264 0 414 -157q143 -156 143 -422q0 -270 -145.5 -425t-411.5 -155q-262 0 -410.5 157.5t-148.5 422.5zM381 582q0 -195 79 -289t230 -94q162 0 240 106q70 94 69 277q0 178 -65 272q-78 111 -244 111q-172 0 -248 -117 q-61 -94 -61 -266zM434 1249l189 353h135l188 -353h-102l-156 281l-156 -281h-98z" />
<glyph unicode="&#xd5;" horiz-adv-x="1376" d="M135 582q0 268 145.5 423.5t411.5 155.5t412.5 -156.5t146.5 -422.5q0 -270 -143 -424q-150 -156 -416 -156q-260 0 -408.5 157.5t-148.5 422.5zM385 582q0 -195 78 -289t231 -94q160 0 238 106q70 94 69 277q0 178 -65 272q-76 111 -242 111q-172 0 -250 -117 q-59 -94 -59 -266zM410 1337q59 111 168 111q39 0 114.5 -25.5t116.5 -25.5q86 0 115 63l67 -51q-12 -43 -39 -59q-33 -12 -64.5 -24.5t-64.5 -12.5q-43 0 -112 24q-76 27 -105 27q-63 0 -125 -74z" />
<glyph unicode="&#xd6;" horiz-adv-x="1380" d="M137 582q0 268 145.5 423.5t411.5 155.5t412.5 -156.5t146.5 -422.5q0 -270 -145.5 -425t-413.5 -155q-260 0 -408.5 157.5t-148.5 422.5zM369 1386q0 47 33.5 80t80.5 33t81 -32.5t34 -80.5q0 -49 -34 -81.5t-81 -32.5t-80.5 32.5t-33.5 81.5zM387 582q0 -195 78 -289 t231 -94q160 0 238 106q70 94 70 277q0 178 -66 272q-76 111 -242 111q-172 0 -250 -117q-59 -94 -59 -266zM766 1386q0 47 32.5 80t80.5 33q49 0 81.5 -32.5t32.5 -80.5q0 -49 -32.5 -81.5t-81.5 -32.5q-47 0 -80 32.5t-33 81.5z" />
<glyph unicode="&#xd7;" horiz-adv-x="1185" d="M158 164l338 358l-338 361l98 104l336 -360l338 360l98 -104l-338 -361l338 -358l-98 -105l-338 359l-336 -359z" />
<glyph unicode="&#xd8;" horiz-adv-x="1409" d="M160 582q0 268 145.5 423.5t411.5 155.5q117 0 231 -37l35 72h158l-70 -139q205 -164 205 -475q0 -270 -146.5 -426t-412.5 -156q-80 0 -166 20l-10 -18h-154l35 68q-262 160 -262 512zM408 582q0 -205 108 -322l340 680q-73 25 -139 25q-309 0 -309 -383zM643 203 q51 -4 74 -4q309 0 309 383q0 143 -59 268z" />
<glyph unicode="&#xd9;" horiz-adv-x="1292" d="M147 461v688h234v-653q0 -276 250 -277q252 0 252 277v653h231v-686q0 -221 -129 -337t-354 -116t-354.5 116t-129.5 335zM463 1602h137l131 -353h-72z" />
<glyph unicode="&#xda;" horiz-adv-x="1388" d="M197 461v688h231v-653q0 -276 252 -277q252 0 252 277v653h231v-686q0 -221 -129 -337t-354 -116t-354 116t-129 335zM582 1253h71l197 353h-137z" />
<glyph unicode="&#xdb;" horiz-adv-x="1298" d="M152 461v688h231v-653q0 -276 252 -277q252 0 252 277v653h231v-686q0 -221 -129 -337t-354 -116t-354 116t-129 335zM391 1249l189 353h135l188 -353h-102l-156 281l-153 -281h-101z" />
<glyph unicode="&#xdc;" horiz-adv-x="1265" d="M158 461v688h231v-653q0 -276 250 -277q252 0 252 277v653h231v-686q0 -221 -128 -337t-355 -116q-225 0 -350 113q-131 119 -131 338zM326 1386q0 47 33.5 80t80.5 33t81 -32.5t34 -80.5q0 -49 -34 -81.5t-81 -32.5t-80.5 32.5t-33.5 81.5zM723 1386q0 47 34 80t81 33 t80.5 -32.5t33.5 -80.5q0 -49 -33.5 -81.5t-80.5 -32.5t-81 32.5t-34 81.5z" />
<glyph unicode="&#xdd;" horiz-adv-x="1394" d="M162 1149h264l274 -504l267 504h252l-408 -694v-441h-233v426zM557 1253h72l196 353h-139z" />
<glyph unicode="&#xde;" horiz-adv-x="1114" d="M137 14v1135h228v-180h217q438 0 438 -348q0 -186 -129 -295q-123 -101 -318 -101h-208v-211h-228zM365 422h108q154 0 211 24q98 39 98 168q0 109 -133 144q-57 14 -196 14h-88v-350z" />
<glyph unicode="&#xdf;" horiz-adv-x="1191" d="M158 16v811q0 184 106.5 280.5t294.5 96.5q260 0 371 -168q41 -61 41 -127q0 -156 -256 -245q350 -96 350 -304q0 -109 -79.5 -195.5t-190.5 -123.5q-57 -20 -150 -25q-78 -6 -84 -6q-18 0 -35 2v158h99q92 0 155.5 56.5t63.5 148.5q0 168 -283 196v154q82 18 119 41 q63 41 63 129q0 68 -65 100q-51 25 -123 25q-190 0 -190 -168v-836h-207z" />
<glyph unicode="&#xe0;" horiz-adv-x="1073" d="M145 305q0 154 107 236q96 74 258 73q106 0 219 -61q-4 217 -209 217q-109 0 -184 -53l-68 119q102 88 283 88q160 0 262 -72q117 -82 117 -234v-600h-201v72q-152 -78 -278 -78q-145 0 -225.5 76t-80.5 217zM352 311q0 -66 64 -100q51 -27 125 -27q35 0 106 29 q80 31 80 55v111q0 29 -52 55.5t-110 26.5q-213 0 -213 -150zM373 1335h139l129 -352h-72z" />
<glyph unicode="&#xe1;" horiz-adv-x="1062" d="M135 305q0 154 107 236q96 74 258 73q106 0 219 -61q-4 217 -209 217q-109 0 -184 -53l-66 119q100 88 281 88q160 0 262 -72q117 -82 117 -234v-600h-201v72q-150 -78 -279 -78q-145 0 -225 76t-80 217zM342 311q0 -66 66 -100q51 -27 122 -27q35 0 107 29q80 31 80 55 v111q0 29 -52.5 55.5t-109.5 26.5q-213 0 -213 -150zM496 983h73l195 352h-137z" />
<glyph unicode="&#xe2;" horiz-adv-x="1105" d="M162 305q0 154 106 236q96 74 258 73q106 0 219 -61q-4 217 -208 217q-109 0 -185 -53l-65 119q102 88 282 88q158 0 260 -72q117 -82 117 -234v-600h-201v72q-150 -78 -278 -78q-143 0 -224 76t-81 217zM344 983l188 352h136l188 -352h-102l-156 283l-154 -283h-100z M369 311q0 -66 65 -100q51 -27 123 -27q35 0 107 29q80 31 79 55v111q0 29 -52 55.5t-109 26.5q-213 0 -213 -150z" />
<glyph unicode="&#xe3;" horiz-adv-x="1142" d="M170 305q0 154 106 236q96 74 259 73q106 0 219 -61q-2 217 -207 217q-111 0 -185 -53l-67 119q102 88 283 88q160 0 262 -72q117 -82 116 -234v-600h-202v72q-150 -78 -279 -78q-143 0 -224 76t-81 217zM315 1071q59 111 168 111q39 0 115 -26t117 -26q86 0 114 64 l70 -51q-14 -43 -43 -57.5t-61.5 -26.5t-65.5 -12q-41 0 -111 24q-76 27 -104 27q-66 0 -125 -74zM377 311q0 -66 65 -100q51 -27 123 -27q35 0 111 30t76 54v111q0 29 -52.5 55.5t-109.5 26.5q-213 0 -213 -150z" />
<glyph unicode="&#xe4;" horiz-adv-x="1114" d="M158 305q0 154 106 236q96 74 258 73q106 0 219 -61q-2 217 -206 217q-111 0 -187 -53l-65 119q102 88 282 88q160 0 262 -72q117 -82 117 -234v-600h-203v72q-150 -78 -278 -78q-143 0 -224 76t-81 217zM242 1120q0 47 32.5 80t81.5 33q47 0 80 -33t33 -80t-33 -80.5 t-80 -33.5q-49 0 -81.5 33.5t-32.5 80.5zM365 311q0 -66 65 -100q51 -27 123 -27q35 0 106 29q80 31 80 55v111q0 29 -52 55.5t-109 26.5q-213 0 -213 -150zM637 1120q0 47 34 80t81 33t80.5 -33t33.5 -80t-33.5 -80.5t-80.5 -33.5t-81 33.5t-34 80.5z" />
<glyph unicode="&#xe5;" horiz-adv-x="1101" d="M143 311q0 154 107 236q96 72 260 71q117 0 227 -51q-43 197 -217 197q-100 0 -182 -51l-70 141q45 47 181 78q-96 88 -97 176q0 88 60.5 147.5t148.5 59.5t147.5 -59.5t59.5 -147.5q0 -121 -96 -186q258 -88 258 -304v-600h-201v72q-152 -78 -278 -78q-143 0 -225.5 79 t-82.5 220zM352 311q0 -66 64 -100q51 -27 125 -27q45 0 106 21q82 27 82 63v140q0 18 -76 38q-61 14 -88 15q-213 0 -213 -150zM420 1108q0 -61 39 -104t102 -43q61 0 100 43t39 104q0 59 -39 103t-100 44q-63 0 -102 -43t-39 -104z" />
<glyph unicode="&#xe6;" horiz-adv-x="1755" d="M145 311q0 154 109 236q96 72 258 71q117 0 227 -51q-41 197 -215 197q-102 0 -182 -51l-72 141q82 82 269 82q205 0 327 -123q127 100 308 100q209 0 321 -176q82 -129 84 -379h-643q-2 -74 61 -129q49 -43 109 -53q29 -4 61 -4q117 0 172 49l144 -106 q-106 -117 -330 -117q-96 0 -168 37q-55 27 -154 110q-39 -33 -114 -92q-2 -2 -31 -14q-98 -41 -205 -41q-152 0 -244 83t-92 230zM354 311q0 -66 66 -100q51 -27 123 -27q45 0 108 21q80 27 80 63v84q0 10 -3 35t-3 39q-51 35 -158 35q-213 0 -213 -150zM934 512h440 q0 104 -61.5 170t-153.5 66q-90 0 -157.5 -66t-67.5 -170z" />
<glyph unicode="&#xe7;" horiz-adv-x="1017" d="M129 451q0 195 125 323.5t317 128.5q170 0 291 -104l-153 -115q-53 41 -138 41q-117 0 -174 -88q-49 -74 -49 -188q0 -272 225 -273q96 0 150 49l170 -102q-84 -86 -229 -117q2 -35 2 -51q0 -238 -275 -238q-41 0 -84 7l39 96q18 -4 41 -4q76 0 127 46t51 136 q-209 8 -325 133q-111 119 -111 320z" />
<glyph unicode="&#xe8;" horiz-adv-x="1169" d="M172 444q0 217 117 343t332 126q207 0 321 -176q82 -129 84 -379h-643q-2 -74 61 -129q49 -43 109 -53q29 -4 61 -4q100 0 162 61l144 -106q-115 -129 -306 -129q-201 0 -321.5 122t-120.5 324zM381 512h440q0 104 -61.5 170t-153.5 66t-155 -64q-70 -68 -70 -172z M403 1335h138l131 -352h-74z" />
<glyph unicode="&#xe9;" horiz-adv-x="1157" d="M158 444q0 217 116.5 343t331.5 126q209 0 322 -176q84 -129 84 -379h-643q0 -74 61 -129q49 -43 111 -53q27 -4 61 -4q98 0 160 61l143 -106q-115 -129 -305 -129q-201 0 -321.5 122t-120.5 324zM367 512h440q0 104 -61.5 170t-153.5 66q-90 0 -157.5 -66t-67.5 -170z M455 983h71l197 352h-139z" />
<glyph unicode="&#xea;" horiz-adv-x="1153" d="M143 444q0 217 117 343t332 126q207 0 321 -176q82 -129 84 -379h-643q-2 -74 62 -129q49 -43 108 -53q29 -4 62 -4q100 0 162 61l143 -106q-115 -129 -305 -129q-201 0 -322 122t-121 324zM309 983l189 352h135l188 -352h-102l-156 283l-153 -283h-101zM352 512h441 q0 104 -61.5 170t-153.5 66t-156 -64q-70 -68 -70 -172z" />
<glyph unicode="&#xeb;" horiz-adv-x="1155" d="M129 444q0 217 116.5 343t332.5 126q209 0 321 -176q82 -129 84 -379h-643q-2 -74 61 -129q49 -43 109 -53q29 -4 61 -4q100 0 162 61l144 -106q-115 -129 -306 -129q-201 0 -321.5 122t-120.5 324zM260 1120q0 47 34 80t81 33t80.5 -33t33.5 -80t-33.5 -80.5 t-80.5 -33.5t-81 33.5t-34 80.5zM338 512h440q0 104 -61.5 170t-153.5 66q-90 0 -157.5 -66t-67.5 -170zM657 1120q0 47 33 80t80 33t81 -33t34 -80t-34 -80.5t-81 -33.5t-80 33.5t-33 80.5z" />
<glyph unicode="&#xec;" horiz-adv-x="542" d="M104 1335h138l131 -352h-74zM158 14v834h207v-834h-207z" />
<glyph unicode="&#xed;" horiz-adv-x="542" d="M154 14v834h206v-834h-206zM184 983h74l195 352h-138z" />
<glyph unicode="&#xee;" horiz-adv-x="524" d="M94 1032l129 250h121l129 -250h-78l-114 223l-111 -223h-76zM201 14v830h166v-830h-166z" />
<glyph unicode="&#xef;" horiz-adv-x="501" d="M-16 1120q0 47 32.5 80t79.5 33t81 -33t34 -80t-34 -80.5t-81 -33.5t-79.5 33.5t-32.5 80.5zM205 14v836h178v-836h-178zM379 1120q0 47 33.5 80t81.5 33q47 0 80.5 -33t33.5 -80t-33.5 -80.5t-80.5 -33.5t-81 33.5t-34 80.5z" />
<glyph unicode="&#xf0;" horiz-adv-x="1232" d="M170 397q0 172 108.5 275.5t282.5 103.5q47 0 107 -18q29 -8 157 -60q-104 203 -196 303l-248 -102l-35 82l217 84q-82 63 -180 129h244q31 -18 94 -66l162 70l35 -82l-123 -51q125 -150 178 -266q61 -133 61 -287q0 -236 -100 -371q-115 -151 -336 -151 q-199 0 -313.5 106.5t-114.5 300.5zM389 403q0 -115 45 -188q55 -88 172 -88q213 0 213 297q0 43 -8 100q-109 80 -233 80q-188 0 -189 -201z" />
<glyph unicode="&#xf1;" horiz-adv-x="1132" d="M160 14v871h202v-105q129 119 277 119q141 0 227 -84t86 -225v-576h-207v496q0 84 -46 140.5t-132 56.5q-82 0 -143.5 -56.5t-61.5 -140.5v-496h-202zM293 1071q59 111 168 111q41 0 115.5 -26t115.5 -26q86 0 115 64l70 -51q-14 -43 -43 -57.5t-61.5 -26.5t-65.5 -12 q-41 0 -111 24q-76 27 -104 27q-66 0 -125 -74z" />
<glyph unicode="&#xf2;" horiz-adv-x="1155" d="M143 451q0 195 125 323.5t318 128.5t316.5 -129t123.5 -323q0 -203 -119.5 -328t-320.5 -125q-209 0 -326 124t-117 329zM362 449q0 -117 41 -183q55 -90 185 -90q162 0 205 139q14 53 14 134q0 118 -39 184q-57 92 -182 92q-115 0 -172 -84q-51 -74 -52 -192zM418 1335 h137l131 -352h-72z" />
<glyph unicode="&#xf3;" horiz-adv-x="1171" d="M158 451q0 195 125 323.5t317 128.5q193 0 316.5 -129t123.5 -323q0 -203 -119.5 -328t-320.5 -125q-207 0 -324.5 124t-117.5 329zM377 449q0 -117 41 -183q55 -90 184 -90q164 0 205 139q16 53 16 134q0 118 -41 184q-55 92 -182 92q-113 0 -172 -84q-51 -74 -51 -192z M594 983h72l196 352h-137z" />
<glyph unicode="&#xf4;" horiz-adv-x="1175" d="M147 451q0 195 124 323.5t317 128.5q195 0 318.5 -129t123.5 -323q0 -203 -119.5 -328t-322.5 -125q-207 0 -324 124t-117 329zM336 983l188 352h133l189 -352h-101l-155 283l-156 -283h-98zM367 449q0 -117 41 -183q55 -90 182 -90q164 0 205 139q16 53 16 134 q0 118 -41 184q-55 92 -182 92q-113 0 -172 -84q-49 -74 -49 -192z" />
<glyph unicode="&#xf5;" horiz-adv-x="1196" d="M170 451q0 195 125 323.5t317 128.5q195 0 319 -129t124 -323q0 -203 -120 -328t-323 -125q-207 0 -324.5 124t-117.5 329zM332 1071q59 111 168 111q39 0 114.5 -26t116.5 -26q86 0 115 64l67 -51q-12 -43 -39 -60q-33 -12 -64.5 -24t-64.5 -12q-43 0 -112 24 q-76 27 -105 27q-63 0 -125 -74zM389 449q0 -117 41 -183q57 -90 184 -90q164 0 205 139q16 53 17 134q0 118 -41 184q-55 92 -183 92q-113 0 -172 -84q-51 -74 -51 -192z" />
<glyph unicode="&#xf6;" horiz-adv-x="1218" d="M160 451q0 195 125 323.5t317 128.5q193 0 316.5 -129t123.5 -323q0 -203 -119.5 -328t-320.5 -125q-207 0 -324.5 124t-117.5 329zM303 1120q0 47 33 80t80 33q49 0 81.5 -33t32.5 -80t-32.5 -80.5t-81.5 -33.5q-47 0 -80 33.5t-33 80.5zM379 449q0 -117 41 -183 q55 -90 184 -90q164 0 205 139q16 53 16 134q0 118 -41 184q-55 92 -182 92q-113 0 -172 -84q-51 -74 -51 -192zM698 1120q0 47 34 80t81 33t81 -33t34 -80t-34 -80.5t-81 -33.5t-81 33.5t-34 80.5z" />
<glyph unicode="&#xf7;" horiz-adv-x="1193" d="M123 444v156h979v-156h-979zM471 111q0 59 44 102t108 43q63 0 108 -43t45 -102q0 -61 -45 -104.5t-108 -43.5t-107.5 43t-44.5 105zM471 934q0 66 44 111t108 45q63 0 108 -45.5t45 -110.5q0 -63 -45 -109.5t-108 -46.5t-107.5 46t-44.5 110z" />
<glyph unicode="&#xf8;" horiz-adv-x="1173" d="M152 453q0 213 115.5 332.5t326.5 119.5q201 0 321.5 -124t120.5 -328q0 -215 -115.5 -335t-326.5 -120q-209 0 -311 117q-131 147 -131 338zM373 494q0 -82 53 -187l315 348l-49 35q-37 27 -98 27q-100 0 -160.5 -61.5t-60.5 -161.5zM455 244q31 -16 77 -41 q33 -14 64 -15q109 0 170 74q55 68 55 176q0 64 -33 166z" />
<glyph unicode="&#xf9;" horiz-adv-x="1122" d="M178 311v576h207v-494q0 -84 46 -140t132 -56q84 0 144.5 56t60.5 140v494h203v-869h-203v103q-129 -117 -276 -117q-141 0 -227.5 83t-86.5 224zM428 1335h137l131 -352h-71z" />
<glyph unicode="&#xfa;" horiz-adv-x="1144" d="M176 311v576h207v-494q0 -84 46 -140t132 -56q84 0 144.5 56t60.5 140v494h205v-869h-205v103q-129 -117 -277 -117q-141 0 -227 83t-86 224zM502 983h71l197 352h-137z" />
<glyph unicode="&#xfb;" horiz-adv-x="1095" d="M156 311v576h204v-494q0 -84 47.5 -140t131.5 -56t144 56t60 140v494h205v-869h-205v103q-127 -117 -274 -117q-141 0 -227 83t-86 224zM307 983l189 352h135l188 -352h-102l-156 283l-155 -283h-99z" />
<glyph unicode="&#xfc;" horiz-adv-x="1093" d="M143 311v576h207v-494q0 -84 46 -140t132 -56q82 0 142.5 56t60.5 140v494h205v-869h-205v103q-127 -117 -274 -117q-141 0 -227.5 83t-86.5 224zM227 1120q0 47 34 80t81 33t81 -33t34 -80t-34 -80.5t-81 -33.5t-81 33.5t-34 80.5zM625 1120q0 47 32.5 80t81.5 33 q47 0 80 -33t33 -80t-33 -80.5t-80 -33.5q-49 0 -81.5 33.5t-32.5 80.5z" />
<glyph unicode="&#xfd;" horiz-adv-x="1216" d="M162 887h250l231 -608l240 608h217l-490 -1241h-231l141 356zM502 983h71l197 352h-137z" />
<glyph unicode="&#xfe;" horiz-adv-x="1118" d="M143 -279v1475h207v-489q113 158 248 157q164 0 270.5 -116.5t106.5 -284.5q0 -178 -92 -301q-101 -137 -267 -137q-156 0 -266 96v-400h-207zM350 436q0 -90 65.5 -164.5t157.5 -74.5t158 74.5t66 164.5q0 92 -66 167t-158 75t-157.5 -75t-65.5 -167z" />
<glyph unicode="&#xff;" horiz-adv-x="1198" d="M145 887h250l232 -608l239 608h217l-489 -1241h-232l142 356zM315 1120q0 47 34 80t81 33t81 -33t34 -80t-34 -80.5t-81 -33.5t-81 33.5t-34 80.5zM713 1120q0 47 32.5 80t79.5 33t81 -33t34 -80t-34 -80.5t-81 -33.5t-79.5 33.5t-32.5 80.5z" />
<glyph unicode="&#x2c6;" horiz-adv-x="1179" d="M369 983l188 352h135l189 -352h-103l-155 283l-154 -283h-100z" />
<glyph unicode="&#x2dc;" horiz-adv-x="1204" d="M342 1071q59 111 168 111q39 0 114.5 -26t116.5 -26q86 0 115 64l68 -51q-12 -43 -39 -60q-33 -12 -64.5 -24t-64.5 -12q-43 0 -113 24q-76 27 -104 27q-63 0 -125 -74z" />
<glyph unicode="&#x2000;" horiz-adv-x="803" />
<glyph unicode="&#x2001;" horiz-adv-x="1606" />
<glyph unicode="&#x2002;" horiz-adv-x="803" />
<glyph unicode="&#x2003;" horiz-adv-x="1606" />
<glyph unicode="&#x2004;" horiz-adv-x="535" />
<glyph unicode="&#x2005;" horiz-adv-x="401" />
<glyph unicode="&#x2006;" horiz-adv-x="267" />
<glyph unicode="&#x2007;" horiz-adv-x="267" />
<glyph unicode="&#x2008;" horiz-adv-x="200" />
<glyph unicode="&#x2009;" horiz-adv-x="321" />
<glyph unicode="&#x200a;" horiz-adv-x="89" />
<glyph unicode="&#x2010;" horiz-adv-x="690" d="M51 367v163h486v-163h-486z" />
<glyph unicode="&#x2011;" horiz-adv-x="690" d="M51 367v163h486v-163h-486z" />
<glyph unicode="&#x2012;" horiz-adv-x="690" d="M51 367v163h486v-163h-486z" />
<glyph unicode="&#x2013;" horiz-adv-x="1228" d="M51 367v163h1024v-163h-1024z" />
<glyph unicode="&#x2014;" horiz-adv-x="2252" d="M51 367v163h2048v-163h-2048z" />
<glyph unicode="&#x2018;" horiz-adv-x="493" d="M158 1020q0 104 43 170q49 74 139 82v-10q-94 -14 -102 -129l34 2q45 0 79 -34t34 -81t-34 -81t-81 -34t-79.5 34t-32.5 81z" />
<glyph unicode="&#x2019;" horiz-adv-x="491" d="M133 1081q0 49 34 82t81 33t80.5 -33t33.5 -82q0 -102 -45 -170q-47 -74 -139 -82v11q94 14 103 129h-33q-47 -2 -81 31.5t-34 80.5z" />
<glyph unicode="&#x201a;" horiz-adv-x="499" d="M129 -125l88 492h139l-163 -492h-64z" />
<glyph unicode="&#x201c;" horiz-adv-x="821" d="M137 1020q0 104 45 170q49 74 140 82v-10q-94 -14 -103 -129l33 2q47 0 81 -34t34 -81t-34 -81t-81 -34t-81 34t-34 81zM479 1020q0 104 45 170q49 74 140 82v-10q-94 -14 -103 -129l35 2q45 0 79 -34t34 -81t-34 -81t-81 -34t-81 34t-34 81z" />
<glyph unicode="&#x201d;" horiz-adv-x="790" d="M119 1081q0 49 33.5 82t80.5 33t81 -33t34 -82q0 -102 -45 -170q-47 -74 -139 -82v11q94 14 102 129h-33q-47 -2 -80.5 31.5t-33.5 80.5zM463 1081q0 49 32.5 82t79.5 33t81 -33t34 -82q0 -102 -45 -170q-47 -74 -139 -82l2 11q92 14 100 129h-33q-47 -2 -79.5 31.5 t-32.5 80.5z" />
<glyph unicode="&#x2026;" horiz-adv-x="1263" d="M172 129q0 47 33 81t80 34t80.5 -34t33.5 -81t-33.5 -81t-80.5 -34t-80 34t-33 81zM532 129q0 47 33 81t80 34t81 -34t34 -81t-34 -81t-81 -34t-80 34t-33 81zM893 129q0 47 32.5 81t80.5 34q47 0 80.5 -34t33.5 -81t-33.5 -81t-80.5 -34t-80 34t-33 81z" />
<glyph unicode="&#x202f;" horiz-adv-x="321" />
<glyph unicode="&#x205f;" horiz-adv-x="401" />
<glyph unicode="&#xe000;" horiz-adv-x="819" d="M0 0v819h819v-819h-819z" />
</font>
</defs>
</svg>
