<?xml version="1.0" standalone="no"?>
<!DOCTYPE svg PUBLIC "-//W3C//DTD SVG 1.1//EN" "http://www.w3.org/Graphics/SVG/1.1/DTD/svg11.dtd" >
<svg xmlns="http://www.w3.org/2000/svg">
<metadata></metadata>
<defs>
<font id="engschriftdindregular" horiz-adv-x="735" >
<font-face units-per-em="2048" ascent="1366" descent="-682" />
<missing-glyph horiz-adv-x="409" />
<glyph unicode="&#xfb01;" horiz-adv-x="808" d="M27 819v156h96v135q0 115 76 188q40 38 82.5 53t113.5 15h68v-180h-72q-72 0 -72 -76v-135h144v-156h-144v-819h-196v819h-96zM530 0v975h195v-975h-195zM530 1176v190h195v-190h-195z" />
<glyph unicode="&#xfb02;" horiz-adv-x="835" d="M27 819v156h96v135q0 115 76 188q40 38 82.5 53t113.5 15h68v-180h-72q-72 0 -72 -76v-135h144v-156h-144v-819h-196v819h-96zM530 246v1120h195v-1087q0 -57 15.5 -75t66.5 -18h14v-186h-43q-131 0 -200 84q-28 34 -38 67.5t-10 94.5z" />
<glyph horiz-adv-x="2048" />
<glyph horiz-adv-x="2048" />
<glyph unicode="&#xd;" horiz-adv-x="2048" />
<glyph unicode=" "  horiz-adv-x="409" />
<glyph unicode="&#x09;" horiz-adv-x="409" />
<glyph unicode="&#xa0;" horiz-adv-x="409" />
<glyph unicode="!" horiz-adv-x="378" d="M68 1366h241l-73 -1024h-95zM90 0v195h195v-195h-195z" />
<glyph unicode="&#x22;" horiz-adv-x="565" d="M41 1366h195l-41 -547h-113zM330 1366h194l-41 -547h-112z" />
<glyph unicode="#" horiz-adv-x="1255" d="M68 565l36 109h306l53 157h-305l37 113h305l96 285h141l-96 -285h150l96 285h141l-96 -285h256l-39 -113h-254l-53 -157h254l-37 -109h-254l-107 -317h-143l109 317h-150l-106 -317h-142l107 317h-305zM551 674h149l52 157h-148z" />
<glyph unicode="$" d="M31 340v49h196v-49q0 -76 36 -117t104 -41q38 0 70.5 17t51.5 45q19 34 19 98v94q0 44 -4.5 66.5t-26.5 45t-55 37.5t-103 42q-90 34 -140 68.5t-85 88.5q-28 45 -38.5 85.5t-10.5 105.5v61q0 112 56 195t161 127v131h195v-121q115 -34 180 -122t65 -210v-61h-194v61 q0 67 -36.5 107.5t-98.5 40.5q-60 0 -95.5 -40t-35.5 -108v-61q0 -73 28 -102t138 -70q158 -58 226 -139.5t68 -212.5v-111q0 -99 -27 -162t-93 -117q-55 -46 -125 -63v-129h-195v135q-47 17 -73 32.5t-54 43.5q-104 101 -104 260z" />
<glyph unicode="%" horiz-adv-x="722" d="M68 0l462 1366h123l-456 -1366h-129zM68 1122v103q0 64 42.5 108.5t104.5 44.5t104.5 -44.5t42.5 -108.5v-103q0 -68 -39 -106.5t-106 -38.5q-66 0 -107.5 41t-41.5 104zM166 1135q0 -60 49 -60t49 60v92q0 25 -13 39t-36 14q-49 0 -49 -55v-90zM360 133v92q0 64 43 109 t105 45t104.5 -45t42.5 -109v-92q0 -47 -16 -78q-20 -31 -55.5 -49t-75.5 -18q-63 0 -105.5 41t-42.5 104zM459 133q0 -31 11.5 -45t37.5 -14q49 0 49 59v92q0 26 -13 41t-36 15t-36 -15t-13 -41v-92z" />
<glyph unicode="&#x26;" horiz-adv-x="882" d="M82 324v43q0 153 108 247l-43 60q-47 65 -47 157q0 120 85 204.5t206 84.5q118 0 203.5 -83t85.5 -197q0 -177 -186 -265l-35 -16l139 -201v93h195v-84q0 -65 -13 -113t-45 -102l107 -152h-234l-20 29q-79 -49 -176 -49q-72 0 -140.5 33t-115.5 91q-42 51 -58 99t-16 121 zM281 324q0 -53 9.5 -79.5t37.5 -51.5q40 -29 88 -29q28 0 67 16l-184 271q-18 -35 -18 -84v-43zM291 840q0 -34 24 -70l43 -63l64 30q67 34 67 99q0 47 -27.5 77.5t-70.5 30.5t-71.5 -30t-28.5 -74z" />
<glyph unicode="'" horiz-adv-x="276" d="M41 1366h195l-41 -547h-113z" />
<glyph unicode="(" horiz-adv-x="475" d="M109 698q0 407 217 766h65q-88 -344 -88 -751q0 -427 105 -809h-68q-112 166 -171.5 372t-59.5 422z" />
<glyph unicode=")" horiz-adv-x="475" d="M68 -96q49 176 76.5 390t27.5 419q0 402 -90 751h68q217 -358 217 -766q0 -216 -60 -420.5t-172 -373.5h-67z" />
<glyph unicode="*" horiz-adv-x="567" d="M55 1163l31 88l152 -45v160h94v-160l151 45l31 -88l-141 -51l86 -123l-86 -57l-82 133l-86 -133l-84 57l84 123z" />
<glyph unicode="+" horiz-adv-x="665" d="M41 440v195h195v194h194v-194h195v-195h-195v-194h-194v194h-195z" />
<glyph unicode="," horiz-adv-x="276" d="M41 -145v340h195v-195z" />
<glyph unicode="-" horiz-adv-x="612" d="M14 440v195h584v-195h-584z" />
<glyph unicode="." horiz-adv-x="276" d="M41 0v195h195v-195h-195z" />
<glyph unicode="/" horiz-adv-x="425" d="M14 0l265 1366h135l-264 -1366h-136z" />
<glyph unicode="0" d="M76 301v772q0 77 21.5 131t72.5 99q84 75 199 75q78 0 146 -38.5t108 -104.5q21 -36 28.5 -70t7.5 -92v-772q0 -69 -12.5 -112t-46.5 -87q-41 -53 -102.5 -83.5t-126.5 -30.5q-123 0 -209 91t-86 222zM270 301q0 -56 26 -86.5t73 -30.5q31 0 61 23q20 17 27.5 36.5 t7.5 57.5v772q0 53 -26 83t-72 30q-43 0 -70 -31t-27 -82v-772z" />
<glyph unicode="1" d="M125 1016v207l194 143h195v-1366h-195v1161z" />
<glyph unicode="2" d="M74 975v98q5 95 37 152q38 71 107.5 112t150.5 41q121 0 205.5 -84.5t84.5 -206.5v-126q0 -31 -13.5 -79.5t-33.5 -86.5l-307 -600h354v-195h-581v180l362 705q14 31 18.5 49t4.5 51v102q0 41 -28 70t-68 29q-55 0 -82 -45q-10 -15 -12.5 -25.5t-2.5 -42.5v-98h-196z" />
<glyph unicode="3" d="M66 313v80h194v-63q0 -60 8.5 -84t36.5 -43q27 -17 57 -17q46 0 70.5 33t24.5 94v213q0 52 -33 76q-20 17 -34.5 21t-57.5 4h-35v170h35q41 0 58 4.5t36 19.5q18 18 24.5 36.5t6.5 53.5v164q0 52 -26 81.5t-71 29.5q-54 0 -84 -41q-16 -21 -16 -70v-100h-194v100 q0 131 82.5 217t209.5 86t209 -85.5t82 -217.5v-160q0 -73 -25.5 -118.5t-88.5 -83.5q69 -47 91.5 -89.5t22.5 -125.5v-185q0 -70 -7 -101.5t-32 -74.5q-38 -68 -106 -108.5t-144 -40.5q-66 0 -127 29.5t-104 80.5q-34 43 -48.5 92.5t-14.5 122.5z" />
<glyph unicode="4" d="M27 209v182l282 975h207l-293 -975h195v389h194v-389h95v-182h-95v-209h-194v209h-391z" />
<glyph unicode="5" d="M76 307v35h196v-35q0 -51 13 -74q12 -22 35 -35.5t49 -13.5q55 0 80 43q10 13 13 31.5t3 63.5v266q0 45 -8.5 66t-34.5 38q-27 17 -55 17q-70 0 -95 -72h-172v729h559v-180h-387v-367q76 62 158 62q89 0 158 -66q38 -35 54.5 -81.5t16.5 -117.5v-309q0 -78 -12 -120.5 t-47 -84.5q-41 -53 -103.5 -83.5t-127.5 -30.5q-69 0 -136.5 35t-105.5 92q-51 73 -51 192z" />
<glyph unicode="6" d="M74 303v215q0 57 3.5 76.5t26.5 79.5l256 692h222l-222 -573q47 16 80 16q98 0 168 -76q29 -32 40 -68t11 -100v-262q0 -84 -19.5 -133.5t-70.5 -99.5q-88 -82 -202 -82q-75 0 -142.5 37.5t-107.5 101.5q-25 39 -34 77.5t-9 98.5zM270 303q0 -55 27 -86t74 -31 q37 0 67 27q17 17 22 33.5t5 56.5v215q0 57 -26 88t-72 31q-30 0 -60 -23q-23 -19 -30 -37t-7 -59v-215z" />
<glyph unicode="7" d="M82 1024v342h584v-178l-320 -1188h-207l332 1184h-217v-160h-172z" />
<glyph unicode="8" d="M76 305v238q0 107 98 180q-55 41 -76.5 85t-21.5 116v186q0 104 88.5 186t202.5 82q121 0 206.5 -85.5t85.5 -207.5v-174q0 -120 -98 -188q52 -37 75 -82t23 -111v-247q0 -123 -84 -209t-204 -86q-80 0 -150 41t-108 110q-22 38 -29.5 73t-7.5 93zM268 305 q0 -121 99 -121q48 0 77 37q19 27 19 84v238q0 50 -25 77t-71 27q-43 0 -71 -29t-28 -75v-238zM268 911q0 -55 26.5 -85.5t72.5 -30.5q96 0 96 116v174q0 44 -27.5 72.5t-68.5 28.5q-43 0 -71 -29t-28 -72v-174z" />
<glyph unicode="9" d="M76 821v279q0 35 15.5 79.5t41.5 80.5q39 56 101 87t133 31q124 0 208 -88t84 -217v-223q0 -49 -5.5 -76.5t-26.5 -83.5l-258 -690h-224l230 575q-47 -12 -82 -12q-104 0 -170 82q-29 37 -38 70.5t-9 105.5zM270 850q0 -54 27.5 -85.5t73.5 -31.5q35 0 65 27 q19 19 24 34.5t5 55.5v223q0 53 -26 83t-72 30q-43 0 -70 -31t-27 -82v-223z" />
<glyph unicode=":" horiz-adv-x="276" d="M41 176v195h195v-195h-195zM41 610v195h195v-195h-195z" />
<glyph unicode=";" horiz-adv-x="276" d="M41 342v195h195v-195h-195zM43 -145v340h195v-195z" />
<glyph unicode="&#x3c;" horiz-adv-x="1024" d="M68 631v108l886 408v-125l-751 -338l751 -338v-123z" />
<glyph unicode="=" horiz-adv-x="720" d="M68 301v195h583v-195h-583zM68 608v195h583v-195h-583z" />
<glyph unicode="&#x3e;" horiz-adv-x="1024" d="M70 223v125l751 338l-751 338v123l886 -408v-108z" />
<glyph unicode="?" horiz-adv-x="649" d="M27 975v92q0 134 85 222.5t212 88.5q116 0 200 -84.5t84 -201.5v-117q0 -103 -47 -184l-100 -177q-34 -55 -40.5 -78t-6.5 -85v-109h-197v109q0 85 12.5 131.5t49.5 109.5l102 166q20 33 26.5 58.5t6.5 68.5v107q0 40 -28 66t-69 26q-96 0 -96 -117v-92h-194zM217 0v195 h197v-195h-197z" />
<glyph unicode="@" horiz-adv-x="1454" d="M82 657q0 190 90.5 348t248 249.5t345.5 91.5q168 0 307.5 -74t219 -202.5t79.5 -283.5q0 -237 -174 -380q-126 -107 -250 -107q-56 0 -87 27.5t-50 91.5q-55 -61 -107.5 -88t-115.5 -27q-91 0 -148 67t-57 173q0 120 54.5 233t144 182.5t184.5 69.5q131 0 186 -135 l37 104h109l-178 -454q-19 -52 -19 -88q0 -29 20.5 -47.5t51.5 -18.5q86 0 176 90q121 121 121 299q0 200 -143 334.5t-355 134.5q-160 0 -292 -78t-207.5 -214t-75.5 -300q0 -159 74 -291.5t203 -208t284 -75.5q149 0 283 73.5t200 192.5l102 -6q-31 -69 -66.5 -114.5 t-94.5 -90.5q-190 -151 -428 -151q-138 0 -262.5 53t-214.5 142.5t-142.5 214.5t-52.5 263zM489 528q0 -64 31.5 -101.5t85.5 -37.5q73 0 130 52t91 149l43 125q23 73 23 106q0 51 -34.5 86t-84.5 35q-68 0 -134.5 -60.5t-108.5 -157.5t-42 -196z" />
<glyph unicode="A" horiz-adv-x="780" d="M0 0l305 1366h170l305 -1366h-209l-55 293h-254l-55 -293h-207zM297 475h184l-92 498z" />
<glyph unicode="B" horiz-adv-x="794" d="M109 0v1366h319q57 0 118.5 -26.5t104.5 -69.5q88 -88 88 -223v-107q0 -72 -35.5 -129.5t-101.5 -91.5q72 -43 104.5 -97.5t32.5 -132.5v-157q0 -145 -92.5 -238.5t-236.5 -93.5h-301zM301 195h113q63 0 103 38.5t40 98.5v157q0 66 -39 105t-108 39h-109v-438zM301 805 h117q66 0 102.5 41t36.5 115v86q0 61 -40 99t-105 38h-111v-379z" />
<glyph unicode="C" d="M76 342v705q0 82 25.5 142t82.5 109q89 80 209 80q134 0 225 -95t91 -236v-72h-195v72q0 63 -32 99t-89 36q-55 0 -88 -36.5t-33 -98.5v-705q0 -62 5 -81t28 -42q37 -37 86 -37q32 0 62 16.5t47 43.5q9 18 11.5 33.5t2.5 66.5v47h195v-47q0 -73 -9 -115.5t-34 -83.5 q-41 -70 -116 -112.5t-157 -42.5q-79 0 -155 42.5t-117 110.5q-26 42 -35.5 85.5t-9.5 115.5z" />
<glyph unicode="D" horiz-adv-x="815" d="M109 0v1366h309q136 0 228.5 -90.5t92.5 -224.5v-713q0 -152 -89.5 -245t-237.5 -93h-303zM303 182h96q146 0 146 156v713q0 57 -41 95t-101 38h-100v-1002z" />
<glyph unicode="E" horiz-adv-x="720" d="M109 0v1366h583v-180h-387v-404h340v-184h-340v-401h387v-197h-583z" />
<glyph unicode="F" horiz-adv-x="704" d="M109 0v1366h581v-182h-387v-412h340v-182h-340v-590h-194z" />
<glyph unicode="G" horiz-adv-x="800" d="M76 348v684q0 151 92.5 248.5t234.5 97.5q181 0 277 -147q32 -47 42.5 -87.5t10.5 -111.5v-57h-194v57q0 37 -3 51.5t-12 32.5q-18 31 -50 50.5t-68 19.5q-61 0 -97.5 -41.5t-36.5 -112.5v-684q0 -47 2 -59.5t11 -30.5q18 -33 50.5 -53.5t70.5 -20.5q36 0 67.5 19.5 t50.5 52.5q15 34 15 92v240h-158v170h352v-410q0 -76 -9.5 -117.5t-37.5 -87.5q-46 -73 -118.5 -114t-157.5 -41q-78 0 -152 36.5t-121 98.5q-35 47 -48 94.5t-13 130.5z" />
<glyph unicode="H" horiz-adv-x="851" d="M109 0v1366h194v-584h246v584h194v-1366h-194v610h-246v-610h-194z" />
<glyph unicode="I" horiz-adv-x="413" d="M109 0v1366h194v-1366h-194z" />
<glyph unicode="J" horiz-adv-x="663" d="M0 115l152 121q50 -50 108 -50q55 0 90 35q28 26 35.5 54.5t7.5 107.5v983h195v-1010q0 -82 -10.5 -126t-42.5 -93q-46 -69 -119.5 -109t-153.5 -40q-73 0 -142 33.5t-120 93.5z" />
<glyph unicode="K" horiz-adv-x="839" d="M109 0v1366h196v-629l295 629h193l-267 -545l314 -821h-207l-219 610l-109 -202v-408h-196z" />
<glyph unicode="L" horiz-adv-x="694" d="M109 0v1366h194v-1169h389v-197h-583z" />
<glyph unicode="M" horiz-adv-x="1095" d="M109 0v1366h180l260 -727l256 727h180v-1366h-192v831l-197 -583h-98l-195 583v-831h-194z" />
<glyph unicode="N" horiz-adv-x="901" d="M109 0v1366h184l303 -827v827h195v-1366h-183l-303 829v-829h-196z" />
<glyph unicode="O" horiz-adv-x="808" d="M76 338v696q0 149 93.5 246.5t236.5 97.5q74 0 142 -32t114 -89q38 -47 54.5 -99t16.5 -124v-696q0 -89 -25.5 -151t-84.5 -115q-94 -84 -217 -84q-94 0 -175 50t-122 134q-33 65 -33 166zM270 338q0 -46 9.5 -71t35.5 -48q41 -35 91 -35q34 0 65.5 19t50.5 51 q17 28 17 84v696q0 58 -25 96q-46 56 -106 56q-35 0 -67.5 -18.5t-51.5 -49.5q-19 -34 -19 -84v-696z" />
<glyph unicode="P" horiz-adv-x="755" d="M109 0v1366h321q60 0 119 -24.5t100 -67.5q38 -38 65 -96.5t27 -102.5v-198q0 -82 -21.5 -139.5t-68.5 -104.5q-51 -51 -106.5 -72.5t-138.5 -21.5h-101v-539h-196zM305 723h103q43 0 67.5 8.5t46.5 30.5q24 25 30.5 45t6.5 70v178q0 59 -38 95t-99 36h-117v-463z" />
<glyph unicode="Q" horiz-adv-x="829" d="M76 348v680q0 151 94.5 250.5t237.5 99.5q134 0 230.5 -95.5t96.5 -227.5v-707q0 -61 -4 -89t-16 -56l129 -109l-109 -129l-121 96q-92 -73 -206 -73q-69 0 -138 31t-116 85q-46 53 -62 103t-16 141zM272 348q0 -56 7 -79t32 -46q38 -41 97 -41q23 0 49 13l-88 73 l108 131l62 -51v680q0 70 -36.5 113t-96.5 43q-54 0 -93 -39q-23 -23 -32 -48t-9 -69v-680z" />
<glyph unicode="R" horiz-adv-x="829" d="M109 0v1366h342q135 0 226 -92.5t91 -229.5v-126q0 -101 -37.5 -170t-122.5 -121l209 -627h-209l-182 586h-121v-586h-196zM305 758h135q41 0 66 10t47 35q20 23 26.5 45.5t6.5 69.5v126q0 63 -40 102.5t-104 39.5h-137v-428z" />
<glyph unicode="S" horiz-adv-x="780" d="M55 340v49h197v-49q0 -58 18 -90q40 -68 123 -68q37 0 69.5 17.5t51.5 46.5q18 30 18 96v94q0 58 -12.5 86t-48.5 50t-125 55q-93 36 -142.5 70t-84.5 87q-28 45 -38.5 85.5t-10.5 105.5v61q0 144 95.5 243t233.5 99t233 -98.5t95 -243.5v-61h-195v61q0 67 -36.5 107.5 t-96.5 40.5t-96.5 -41t-36.5 -107v-61q0 -72 28.5 -101.5t137.5 -70.5q158 -59 226.5 -140.5t68.5 -211.5v-111q0 -79 -13.5 -124.5t-51.5 -96.5q-101 -131 -267 -131q-151 0 -245.5 98.5t-94.5 253.5z" />
<glyph unicode="T" horiz-adv-x="643" d="M-6 1184v182h657v-182h-231v-1184h-197v1184h-229z" />
<glyph unicode="U" horiz-adv-x="784" d="M76 322v1044h194v-1044q0 -40 9 -63.5t32 -43.5q36 -31 82 -31q56 0 89.5 38t33.5 100v1044h195v-1044q0 -104 -45 -179q-44 -73 -116.5 -114t-156.5 -41q-86 0 -161.5 44t-116.5 118q-39 74 -39 172z" />
<glyph unicode="V" horiz-adv-x="731" d="M0 1366h205l157 -948l162 948h207l-285 -1366h-167z" />
<glyph unicode="W" horiz-adv-x="1073" d="M0 1366h209l96 -825l158 825h145l160 -825l98 825h207l-192 -1366h-185l-159 831l-158 -831h-180z" />
<glyph unicode="X" horiz-adv-x="755" d="M0 0l281 723l-254 643h204l148 -401l147 401h205l-256 -643l281 -723h-207l-170 463l-172 -463h-207z" />
<glyph unicode="Y" horiz-adv-x="729" d="M0 1366h205l160 -535l159 535h207l-270 -778v-588h-197v588z" />
<glyph unicode="Z" horiz-adv-x="641" d="M27 0v176l366 1008h-340v182h559v-156l-366 -1013h366v-197h-585z" />
<glyph unicode="[" horiz-adv-x="540" d="M109 -307v1714h417v-174h-223v-1366h223v-174h-417z" />
<glyph unicode="\" horiz-adv-x="673" d="M0 1366h123l551 -1642h-127z" />
<glyph unicode="]" horiz-adv-x="540" d="M14 -133h224v1366h-224v174h418v-1714h-418v174z" />
<glyph unicode="^" horiz-adv-x="1024" d="M72 778l368 590h144l366 -590h-178l-260 414l-260 -414h-180z" />
<glyph unicode="_" horiz-adv-x="1024" d="M0 -154h1024v-86h-1024v86z" />
<glyph unicode="`" horiz-adv-x="479" d="M68 1391h186l158 -258h-152z" />
<glyph unicode="a" horiz-adv-x="729" d="M68 223v111q0 109 75 184q41 40 85 55t118 15h111v84q0 60 -19 84q-30 41 -78 41q-37 0 -64.5 -27.5t-31.5 -69.5h-196q3 122 87 204.5t207 82.5q119 0 205 -85t86 -202v-700h-196v98q-67 -110 -183 -110q-54 0 -103 28.5t-77 75.5q-26 48 -26 131zM264 289q0 -47 27 -76 t71 -29q27 0 49.5 12.5t32.5 34.5q9 15 11 30t2 73v94h-74q-119 0 -119 -92v-47z" />
<glyph unicode="b" horiz-adv-x="743" d="M82 0v1366h197v-487q66 108 184 108q94 0 149.5 -61t55.5 -164v-535q0 -65 -7 -93.5t-30 -59.5q-29 -40 -75 -63t-95 -23q-115 0 -182 110v-98h-197zM279 301q0 -53 14 -74q29 -43 84 -43q52 0 82 45q11 15 12.5 26t1.5 64v367q0 49 -26.5 79t-69.5 30q-44 0 -71 -30 t-27 -79v-385z" />
<glyph unicode="c" horiz-adv-x="714" d="M76 301v379q0 127 85.5 217t207.5 90q103 0 183.5 -66t100.5 -167q6 -27 6 -74h-194q0 51 -26.5 83t-69.5 32q-46 0 -72.5 -31t-26.5 -84v-379q0 -57 25.5 -87t71.5 -30q44 0 71 30t27 79h194q1 -129 -83 -217t-207 -88q-69 0 -134.5 34t-105.5 91q-29 40 -41 82.5 t-12 105.5z" />
<glyph unicode="d" horiz-adv-x="741" d="M76 250v526q0 91 60 151t149 60q121 0 182 -104v483h195v-1366h-195v100q-63 -112 -184 -112q-97 0 -164 80q-27 35 -35 68.5t-8 113.5zM272 313q0 -42 5 -59.5t20 -36.5q31 -31 74 -31q40 0 65 25q20 19 25.5 36t5.5 66v351q0 42 -4.5 60t-18.5 36q-29 37 -75 37 q-28 0 -52 -14.5t-34 -39.5q-7 -13 -9 -26t-2 -53v-351z" />
<glyph unicode="e" horiz-adv-x="729" d="M76 317v371q0 125 86 212t209 87q124 0 207.5 -85.5t83.5 -213.5v-270h-390v-101q0 -53 4 -67t23 -35q26 -29 70 -29q41 0 66.5 25.5t31.5 71.5h195v-5q0 -116 -84 -202q-86 -88 -207 -88q-79 0 -149.5 41.5t-108.5 111.5q-22 38 -29.5 74.5t-7.5 101.5zM272 578h195v96 q0 57 -25 89t-71 32q-27 0 -50.5 -13.5t-35.5 -36.5q-13 -21 -13 -71v-96z" />
<glyph unicode="f" horiz-adv-x="505" d="M41 819v156h96v135q0 115 76 188q40 38 83 53t114 15h67v-180h-71q-72 0 -72 -76v-135h143v-156h-143v-819h-197v819h-96z" />
<glyph unicode="g" horiz-adv-x="741" d="M76 -106h196q5 -46 30.5 -72.5t66.5 -26.5q53 0 80 41q11 15 14.5 30.5t3.5 49.5v184q-65 -112 -184 -112q-55 0 -105 29t-78 77q-17 30 -20.5 51t-3.5 86v543q0 92 59 152.5t150 60.5q112 0 182 -104v92h195v-1059q0 -90 -20 -142.5t-73 -99.5q-83 -77 -198 -77 q-123 0 -209 86.5t-86 210.5zM272 305q0 -49 13 -72q29 -47 86 -47q96 0 96 119v371q0 58 -25 89.5t-71 31.5q-38 0 -68 -27q-19 -19 -25 -37t-6 -57v-371z" />
<glyph unicode="h" horiz-adv-x="741" d="M82 0v1366h194v-485q66 106 183 106q52 0 99 -25.5t75 -68.5q33 -49 33 -137v-756h-195v682q0 54 -25 83.5t-71 29.5q-43 0 -71 -32t-28 -81v-682h-194z" />
<glyph unicode="i" horiz-adv-x="358" d="M82 0v975h194v-975h-194zM82 1176v190h194v-190h-194z" />
<glyph unicode="j" horiz-adv-x="380" d="M-14 -203h18q51 0 74.5 30t23.5 93v1055h195v-1071q0 -135 -74.5 -214t-202.5 -79h-34v186zM102 1178v188h195v-188h-195z" />
<glyph unicode="k" horiz-adv-x="763" d="M82 0v1366h194v-813l244 422h197l-232 -387l279 -588h-219l-172 416l-97 -146v-270h-194z" />
<glyph unicode="l" horiz-adv-x="385" d="M82 246v1120h194v-1087q0 -57 15.5 -75t66.5 -18h15v-186h-43q-132 0 -201 84q-28 34 -37.5 67t-9.5 95z" />
<glyph unicode="m" horiz-adv-x="1132" d="M82 0v975h194v-88q66 100 181 100t178 -100q41 53 86 76.5t104 23.5q101 0 166.5 -68.5t65.5 -175.5v-743h-195v690q0 107 -94 107q-43 0 -72.5 -31.5t-29.5 -75.5v-690h-195v690q0 46 -27.5 76.5t-68.5 30.5t-70 -31.5t-29 -75.5v-690h-194z" />
<glyph unicode="n" horiz-adv-x="747" d="M82 0v975h194v-94q65 106 183 106q55 0 102.5 -27t75.5 -73q29 -48 29 -129v-758h-195v686q0 51 -25 79t-69 28t-72.5 -30t-28.5 -77v-686h-194z" />
<glyph unicode="o" d="M76 299v389q0 128 85 213.5t212 85.5q126 0 207.5 -85t81.5 -214v-389q0 -134 -84 -222.5t-211 -88.5q-126 0 -208.5 88t-82.5 223zM270 299q0 -52 27 -82.5t72 -30.5q58 0 86 45q12 19 12 68v389q0 49 -27 79t-71 30q-43 0 -71 -31t-28 -78v-389z" />
<glyph unicode="p" horiz-adv-x="743" d="M82 -389v1364h197v-96q69 108 184 108q88 0 146.5 -61.5t58.5 -155.5v-561q0 -76 -31 -123q-28 -46 -74.5 -72t-99.5 -26q-121 0 -184 108v-485h-197zM279 303q0 -121 98 -121q37 0 67 27q19 17 24 34t5 60v381q0 49 -27 79t-71 30q-43 0 -69.5 -30t-26.5 -79v-381z" />
<glyph unicode="q" horiz-adv-x="741" d="M76 215v561q0 89 60.5 150t148.5 61q113 0 180 -108v96h194v-1364h-194v485q-72 -108 -180 -108q-56 0 -104.5 27.5t-76.5 74.5q-17 27 -22.5 52t-5.5 73zM270 313q0 -42 4 -60t17 -36q27 -35 76 -35q58 0 84 47q14 21 14 84v371q0 50 -26 79.5t-70 29.5t-71.5 -30 t-27.5 -79v-371z" />
<glyph unicode="r" horiz-adv-x="530" d="M82 0v975h194v-105q95 110 254 121v-205q-40 9 -59 9q-69 0 -129 -50q-37 -36 -51.5 -73t-14.5 -101v-571h-194z" />
<glyph unicode="s" horiz-adv-x="694" d="M55 281h183q0 -47 31.5 -78t80.5 -31q46 0 76.5 32t30.5 79q0 44 -24.5 68.5t-90.5 47.5l-39 15q-77 28 -112 48.5t-62 53.5q-63 78 -63 182q0 120 81.5 204.5t198.5 84.5q114 0 195 -81t84 -199h-181q-3 44 -29 70t-67 26t-69.5 -30t-28.5 -73t22 -66.5t82 -45.5l64 -21 q71 -25 111 -54.5t69 -80.5q43 -70 43 -151q0 -121 -85 -208t-204 -87q-77 0 -148.5 39.5t-109.5 103.5q-39 68 -39 152z" />
<glyph unicode="t" horiz-adv-x="440" d="M14 819v156h97v295h194v-295h123v-156h-123v-547q0 -54 14.5 -70t63.5 -16h45v-186h-61q-79 0 -128 20.5t-85 69.5q-25 32 -34 63t-9 85v581h-97z" />
<glyph unicode="u" horiz-adv-x="741" d="M76 242v733h194v-660q0 -59 13 -82q22 -49 84 -49q59 0 84 49q14 21 14 82v660h194v-975h-194v98q-37 -58 -79 -84t-101 -26q-57 0 -107 29.5t-78 78.5q-15 29 -19.5 56t-4.5 90z" />
<glyph unicode="v" horiz-adv-x="681" d="M0 975h207l133 -631l135 631h207l-256 -975h-172z" />
<glyph unicode="w" horiz-adv-x="1024" d="M0 975h207l123 -606l110 606h144l112 -606l121 606h207l-231 -975h-168l-111 584l-111 -584h-170z" />
<glyph unicode="x" horiz-adv-x="706" d="M14 0l248 502l-231 473h209l118 -277l127 277h207l-235 -473l237 -502h-207l-129 305l-137 -305h-207z" />
<glyph unicode="y" horiz-adv-x="702" d="M0 975h207l135 -606l135 606h205l-281 -1139q-29 -114 -97.5 -169.5t-182.5 -55.5h-45v184h41q54 0 78 23t41 90l34 131z" />
<glyph unicode="z" horiz-adv-x="614" d="M41 0v160l313 647h-291v168h510v-144l-313 -645h313v-186h-532z" />
<glyph unicode="{" horiz-adv-x="659" d="M109 500v100q65 20 91.5 63.5t26.5 129.5v337q0 167 84 230q35 26 94 36.5t168 10.5q47 0 86 -2v-160q-140 0 -186.5 -38.5t-46.5 -155.5v-275q0 -95 -23.5 -144t-83.5 -83q60 -32 83.5 -81t23.5 -144v-275q0 -117 46.5 -155.5t186.5 -40.5v-160h-88q-114 0 -174.5 12 t-95.5 43q-74 62 -74 221v338q0 86 -26.5 129.5t-91.5 63.5z" />
<glyph unicode="|" horiz-adv-x="671" d="M272 -342v1708h125v-1708h-125z" />
<glyph unicode="}" horiz-adv-x="659" d="M0 -147q140 2 186.5 40.5t46.5 155.5v275q0 95 23.5 144t83.5 81q-60 34 -83.5 83t-23.5 144v275q0 117 -46.5 155.5t-186.5 38.5v160q39 2 86 2q116 0 176.5 -12t95.5 -43q74 -65 74 -222v-337q0 -86 27 -129.5t92 -63.5v-100q-65 -20 -92 -63.5t-27 -129.5v-338 q0 -166 -84 -229q-35 -26 -94 -36.5t-166 -10.5h-88v160z" />
<glyph unicode="~" horiz-adv-x="1114" d="M68 1257q108 218 272 218q78 0 238 -82q87 -45 124.5 -58.5t73.5 -13.5q59 0 104.5 36t94.5 122l72 -88q-103 -217 -281 -217q-44 0 -90.5 17.5t-169.5 80.5q-107 55 -172 55q-57 0 -102 -37t-95 -123z" />
<glyph unicode="&#xa1;" horiz-adv-x="323" d="M41 -342l74 1024h94l74 -1024h-242zM63 829v195h195v-195h-195z" />
<glyph unicode="&#xa2;" d="M88 449v380q0 95 49 170.5t135 112.5v119h195v-109q94 -31 150.5 -106t56.5 -170q0 -9 -2 -17h-193q0 51 -27.5 83t-70.5 32q-46 0 -72 -31t-26 -84v-380q0 -55 25.5 -85t72.5 -30q43 0 70.5 29.5t27.5 76.5h193l2 -14q0 -94 -56.5 -169t-150.5 -107v-109h-195v119 q-184 75 -184 289z" />
<glyph unicode="&#xa3;" d="M-6 0v197h139v432h-139v174h141v231q0 149 93.5 246.5t236.5 97.5q75 0 142.5 -32t113.5 -89q40 -49 55 -97t17 -126h-193q0 60 -27 96q-43 56 -106 56q-34 0 -67 -19t-52 -49q-18 -32 -18 -84v-231h202v-174h-202v-432h391v-197h-727z" />
<glyph unicode="&#xa4;" horiz-adv-x="1269" d="M80 1178l74 73l188 -190q82 59 147.5 82.5t145.5 23.5t145 -23.5t146 -82.5l190 188l72 -71l-189 -189q105 -136 105 -291q0 -78 -21.5 -140.5t-78.5 -145.5l186 -189l-72 -73l-188 188q-134 -105 -285 -105q-79 0 -148.5 24t-152.5 81l-186 -186l-72 71l182 189 q-102 135 -102 290q0 77 23.5 142.5t80.5 144.5zM285 702q0 -146 102.5 -249t247.5 -103t247.5 103t102.5 249q0 145 -102.5 249t-243.5 104q-149 0 -251.5 -102.5t-102.5 -250.5z" />
<glyph unicode="&#xa5;" d="M2 1366h205l160 -535l159 535h205l-149 -436h94v-164h-152l-37 -109h189v-163h-213v-494h-197v494h-209v163h185l-37 109h-148v164h93z" />
<glyph unicode="&#xa6;" horiz-adv-x="671" d="M272 313h125v-655h-125v655zM272 690v676h125v-676h-125z" />
<glyph unicode="&#xa7;" horiz-adv-x="913" d="M68 696q0 181 149 303q-104 107 -104 248q0 140 103 241t245 101q140 0 238.5 -97.5t101.5 -238.5h-211q-6 66 -40 103t-91 37q-61 0 -99 -42t-38 -110q0 -58 29 -89.5t100 -53.5l81 -25q86 -26 133.5 -55.5t90.5 -83.5q88 -108 88 -242q0 -90 -40 -171t-112 -140 q105 -108 105 -246q0 -143 -101.5 -244.5t-244.5 -101.5q-142 0 -241 99t-99 243h211q0 -69 35.5 -108t97.5 -39q60 0 96.5 41.5t36.5 109.5q0 61 -28.5 93.5t-104.5 58.5l-90 28q-71 23 -110 45t-75 60q-54 54 -83 126.5t-29 149.5zM274 709q0 -142 146 -191l86 -29 q70 34 98.5 76.5t28.5 114.5q0 59 -25 104q-19 34 -39.5 48.5t-74.5 33.5l-84 29q-136 -48 -136 -186z" />
<glyph unicode="&#xa8;" horiz-adv-x="655" d="M68 1133v188h192v-188h-192zM393 1133v188h193v-188h-193z" />
<glyph unicode="&#xa9;" horiz-adv-x="1632" d="M113 688q0 143 56 272.5t151.5 222.5t228 148t278.5 55q185 0 345 -95t254 -257t94 -350q0 -143 -56 -273.5t-150 -225t-224 -150t-273 -55.5q-192 0 -354 94.5t-256 257.5t-94 356zM201 688q0 -128 48 -242.5t130.5 -197.5t196.5 -131.5t241 -48.5q125 0 238.5 49 t196 131.5t131.5 196.5t49 239q0 164 -82.5 306t-222.5 225t-302 83q-284 0 -467 -204q-75 -83 -116 -189.5t-41 -216.5zM629 477v424q0 85 54 142t136 57q80 0 134.5 -57t54.5 -142v-43h-117v43q0 38 -19 60t-53 22q-32 0 -51.5 -22.5t-19.5 -59.5v-424q0 -37 3 -48.5 t17 -25.5q19 -22 49 -22q19 0 38 10t28 27q8 12 8 59v29h117v-29q0 -74 -27 -119q-23 -43 -67.5 -68.5t-94.5 -25.5q-47 0 -92 26t-72 66q-26 46 -26 121z" />
<glyph unicode="&#xaa;" horiz-adv-x="487" d="M68 571v109h352v-109h-352zM68 930v65q0 72 45 113t123 41h67v49q0 74 -59 74q-23 0 -40 -16.5t-20 -41.5h-116q1 75 51.5 125t124.5 50q73 0 124.5 -51.5t51.5 -123.5v-417h-117v57q-41 -66 -113 -66q-57 0 -89.5 38.5t-32.5 103.5zM184 969q0 -28 17 -45t45 -17 q36 0 49 29q6 7 7 15.5t1 43.5v58h-45q-74 0 -74 -56v-28z" />
<glyph unicode="&#xab;" horiz-adv-x="798" d="M0 590l389 389v-193l-194 -196l194 -195v-196zM342 590l389 389v-193l-194 -196l194 -195v-196z" />
<glyph unicode="&#xac;" horiz-adv-x="1024" d="M68 451v110h886v-561h-120v451h-766z" />
<glyph unicode="&#xad;" horiz-adv-x="612" d="M14 440v195h584v-195h-584z" />
<glyph unicode="&#xae;" horiz-adv-x="1632" d="M113 688q0 143 56 272.5t151.5 222.5t228 148t278.5 55q185 0 345 -95t254 -257t94 -350q0 -143 -56 -273.5t-150 -225t-224 -150t-273 -55.5q-192 0 -354 94.5t-256 257.5t-94 356zM201 688q0 -128 48 -242.5t130.5 -197.5t196.5 -131.5t241 -48.5q125 0 238.5 49 t196 131.5t131.5 196.5t49 239q0 164 -82.5 306t-222.5 225t-302 83q-284 0 -467 -204q-75 -83 -116 -189.5t-41 -216.5zM635 272v820h205q79 0 134.5 -56.5t55.5 -136.5v-78q0 -60 -22.5 -100t-73.5 -72l125 -377h-125l-109 353h-71v-353h-119zM754 727h80q45 0 65.5 22.5 t20.5 71.5v78q0 37 -23.5 60.5t-60.5 23.5h-82v-256z" />
<glyph unicode="&#xaf;" horiz-adv-x="626" d="M68 1161v133h489v-133h-489z" />
<glyph unicode="&#xb0;" horiz-adv-x="702" d="M82 1112q0 111 79 190.5t191 79.5q113 0 191 -79.5t78 -194.5q0 -109 -79.5 -187.5t-189.5 -78.5q-112 0 -191 79t-79 191zM166 1110q0 -76 54.5 -130t131.5 -54q75 0 130 54t55 128q0 79 -54 133.5t-131 54.5q-76 0 -131 -55t-55 -131z" />
<glyph unicode="&#xb1;" horiz-adv-x="720" d="M68 0v195h583v-195h-583zM68 483v195h194v194h195v-194h194v-195h-194v-194h-195v194h-194z" />
<glyph unicode="&#xb2;" horiz-adv-x="434" d="M41 1130v60q5 83 53.5 133.5t124.5 50.5q73 0 123.5 -51t50.5 -125v-76q0 -46 -28 -100l-183 -358h211v-117h-350v108l219 422q14 27 14 60v61q0 27 -16.5 44.5t-42.5 17.5q-57 0 -57 -70v-60h-119z" />
<glyph unicode="&#xb3;" horiz-adv-x="446" d="M41 735v47h117v-39q0 -46 14.5 -66t46.5 -20q26 0 40.5 20.5t14.5 57.5v127q0 60 -73 60h-21v102h21q41 0 57 15.5t16 54.5v96q0 33 -15 51.5t-42 18.5q-28 0 -43.5 -18t-15.5 -52v-60h-117v60q0 80 50 132t126 52q75 0 124.5 -52.5t49.5 -131.5v-94q0 -44 -15.5 -72 t-53.5 -51q41 -28 55 -54t14 -75v-109q0 -42 -4 -60.5t-18 -45.5q-25 -40 -66.5 -65t-83.5 -25q-80 0 -129 53.5t-49 142.5z" />
<glyph unicode="&#xb4;" horiz-adv-x="479" d="M68 1133l157 258h187l-195 -258h-149z" />
<glyph unicode="&#xb5;" horiz-adv-x="747" d="M82 -389v1364h194v-660q0 -59 13 -82q22 -49 84 -49q59 0 84 49q14 21 14 82v660h195v-975h-195v98q-38 -59 -80 -84.5t-100 -25.5h-15v-377h-194z" />
<glyph unicode="&#xb6;" horiz-adv-x="1036" d="M14 999q0 101 46 184.5t126 129.5q95 53 273 53h469v-1653h-195v1487h-115v-1487h-194v930q-12 -2 -29 -2q-169 0 -275 100t-106 258z" />
<glyph unicode="&#xb7;" horiz-adv-x="301" d="M41 379v219h219v-219h-219z" />
<glyph unicode="&#xb8;" horiz-adv-x="421" d="M68 -365l98 259h186l-135 -259h-149z" />
<glyph unicode="&#xb9;" horiz-adv-x="301" d="M14 1157v123l117 86h117v-819h-117v696z" />
<glyph unicode="&#xba;" horiz-adv-x="487" d="M68 571v109h350v-109h-350zM68 975v233q0 77 51 129t127 52q74 0 123 -51.5t49 -129.5v-233q0 -80 -50.5 -133.5t-125.5 -53.5t-124.5 53.5t-49.5 133.5zM184 975q0 -31 16 -49.5t44 -18.5q57 0 57 68v233q0 29 -16.5 47.5t-42.5 18.5q-25 0 -41.5 -18.5t-16.5 -47.5 v-233z" />
<glyph unicode="&#xbb;" horiz-adv-x="798" d="M68 199v196l194 195l-194 196v193l389 -389zM410 199v196l194 195l-194 196v193l389 -389z" />
<glyph unicode="&#xbc;" horiz-adv-x="1036" d="M55 1157v123l117 86h117v-819h-117v696zM201 0l461 1366h122l-456 -1366h-127zM573 125v108l170 586h125l-176 -586h117v236h117v-236h57v-108h-57v-125h-117v125h-236z" />
<glyph unicode="&#xbd;" horiz-adv-x="1044" d="M55 1157v123l117 86h117v-819h-117v696zM201 0l461 1366h122l-456 -1366h-127zM637 586v59q4 83 52.5 132.5t125.5 49.5q73 0 123.5 -50.5t50.5 -123.5v-75q0 -50 -28 -101l-183 -360h211v-117h-350v109l219 423q14 27 14 60v61q0 25 -16.5 42.5t-42.5 17.5 q-57 0 -57 -68v-59h-119z" />
<glyph unicode="&#xbe;" horiz-adv-x="1126" d="M55 735v47h117v-39q0 -46 14.5 -66t46.5 -20q26 0 41 20.5t15 57.5v127q0 60 -74 60h-20v102h20q41 0 57.5 16t16.5 54v96q0 33 -15 51.5t-43 18.5t-43.5 -18t-15.5 -52v-60h-117v60q0 80 50 132t126 52q75 0 125 -52.5t50 -131.5v-94q0 -44 -16 -72t-54 -51 q42 -28 56 -54t14 -75v-109q0 -41 -4.5 -59.5t-18.5 -46.5q-25 -40 -66.5 -65t-83.5 -25q-80 0 -129 53.5t-49 142.5zM289 0l463 1366h122l-456 -1366h-129zM664 125v108l170 586h124l-176 -586h117v236h117v-236h57v-108h-57v-125h-117v125h-235z" />
<glyph unicode="&#xbf;" horiz-adv-x="649" d="M41 47q0 103 47 184l100 179q34 56 41 79t7 84v109h196v-109q0 -87 -12 -134t-49 -109l-103 -166q-20 -31 -26 -57t-6 -70v-107q0 -39 27 -64.5t69 -25.5q96 0 96 115v92h195v-92q0 -133 -84.5 -221t-212.5 -88q-116 0 -200.5 84.5t-84.5 199.5v117zM236 829v195h196 v-195h-196z" />
<glyph unicode="&#xc0;" horiz-adv-x="780" d="M0 0l305 1366h170l305 -1366h-209l-55 293h-254l-55 -293h-207zM133 1724h184l158 -258h-149zM297 475h184l-92 498z" />
<glyph unicode="&#xc1;" horiz-adv-x="780" d="M0 0l305 1366h170l305 -1366h-209l-55 293h-254l-55 -293h-207zM297 475h184l-92 498zM324 1466l157 258h185l-193 -258h-149z" />
<glyph unicode="&#xc2;" horiz-adv-x="780" d="M0 0l305 1366h170l305 -1366h-209l-55 293h-254l-55 -293h-207zM111 1466l196 252h164l197 -252h-183l-96 146l-96 -146h-182zM297 475h184l-92 498z" />
<glyph unicode="&#xc3;" horiz-adv-x="780" d="M0 0l305 1366h170l305 -1366h-209l-55 293h-254l-55 -293h-207zM117 1487q3 59 10.5 90t26.5 59q20 31 54 49.5t71 18.5q32 0 59 -12t82 -50q61 -38 90 -38q23 0 35 16.5t18 56.5h101q-9 -213 -158 -213q-62 0 -139 60q-60 45 -95 45q-49 0 -55 -82h-100zM297 475h184 l-92 498z" />
<glyph unicode="&#xc4;" horiz-adv-x="780" d="M0 0l305 1366h170l305 -1366h-209l-55 293h-254l-55 -293h-207zM135 1466v195h193v-195h-193zM297 475h184l-92 498zM453 1466v195h192v-195h-192z" />
<glyph unicode="&#xc5;" horiz-adv-x="780" d="M0 0l305 1366h170l305 -1366h-209l-55 293h-254l-55 -293h-207zM209 1587q0 73 53.5 125.5t128.5 52.5q73 0 125.5 -53t52.5 -127q0 -75 -52.5 -127.5t-127.5 -52.5t-127.5 53t-52.5 129zM297 475h184l-92 498zM315 1585q0 -31 21.5 -52.5t52.5 -21.5t52.5 21.5 t21.5 52.5q0 29 -21.5 50.5t-50.5 21.5q-32 0 -54 -21t-22 -51z" />
<glyph unicode="&#xc6;" horiz-adv-x="1288" d="M0 0l561 1366h701v-180h-388v-424h338v-184h-338v-381h388v-197h-584v582h-252l-219 -582h-207zM496 764h182v446z" />
<glyph unicode="&#xc7;" d="M76 342v705q0 82 25.5 142t82.5 109q89 80 209 80q134 0 225 -95t91 -236v-72h-195v72q0 63 -32 99t-89 36q-55 0 -88 -36.5t-33 -98.5v-705q0 -62 5 -81t28 -42q37 -37 86 -37q32 0 62 16.5t47 43.5q9 18 11.5 33.5t2.5 66.5v47h195v-47q0 -73 -9 -115.5t-34 -83.5 q-41 -70 -116 -112.5t-157 -42.5q-79 0 -155 42.5t-117 110.5q-26 42 -35.5 85.5t-9.5 115.5zM215 -365l98 259h187l-135 -259h-150z" />
<glyph unicode="&#xc8;" horiz-adv-x="720" d="M109 0v1366h583v-180h-387v-404h340v-184h-340v-401h387v-197h-583zM182 1724h187l157 -258h-151z" />
<glyph unicode="&#xc9;" horiz-adv-x="720" d="M109 0v1366h583v-180h-387v-404h340v-184h-340v-401h387v-197h-583zM307 1466l158 258h186l-194 -258h-150z" />
<glyph unicode="&#xca;" horiz-adv-x="720" d="M109 0v1366h583v-180h-387v-404h340v-184h-340v-401h387v-197h-583zM123 1466l196 252h164l197 -252h-182l-97 146l-96 -146h-182z" />
<glyph unicode="&#xcb;" horiz-adv-x="720" d="M109 0v1366h583v-180h-387v-404h340v-184h-340v-401h387v-197h-583zM145 1466v195h193v-195h-193zM463 1466v195h192v-195h-192z" />
<glyph unicode="&#xcc;" horiz-adv-x="413" d="M-51 1724h186l158 -258h-152zM109 0v1366h194v-1366h-194z" />
<glyph unicode="&#xcd;" horiz-adv-x="413" d="M109 0v1366h194v-1366h-194zM143 1466l158 258h186l-194 -258h-150z" />
<glyph unicode="&#xce;" horiz-adv-x="413" d="M-72 1466l197 252h164l196 -252h-182l-96 146l-96 -146h-183zM111 0v1366h194v-1366h-194z" />
<glyph unicode="&#xcf;" horiz-adv-x="413" d="M-29 1466v195h193v-195h-193zM111 0v1366h194v-1366h-194zM250 1466v195h192v-195h-192z" />
<glyph unicode="&#xd0;" horiz-adv-x="821" d="M27 614v183h88v569h309q136 0 228.5 -90.5t92.5 -224.5v-713q0 -152 -89.5 -245t-237.5 -93h-303v614h-88zM309 182h94q148 0 148 156v713q0 57 -40.5 95t-100.5 38h-101v-387h84v-183h-84v-432z" />
<glyph unicode="&#xd1;" horiz-adv-x="901" d="M109 0v1366h184l303 -827v827h195v-1366h-183l-303 829v-829h-196zM176 1487q3 59 10.5 90t26.5 59q20 31 54 49.5t71 18.5q31 0 58.5 -12t84.5 -50q58 -38 90 -38q22 0 34 17t18 56h100q-9 -213 -158 -213q-62 0 -139 60q-60 45 -94 45q-50 0 -56 -82h-100z" />
<glyph unicode="&#xd2;" horiz-adv-x="808" d="M76 338v696q0 149 93.5 246.5t236.5 97.5q74 0 142 -32t114 -89q38 -47 54.5 -99t16.5 -124v-696q0 -89 -25.5 -151t-84.5 -115q-94 -84 -217 -84q-94 0 -175 50t-122 134q-33 65 -33 166zM160 1724h184l158 -258h-150zM270 338q0 -46 9.5 -71t35.5 -48q41 -35 91 -35 q34 0 65.5 19t50.5 51q17 28 17 84v696q0 58 -25 96q-46 56 -106 56q-35 0 -67.5 -18.5t-51.5 -49.5q-19 -34 -19 -84v-696z" />
<glyph unicode="&#xd3;" horiz-adv-x="808" d="M76 338v696q0 149 93.5 246.5t236.5 97.5q74 0 142 -32t114 -89q38 -47 54.5 -99t16.5 -124v-696q0 -89 -25.5 -151t-84.5 -115q-94 -84 -217 -84q-94 0 -175 50t-122 134q-33 65 -33 166zM270 338q0 -46 9.5 -71t35.5 -48q41 -35 91 -35q34 0 65.5 19t50.5 51 q17 28 17 84v696q0 58 -25 96q-46 56 -106 56q-35 0 -67.5 -18.5t-51.5 -49.5q-19 -34 -19 -84v-696zM324 1466l155 258h187l-193 -258h-149z" />
<glyph unicode="&#xd4;" horiz-adv-x="808" d="M76 338v696q0 149 93.5 246.5t236.5 97.5q74 0 142 -32t114 -89q38 -47 54.5 -99t16.5 -124v-696q0 -89 -25.5 -151t-84.5 -115q-94 -84 -217 -84q-94 0 -175 50t-122 134q-33 65 -33 166zM127 1466l197 252h163l197 -252h-182l-96 146l-97 -146h-182zM270 338 q0 -46 9.5 -71t35.5 -48q41 -35 91 -35q34 0 65.5 19t50.5 51q17 28 17 84v696q0 58 -25 96q-46 56 -106 56q-35 0 -67.5 -18.5t-51.5 -49.5q-19 -34 -19 -84v-696z" />
<glyph unicode="&#xd5;" horiz-adv-x="808" d="M76 338v696q0 149 93.5 246.5t236.5 97.5q74 0 142 -32t114 -89q38 -47 54.5 -99t16.5 -124v-696q0 -89 -25.5 -151t-84.5 -115q-94 -84 -217 -84q-94 0 -175 50t-122 134q-33 65 -33 166zM131 1487q3 59 10.5 90t26.5 59q22 31 56.5 49.5t70.5 18.5q30 0 58 -12.5 t83 -49.5q58 -38 90 -38q22 0 34 17t18 56h100q-9 -213 -156 -213q-64 0 -141 60q-60 45 -92 45q-52 0 -58 -82h-100zM270 338q0 -46 9.5 -71t35.5 -48q41 -35 91 -35q34 0 65.5 19t50.5 51q17 28 17 84v696q0 58 -25 96q-46 56 -106 56q-35 0 -67.5 -18.5t-51.5 -49.5 q-19 -34 -19 -84v-696z" />
<glyph unicode="&#xd6;" horiz-adv-x="808" d="M76 338v696q0 149 93.5 246.5t236.5 97.5q74 0 142 -32t114 -89q38 -47 54.5 -99t16.5 -124v-696q0 -89 -25.5 -151t-84.5 -115q-94 -84 -217 -84q-94 0 -175 50t-122 134q-33 65 -33 166zM150 1466v195h192v-195h-192zM270 338q0 -46 9.5 -71t35.5 -48q41 -35 91 -35 q34 0 65.5 19t50.5 51q17 28 17 84v696q0 58 -25 96q-46 56 -106 56q-35 0 -67.5 -18.5t-51.5 -49.5q-19 -34 -19 -84v-696zM467 1466v195h192v-195h-192z" />
<glyph unicode="&#xd7;" horiz-adv-x="724" d="M41 315l174 174l-174 175l145 145l176 -176l177 176l145 -145l-174 -175l174 -174l-145 -143l-177 176l-176 -176z" />
<glyph unicode="&#xd8;" horiz-adv-x="808" d="M76 338v696q0 148 93 246t234 98q55 0 123 -22l27 80l164 -54l-45 -139q33 -45 47 -93t14 -116v-696q0 -89 -25.5 -151t-84.5 -115q-94 -84 -220 -84q-63 0 -133 28l-24 -71l-166 55l47 141q-29 44 -40 86.5t-11 110.5zM270 580l195 591q-30 15 -57 15q-35 0 -67.5 -18.5 t-51.5 -49.5t-19 -84v-454zM332 207q36 -23 71 -23t67.5 19t51.5 51q17 28 17 84v500z" />
<glyph unicode="&#xd9;" horiz-adv-x="784" d="M76 322v1044h194v-1044q0 -40 9 -63.5t32 -43.5q36 -31 82 -31q56 0 89.5 38t33.5 100v1044h195v-1044q0 -104 -45 -179q-44 -73 -116.5 -114t-156.5 -41q-86 0 -161.5 44t-116.5 118q-39 74 -39 172zM170 1724h186l158 -258h-149z" />
<glyph unicode="&#xda;" horiz-adv-x="784" d="M76 322v1044h194v-1044q0 -40 9 -63.5t32 -43.5q36 -31 82 -31q56 0 89.5 38t33.5 100v1044h195v-1044q0 -104 -45 -179q-44 -73 -116.5 -114t-156.5 -41q-86 0 -161.5 44t-116.5 118q-39 74 -39 172zM319 1466l158 258h185l-193 -258h-150z" />
<glyph unicode="&#xdb;" horiz-adv-x="784" d="M76 322v1044h194v-1044q0 -40 9 -63.5t32 -43.5q36 -31 82 -31q56 0 89.5 38t33.5 100v1044h195v-1044q0 -104 -45 -179q-44 -73 -116.5 -114t-156.5 -41q-86 0 -161.5 44t-116.5 118q-39 74 -39 172zM115 1466l196 252h164l197 -252h-183l-96 146l-96 -146h-182z" />
<glyph unicode="&#xdc;" horiz-adv-x="784" d="M76 322v1044h194v-1044q0 -40 9 -63.5t32 -43.5q36 -31 82 -31q56 0 89.5 38t33.5 100v1044h195v-1044q0 -104 -45 -179q-44 -73 -116.5 -114t-156.5 -41q-86 0 -161.5 44t-116.5 118q-39 74 -39 172zM137 1466v195h193v-195h-193zM457 1466v195h192v-195h-192z" />
<glyph unicode="&#xdd;" horiz-adv-x="729" d="M0 1366h205l160 -535l159 535h207l-270 -778v-588h-197v588zM291 1466l158 258h186l-195 -258h-149z" />
<glyph unicode="&#xde;" horiz-adv-x="755" d="M109 0v1366h196v-231h101q89 0 151 -26.5t113 -86.5q38 -46 54.5 -98t16.5 -127v-152q0 -82 -21.5 -139.5t-68.5 -104.5q-51 -51 -106.5 -72.5t-138.5 -21.5h-101v-307h-196zM305 492h103q43 0 67.5 8t46.5 30q24 25 30.5 45.5t6.5 69.5v152q0 49 -6.5 69t-30.5 45 q-22 22 -46.5 30.5t-67.5 8.5h-103v-458z" />
<glyph unicode="&#xdf;" horiz-adv-x="741" d="M82 0v1061q0 67 8 100.5t33 75.5q40 66 107 103.5t145 37.5q119 0 206 -83t87 -195v-125q0 -121 -109 -178q57 -37 83 -83t26 -112v-360q0 -68 -16 -110t-56 -77q-61 -55 -154 -55h-43v184h17q38 0 52.5 17.5t14.5 62.5v381q0 37 -18.5 51.5t-65.5 14.5v170h13 q38 0 54.5 16t16.5 51v131q0 48 -28.5 77.5t-77.5 29.5q-60 0 -86 -47q-15 -27 -15 -78v-1061h-194z" />
<glyph unicode="&#xe0;" horiz-adv-x="729" d="M68 223v111q0 109 75 184q41 40 85 55t118 15h111v84q0 60 -19 84q-30 41 -78 41q-37 0 -64.5 -27.5t-31.5 -69.5h-196q3 122 87 204.5t207 82.5q119 0 205 -85t86 -202v-700h-196v98q-67 -110 -183 -110q-54 0 -103 28.5t-77 75.5q-26 48 -26 131zM145 1391h187 l157 -258h-149zM264 289q0 -47 27 -76t71 -29q27 0 49.5 12.5t32.5 34.5q9 15 11 30t2 73v94h-74q-119 0 -119 -92v-47z" />
<glyph unicode="&#xe1;" horiz-adv-x="729" d="M68 223v111q0 109 75 184q41 40 85 55t118 15h111v84q0 60 -19 84q-30 41 -78 41q-37 0 -64.5 -27.5t-31.5 -69.5h-196q3 122 87 204.5t207 82.5q119 0 205 -85t86 -202v-700h-196v98q-67 -110 -183 -110q-54 0 -103 28.5t-77 75.5q-26 48 -26 131zM264 289q0 -47 27 -76 t71 -29q27 0 49.5 12.5t32.5 34.5q9 15 11 30t2 73v94h-74q-119 0 -119 -92v-47zM291 1133l158 258h184l-193 -258h-149z" />
<glyph unicode="&#xe2;" horiz-adv-x="729" d="M68 223v111q0 109 75 184q41 40 85 55t118 15h111v84q0 60 -19 84q-30 41 -78 41q-37 0 -64.5 -27.5t-31.5 -69.5h-196q3 122 87 204.5t207 82.5q119 0 205 -85t86 -202v-700h-196v98q-67 -110 -183 -110q-54 0 -103 28.5t-77 75.5q-26 48 -26 131zM94 1133l197 251h164 l196 -251h-182l-96 145l-97 -145h-182zM264 289q0 -47 27 -76t71 -29q27 0 49.5 12.5t32.5 34.5q9 15 11 30t2 73v94h-74q-119 0 -119 -92v-47z" />
<glyph unicode="&#xe3;" horiz-adv-x="729" d="M68 223v111q0 109 75 184q41 40 85 55t118 15h111v84q0 60 -19 84q-30 41 -78 41q-37 0 -64.5 -27.5t-31.5 -69.5h-196q3 122 87 204.5t207 82.5q119 0 205 -85t86 -202v-700h-196v98q-67 -110 -183 -110q-54 0 -103 28.5t-77 75.5q-26 48 -26 131zM106 1151 q3 59 10.5 89t26.5 58q22 31 56.5 50.5t68.5 19.5q30 0 58 -12t86 -49q58 -41 90 -41q22 0 33.5 16.5t17.5 56.5h100q-9 -211 -157 -211q-63 0 -140 60q-60 45 -94 45q-49 0 -55 -82h-101zM264 289q0 -47 27 -76t71 -29q27 0 49.5 12.5t32.5 34.5q9 15 11 30t2 73v94h-74 q-119 0 -119 -92v-47z" />
<glyph unicode="&#xe4;" horiz-adv-x="729" d="M68 223v111q0 109 75 184q41 40 85 55t118 15h111v84q0 60 -19 84q-30 41 -78 41q-37 0 -64.5 -27.5t-31.5 -69.5h-196q3 122 87 204.5t207 82.5q119 0 205 -85t86 -202v-700h-196v98q-67 -110 -183 -110q-54 0 -103 28.5t-77 75.5q-26 48 -26 131zM113 1133v188h192 v-188h-192zM264 289q0 -47 27 -76t71 -29q27 0 49.5 12.5t32.5 34.5q9 15 11 30t2 73v94h-74q-119 0 -119 -92v-47zM438 1133v188h193v-188h-193z" />
<glyph unicode="&#xe5;" horiz-adv-x="729" d="M68 223v111q0 109 75 184q41 40 85 55t118 15h111v84q0 60 -19 84q-30 41 -78 41q-37 0 -64.5 -27.5t-31.5 -69.5h-196q3 122 87 204.5t207 82.5q119 0 205 -85t86 -202v-700h-196v98q-67 -110 -183 -110q-54 0 -103 28.5t-77 75.5q-26 48 -26 131zM211 1272q0 70 50 119 t122 49q67 0 116.5 -50t49.5 -118q0 -70 -49.5 -120t-118.5 -50q-71 0 -120.5 50t-49.5 120zM264 289q0 -47 27 -76t71 -29q27 0 49.5 12.5t32.5 34.5q9 15 11 30t2 73v94h-74q-119 0 -119 -92v-47zM307 1270q0 -31 21.5 -52.5t52.5 -21.5q29 0 50.5 21.5t21.5 52.5 q0 30 -21.5 51.5t-50.5 21.5q-31 0 -52.5 -21t-21.5 -52z" />
<glyph unicode="&#xe6;" horiz-adv-x="1124" d="M76 223v111q0 108 76 184q41 40 84 55t118 15h111v84q0 60 -19 84q-30 41 -77 41q-37 0 -65 -27.5t-32 -69.5h-196q3 122 87.5 204.5t205.5 82.5q110 0 196 -74q86 74 197 74q123 0 206 -86t83 -213v-270h-389v-101q0 -54 3.5 -68t22.5 -34q26 -29 70 -29q41 0 66.5 25.5 t31.5 71.5h195q1 -121 -85 -208t-206 -87q-82 0 -152 43.5t-110 118.5l-33 -52q-67 -110 -182 -110q-54 0 -103.5 28.5t-77.5 75.5q-26 48 -26 131zM272 289q0 -47 27.5 -76t71.5 -29q27 0 49.5 12.5t32.5 34.5q9 15 10.5 29t1.5 74v94h-74q-119 0 -119 -90v-49zM662 578 h194v98q0 57 -25 89t-71 32q-27 0 -50.5 -13t-35.5 -36q-12 -19 -12 -72v-98z" />
<glyph unicode="&#xe7;" horiz-adv-x="714" d="M76 301v379q0 127 85.5 217t207.5 90q103 0 183.5 -66t100.5 -167q6 -27 6 -74h-194q0 51 -26.5 83t-69.5 32q-46 0 -72.5 -31t-26.5 -84v-379q0 -57 25.5 -87t71.5 -30q44 0 71 30t27 79h194q1 -129 -83 -217t-207 -88q-69 0 -134.5 34t-105.5 91q-29 40 -41 82.5 t-12 105.5zM190 -365l99 259h186l-135 -259h-150z" />
<glyph unicode="&#xe8;" horiz-adv-x="729" d="M76 317v371q0 125 86 212t209 87q124 0 207.5 -85.5t83.5 -213.5v-270h-390v-101q0 -53 4 -67t23 -35q26 -29 70 -29q41 0 66.5 25.5t31.5 71.5h195q2 -120 -84.5 -207.5t-206.5 -87.5q-79 0 -149.5 41.5t-108.5 111.5q-22 38 -29.5 74.5t-7.5 101.5zM137 1391h187 l157 -258h-149zM272 578h195v96q0 57 -25 89t-71 32q-27 0 -50.5 -13.5t-35.5 -36.5q-13 -21 -13 -71v-96z" />
<glyph unicode="&#xe9;" horiz-adv-x="729" d="M76 317v371q0 125 86 212t209 87q124 0 207.5 -85.5t83.5 -213.5v-270h-390v-101q0 -53 4 -67t23 -35q26 -29 70 -29q41 0 66.5 25.5t31.5 71.5h195q2 -120 -84.5 -207.5t-206.5 -87.5q-79 0 -149.5 41.5t-108.5 111.5q-22 38 -29.5 74.5t-7.5 101.5zM272 578h195v96 q0 57 -25 89t-71 32q-27 0 -50.5 -13.5t-35.5 -36.5q-13 -21 -13 -71v-96zM279 1133l157 258h187l-195 -258h-149z" />
<glyph unicode="&#xea;" horiz-adv-x="729" d="M76 317v371q0 125 86 212t209 87q124 0 207.5 -85.5t83.5 -213.5v-270h-390v-101q0 -53 4 -67t23 -35q26 -29 70 -29q41 0 66.5 25.5t31.5 71.5h195q2 -120 -84.5 -207.5t-206.5 -87.5q-79 0 -149.5 41.5t-108.5 111.5q-22 38 -29.5 74.5t-7.5 101.5zM90 1133l197 251 h164l196 -251h-182l-96 145l-97 -145h-182zM272 578h195v96q0 57 -25 89t-71 32q-27 0 -50.5 -13.5t-35.5 -36.5q-13 -21 -13 -71v-96z" />
<glyph unicode="&#xeb;" horiz-adv-x="729" d="M76 317v371q0 125 86 212t209 87q124 0 207.5 -85.5t83.5 -213.5v-270h-390v-101q0 -53 4 -67t23 -35q26 -29 70 -29q41 0 66.5 25.5t31.5 71.5h195q2 -120 -84.5 -207.5t-206.5 -87.5q-79 0 -149.5 41.5t-108.5 111.5q-22 38 -29.5 74.5t-7.5 101.5zM109 1133v188h192 v-188h-192zM272 578h195v96q0 57 -25 89t-71 32q-27 0 -50.5 -13.5t-35.5 -36.5q-13 -21 -13 -71v-96zM434 1133v188h193v-188h-193z" />
<glyph unicode="&#xec;" horiz-adv-x="358" d="M-86 1391h186l158 -258h-152zM82 0v975h194v-975h-194z" />
<glyph unicode="&#xed;" horiz-adv-x="358" d="M82 0v975h194v-975h-194zM109 1133l157 258h187l-195 -258h-149z" />
<glyph unicode="&#xee;" horiz-adv-x="358" d="M-100 1133l196 251h164l197 -251h-183l-96 145l-96 -145h-182zM82 0v975h194v-975h-194z" />
<glyph unicode="&#xef;" horiz-adv-x="358" d="M-59 1133v188h192v-188h-192zM82 0v975h194v-975h-194zM223 1133v188h193v-188h-193z" />
<glyph unicode="&#xf0;" d="M76 299v389q0 128 85 213.5t212 85.5q21 0 35 -2q-24 54 -38 78t-38 51l-86 -86l-103 96l80 84q-48 25 -92 41l74 113q45 -8 121 -45l69 72l111 -101l-60 -59q69 -65 111 -136.5t68 -172.5q37 -127 37 -258v-363q0 -134 -84 -222.5t-211 -88.5q-126 0 -208.5 88 t-82.5 223zM270 299q0 -52 27 -82.5t72 -30.5q58 0 86 45q12 19 12 68v389q0 49 -27 79t-71 30q-43 0 -71 -31t-28 -78v-389z" />
<glyph unicode="&#xf1;" horiz-adv-x="747" d="M82 0v975h194v-94q65 106 183 106q55 0 102.5 -27t75.5 -73q29 -48 29 -129v-758h-195v686q0 51 -25 79t-69 28t-72.5 -30t-28.5 -77v-686h-194zM113 1151q3 59 10.5 89t26.5 58q20 31 54.5 50.5t69.5 19.5q31 0 58.5 -12t83.5 -49q61 -41 90 -41q23 0 35 16.5t18 56.5 h100q-9 -211 -157 -211q-62 0 -142 60q-34 26 -53 35.5t-39 9.5q-49 0 -55 -82h-100z" />
<glyph unicode="&#xf2;" d="M76 299v389q0 128 85 213.5t212 85.5q126 0 207.5 -85t81.5 -214v-389q0 -134 -84 -222.5t-211 -88.5q-126 0 -208.5 88t-82.5 223zM150 1391h186l158 -258h-150zM270 299q0 -52 27 -82.5t72 -30.5q58 0 86 45q12 19 12 68v389q0 49 -27 79t-71 30q-43 0 -71 -31t-28 -78 v-389z" />
<glyph unicode="&#xf3;" d="M76 299v389q0 128 85 213.5t212 85.5q126 0 207.5 -85t81.5 -214v-389q0 -134 -84 -222.5t-211 -88.5q-126 0 -208.5 88t-82.5 223zM270 299q0 -52 27 -82.5t72 -30.5q58 0 86 45q12 19 12 68v389q0 49 -27 79t-71 30q-43 0 -71 -31t-28 -78v-389zM291 1133l158 258h184 l-193 -258h-149z" />
<glyph unicode="&#xf4;" d="M76 299v389q0 128 85 213.5t212 85.5q126 0 207.5 -85t81.5 -214v-389q0 -134 -84 -222.5t-211 -88.5q-126 0 -208.5 88t-82.5 223zM90 1133l197 251h164l196 -251h-182l-96 145l-97 -145h-182zM270 299q0 -52 27 -82.5t72 -30.5q58 0 86 45q12 19 12 68v389q0 49 -27 79 t-71 30q-43 0 -71 -31t-28 -78v-389z" />
<glyph unicode="&#xf5;" d="M76 299v389q0 128 85 213.5t212 85.5q126 0 207.5 -85t81.5 -214v-389q0 -134 -84 -222.5t-211 -88.5q-126 0 -208.5 88t-82.5 223zM106 1151q3 59 10.5 89t26.5 58q20 31 55.5 50.5t69.5 19.5q30 0 58 -12t86 -49q58 -41 90 -41q22 0 33.5 16.5t17.5 56.5h100 q-9 -211 -157 -211q-63 0 -140 60q-60 45 -94 45q-49 0 -55 -82h-101zM270 299q0 -52 27 -82.5t72 -30.5q58 0 86 45q12 19 12 68v389q0 49 -27 79t-71 30q-43 0 -71 -31t-28 -78v-389z" />
<glyph unicode="&#xf6;" d="M76 299v389q0 128 85 213.5t212 85.5q126 0 207.5 -85t81.5 -214v-389q0 -134 -84 -222.5t-211 -88.5q-126 0 -208.5 88t-82.5 223zM109 1133v188h192v-188h-192zM270 299q0 -52 27 -82.5t72 -30.5q58 0 86 45q12 19 12 68v389q0 49 -27 79t-71 30q-43 0 -71 -31t-28 -78 v-389zM434 1133v188h193v-188h-193z" />
<glyph unicode="&#xf7;" horiz-adv-x="759" d="M41 440v195h678v-195h-678zM283 152v194h194v-194h-194zM283 725v195h194v-195h-194z" />
<glyph unicode="&#xf8;" horiz-adv-x="759" d="M76 -4l63 141q-39 69 -39 162v389q0 128 85 213.5t212 85.5q60 0 111 -22l31 69l135 -63l-45 -101q30 -42 42.5 -83t12.5 -99v-389q0 -134 -83.5 -222.5t-209.5 -88.5q-72 0 -139 37l-41 -91zM295 489l133 299q-18 9 -35 9q-44 0 -71 -30t-27 -79v-199zM332 205 q30 -21 61 -21q25 0 48.5 12.5t35.5 32.5q12 19 12 70v258z" />
<glyph unicode="&#xf9;" horiz-adv-x="741" d="M76 242v733h194v-660q0 -59 13 -82q22 -49 84 -49q59 0 84 49q14 21 14 82v660h194v-975h-194v98q-37 -58 -79 -84t-101 -26q-57 0 -107 29.5t-78 78.5q-15 29 -19.5 56t-4.5 90zM133 1391h186l158 -258h-149z" />
<glyph unicode="&#xfa;" horiz-adv-x="741" d="M76 242v733h194v-660q0 -59 13 -82q22 -49 84 -49q59 0 84 49q14 21 14 82v660h194v-975h-194v98q-37 -58 -79 -84t-101 -26q-57 0 -107 29.5t-78 78.5q-15 29 -19.5 56t-4.5 90zM297 1133l158 258h186l-192 -258h-152z" />
<glyph unicode="&#xfb;" horiz-adv-x="741" d="M76 242v733h194v-660q0 -59 13 -82q22 -49 84 -49q59 0 84 49q14 21 14 82v660h194v-975h-194v98q-37 -58 -79 -84t-101 -26q-57 0 -107 29.5t-78 78.5q-15 29 -19.5 56t-4.5 90zM90 1133l197 251h164l196 -251h-182l-96 145l-97 -145h-182z" />
<glyph unicode="&#xfc;" horiz-adv-x="741" d="M76 242v733h194v-660q0 -59 13 -82q22 -49 84 -49q59 0 84 49q14 21 14 82v660h194v-975h-194v98q-37 -58 -79 -84t-101 -26q-57 0 -107 29.5t-78 78.5q-15 29 -19.5 56t-4.5 90zM109 1133v188h192v-188h-192zM434 1133v188h193v-188h-193z" />
<glyph unicode="&#xfd;" horiz-adv-x="702" d="M0 975h207l135 -606l135 606h205l-281 -1139q-29 -114 -97.5 -169.5t-182.5 -55.5h-45v184h41q54 0 78 23t41 90l34 131zM266 1133l158 258h186l-192 -258h-152z" />
<glyph unicode="&#xfe;" horiz-adv-x="743" d="M82 -389v1755h197v-487q69 108 184 108q88 0 146.5 -61.5t58.5 -155.5v-561q0 -76 -31 -123q-28 -46 -74.5 -72t-99.5 -26q-121 0 -184 108v-485h-197zM279 303q0 -121 98 -121q37 0 67 27q19 17 24 34t5 60v381q0 49 -27 79t-71 30q-43 0 -69.5 -30t-26.5 -79v-381z" />
<glyph unicode="&#xff;" horiz-adv-x="702" d="M0 975h207l135 -606l135 606h205l-281 -1139q-29 -114 -97.5 -169.5t-182.5 -55.5h-45v184h41q54 0 78 23t41 90l34 131zM90 1133v188h193v-188h-193zM416 1133v188h192v-188h-192z" />
<glyph unicode="&#x152;" horiz-adv-x="1126" d="M76 344v705q0 141 91 235t228 94q59 0 121 -24v12h584v-180h-387v-404h338v-184h-338v-401h387v-197h-584v12q-62 -24 -121 -24q-82 0 -157.5 42t-116.5 111q-26 42 -35.5 86t-9.5 117zM272 344q0 -64 5 -83t28 -42q37 -37 88 -37q41 0 77.5 26.5t43.5 63.5q2 10 2 64 v715q0 60 -33 95.5t-88 35.5t-89 -36.5t-34 -96.5v-705z" />
<glyph unicode="&#x153;" horiz-adv-x="1124" d="M76 299v389q0 128 84.5 213.5t210.5 85.5q105 0 194 -74q87 74 195 74q124 0 207.5 -85.5t83.5 -213.5v-270h-389v-101q0 -54 3.5 -68t22.5 -34q26 -29 70 -29q41 0 66.5 25.5t31.5 71.5h195q1 -121 -85 -208t-206 -87q-113 0 -197 78q-87 -78 -196 -78 q-126 0 -208.5 88.5t-82.5 222.5zM270 299q0 -51 27.5 -82t71.5 -31q25 0 48.5 12.5t35.5 32.5q12 19 12 68v389q0 49 -27 79t-71 30q-43 0 -70 -31t-27 -78v-389zM662 578h194v96q0 57 -25 89t-71 32q-27 0 -50.5 -13.5t-35.5 -36.5q-12 -19 -12 -71v-96z" />
<glyph unicode="&#x178;" horiz-adv-x="729" d="M0 1366h205l160 -535l159 535h207l-270 -778v-588h-197v588zM109 1466v195h192v-195h-192zM428 1466v195h193v-195h-193z" />
<glyph unicode="&#x2c6;" horiz-adv-x="694" d="M68 1133l196 251h164l197 -251h-183l-96 145l-96 -145h-182z" />
<glyph unicode="&#x2dc;" horiz-adv-x="684" d="M68 1151q3 59 10.5 89.5t25.5 57.5q22 31 57 50.5t70 19.5q29 0 57 -12t85 -49q58 -41 90 -41q22 0 33.5 16.5t17.5 56.5h100q-9 -211 -155 -211q-65 0 -142 60q-60 45 -92 45q-51 0 -57 -82h-100z" />
<glyph unicode="&#x2000;" horiz-adv-x="882" />
<glyph unicode="&#x2001;" horiz-adv-x="1765" />
<glyph unicode="&#x2002;" horiz-adv-x="882" />
<glyph unicode="&#x2003;" horiz-adv-x="1765" />
<glyph unicode="&#x2004;" horiz-adv-x="588" />
<glyph unicode="&#x2005;" horiz-adv-x="441" />
<glyph unicode="&#x2006;" horiz-adv-x="294" />
<glyph unicode="&#x2007;" horiz-adv-x="294" />
<glyph unicode="&#x2008;" horiz-adv-x="220" />
<glyph unicode="&#x2009;" horiz-adv-x="353" />
<glyph unicode="&#x200a;" horiz-adv-x="98" />
<glyph unicode="&#x2010;" horiz-adv-x="612" d="M14 440v195h584v-195h-584z" />
<glyph unicode="&#x2011;" horiz-adv-x="612" d="M14 440v195h584v-195h-584z" />
<glyph unicode="&#x2012;" horiz-adv-x="612" d="M14 440v195h584v-195h-584z" />
<glyph unicode="&#x2013;" horiz-adv-x="864" d="M0 440v195h864v-195h-864z" />
<glyph unicode="&#x2014;" horiz-adv-x="1363" d="M0 440v195h1364v-195h-1364z" />
<glyph unicode="&#x2018;" horiz-adv-x="276" d="M41 1026v195l195 145v-340h-195z" />
<glyph unicode="&#x2019;" horiz-adv-x="276" d="M41 1026v340h195v-195z" />
<glyph unicode="&#x201a;" horiz-adv-x="276" d="M41 -145v340h195v-195z" />
<glyph unicode="&#x201c;" horiz-adv-x="471" d="M41 1100v192l145 74v-266h-145zM285 1100v192l145 74v-266h-145z" />
<glyph unicode="&#x201d;" horiz-adv-x="471" d="M41 1102v264h145v-190zM285 1102v264h145v-190z" />
<glyph unicode="&#x201e;" horiz-adv-x="471" d="M41 -74v264h145v-190zM285 -74v264h145v-190z" />
<glyph unicode="&#x2022;" horiz-adv-x="782" d="M109 692q0 120 83.5 202.5t204.5 82.5q114 0 196.5 -83.5t82.5 -199.5q0 -118 -83 -201t-200 -83t-200.5 82.5t-83.5 199.5z" />
<glyph unicode="&#x2026;" horiz-adv-x="1056" d="M41 0v195h195v-195h-195zM430 0v195h195v-195h-195zM821 0v195h195v-195h-195z" />
<glyph unicode="&#x202f;" horiz-adv-x="353" />
<glyph unicode="&#x2039;" horiz-adv-x="456" d="M0 590l389 389v-193l-194 -196l194 -195v-196z" />
<glyph unicode="&#x203a;" horiz-adv-x="456" d="M68 199v196l194 195l-194 196v193l389 -389z" />
<glyph unicode="&#x205f;" horiz-adv-x="441" />
<glyph unicode="&#x20ac;" d="M29 500l39 147h82v68h-121l39 147h82v185q0 149 83 240t220 91q76 0 127.5 -24t107.5 -86l-63 -256q-41 107 -74.5 144.5t-87.5 37.5q-56 0 -86.5 -38.5t-30.5 -108.5v-185h240l-39 -147h-201v-68h182l-39 -147h-143v-156q0 -58 2.5 -76t11.5 -37q37 -63 115 -63 q47 0 79.5 27.5t70.5 101.5v-260q-50 -29 -82.5 -39t-79.5 -10q-79 0 -152 32t-106 82q-55 80 -55 242v156h-121z" />
<glyph unicode="&#x2122;" horiz-adv-x="1134" d="M41 1257v109h393v-109h-139v-710h-117v710h-137zM500 547v819h108l156 -436l154 436h108v-819h-117v497l-118 -350h-58l-117 350v-497h-116z" />
<glyph unicode="&#xe000;" horiz-adv-x="972" d="M0 0v973h973v-973h-973z" />
</font>
</defs>
</svg>
