<?xml version="1.0" encoding="utf-8"?>
<!-- Generator: Adobe Illustrator 18.1.1, SVG Export Plug-In . SVG Version: 6.00 Build 0)  -->
<svg version="1.1" id="Layer_1" xmlns="http://www.w3.org/2000/svg" xmlns:xlink="http://www.w3.org/1999/xlink" x="0px" y="0px"
	 viewBox="0 0 180 180" enable-background="new 0 0 180 180" xml:space="preserve">
<path fill="#FFFFFF" d="M28.5,42.7c1.1-0.4,2.2-0.7,3.5-0.7h118c1.2,0,2.4,0.3,3.5,0.7l-52.9,49.8c-5.4,5.1-13.8,5.1-19.2,0
	L28.5,42.7z M158.5,131.2c0.9-1.5,1.5-3.3,1.5-5.2V52c0-1.3-0.3-2.6-0.8-3.8l-49.5,46.6L158.5,131.2z M105.3,99
	c-4.1,3.5-9.2,5.3-14.3,5.3s-10.2-1.8-14.3-5.3l-48.6,36.2c1.2,0.5,2.5,0.8,3.9,0.8h118c1.4,0,2.7-0.3,3.9-0.8L105.3,99z M22.8,48.2
	C22.3,49.4,22,50.7,22,52v74c0,1.9,0.6,3.6,1.5,5.2l48.8-36.3L22.8,48.2z"/>
</svg>
