<?xml version="1.0" encoding="utf-8"?>
<!-- Generator: Adobe Illustrator 18.1.0, SVG Export Plug-In . SVG Version: 6.00 Build 0)  -->
<svg version="1.1" id="Layer_1" xmlns="http://www.w3.org/2000/svg" xmlns:xlink="http://www.w3.org/1999/xlink" x="0px" y="0px"
	 viewBox="0 0 310 310" enable-background="new 0 0 310 310" xml:space="preserve">
<path fill="#9c9c9c" d="M49.1,73.5c1.9-0.7,3.9-1.1,6-1.1h203.2c2.1,0,4.1,0.4,6,1.1l-91.1,85.8c-9.3,8.7-23.8,8.7-33.1,0L49.1,73.5
	z M273,225.9c1.6-2.6,2.5-5.6,2.5-8.9V89.6c0-2.3-0.5-4.5-1.3-6.5L189,163.3L273,225.9z M181.3,170.4c-7.1,6.1-15.8,9.1-24.6,9.1
	c-8.8,0-17.5-3.1-24.6-9.1l-83.7,62.4c2.1,0.9,4.3,1.4,6.7,1.4h203.2c2.4,0,4.7-0.5,6.7-1.4L181.3,170.4z M39.2,83
	c-0.8,2-1.3,4.2-1.3,6.5V217c0,3.3,1,6.3,2.5,8.9l84-62.6L39.2,83z"/>
</svg>
